<svg xmlns="http://www.w3.org/2000/svg" xmlns:xlink="http://www.w3.org/1999/xlink" contentStyleType="text/css" data-diagram-type="CLASS" height="1074px" preserveAspectRatio="none" style="width:1593px;height:1074px;background:#FFFFFF;" version="1.1" viewBox="0 0 1593 1074" width="1593px" zoomAndPan="magnify"><defs/><g><!--class World--><g class="entity" data-entity="World" data-source-line="2" data-uid="ent0002" id="entity_World"><rect fill="#F1F1F1" height="48" rx="2.5" ry="2.5" style="stroke:#181818;stroke-width:0.5;" width="68.5586" x="257" y="309.5"/><ellipse cx="272" cy="325.5" fill="#ADD1B2" rx="11" ry="11" style="stroke:#181818;stroke-width:1;"/><path d="M274.7656,321.375 Q274.9219,321.1563 275.1094,321.0469 Q275.2969,320.9375 275.5156,320.9375 Q275.8906,320.9375 276.125,321.2031 Q276.3594,321.4531 276.3594,322.0625 L276.3594,323.5156 Q276.3594,324.125 276.125,324.3906 Q275.8906,324.6563 275.5156,324.6563 Q275.1719,324.6563 274.9688,324.4531 Q274.7656,324.2656 274.6563,323.75 Q274.6094,323.3906 274.4219,323.2031 Q274.0938,322.8281 273.4844,322.6094 Q272.875,322.3906 272.25,322.3906 Q271.4844,322.3906 270.8438,322.7188 Q270.2188,323.0469 269.7188,323.7969 Q269.2344,324.5469 269.2344,325.5781 L269.2344,326.6719 Q269.2344,327.9063 270.125,328.7344 Q271.0156,329.5469 272.6094,329.5469 Q273.5469,329.5469 274.2031,329.2969 Q274.5938,329.1406 275.0156,328.7031 Q275.2813,328.4375 275.4219,328.3594 Q275.5781,328.2813 275.7813,328.2813 Q276.1094,328.2813 276.3594,328.5469 Q276.625,328.7969 276.625,329.1406 Q276.625,329.4844 276.2813,329.8906 Q275.7813,330.4688 274.9844,330.7969 Q273.9063,331.25 272.6094,331.25 Q271.0938,331.25 269.8906,330.625 Q268.9063,330.125 268.2188,329.0625 Q267.5313,327.9844 267.5313,326.7031 L267.5313,325.5469 Q267.5313,324.2188 268.1406,323.0781 Q268.7656,321.9219 269.8594,321.3125 Q270.9531,320.6875 272.1875,320.6875 Q272.9219,320.6875 273.5625,320.8594 Q274.2188,321.0156 274.7656,321.375 Z " fill="#000000"/><text fill="#000000" font-family="sans-serif" font-size="14" lengthAdjust="spacing" textLength="36.5586" x="286" y="331.2285">World</text><line style="stroke:#181818;stroke-width:0.5;" x1="258" x2="324.5586" y1="341.5" y2="341.5"/><line style="stroke:#181818;stroke-width:0.5;" x1="258" x2="324.5586" y1="349.5" y2="349.5"/></g><!--class ContactListener--><g class="entity" data-entity="ContactListener" data-source-line="3" data-uid="ent0003" id="entity_ContactListener"><rect fill="#F1F1F1" height="48" rx="2.5" ry="2.5" style="stroke:#181818;stroke-width:0.5;" width="130.0547" x="892.5" y="509.5"/><ellipse cx="907.5" cy="525.5" fill="#B4A7E5" rx="11" ry="11" style="stroke:#181818;stroke-width:1;"/><path d="M908.4531,522.1406 L908.4531,528.7969 L910.1719,528.7969 Q910.7813,528.7969 911.0469,529.0313 Q911.3125,529.2656 911.3125,529.6563 Q911.3125,530.0313 911.0469,530.2656 Q910.7813,530.5 910.1719,530.5 L905.0313,530.5 Q904.4219,530.5 904.1563,530.2656 Q903.8906,530.0313 903.8906,529.6406 Q903.8906,529.2656 904.1563,529.0313 Q904.4219,528.7969 905.0313,528.7969 L906.75,528.7969 L906.75,522.1406 L905.0313,522.1406 Q904.4219,522.1406 904.1563,521.9063 Q903.8906,521.6719 903.8906,521.2813 Q903.8906,520.9063 904.1563,520.6719 Q904.4219,520.4375 905.0313,520.4375 L910.1719,520.4375 Q910.7813,520.4375 911.0469,520.6719 Q911.3125,520.9063 911.3125,521.2813 Q911.3125,521.6719 911.0469,521.9063 Q910.7813,522.1406 910.1719,522.1406 L908.4531,522.1406 Z " fill="#000000"/><text fill="#000000" font-family="sans-serif" font-size="14" font-style="italic" lengthAdjust="spacing" textLength="98.0547" x="921.5" y="531.2285">ContactListener</text><line style="stroke:#181818;stroke-width:0.5;" x1="893.5" x2="1021.5547" y1="541.5" y2="541.5"/><line style="stroke:#181818;stroke-width:0.5;" x1="893.5" x2="1021.5547" y1="549.5" y2="549.5"/></g><!--class Component--><g class="entity" data-entity="Component" data-source-line="5" data-uid="ent0004" id="entity_Component"><rect fill="#F1F1F1" height="100.8281" rx="2.5" ry="2.5" style="stroke:#181818;stroke-width:0.5;" width="124.0273" x="378.5" y="670.5"/><ellipse cx="402.3418" cy="686.5" fill="#B4A7E5" rx="11" ry="11" style="stroke:#181818;stroke-width:1;"/><path d="M403.2949,683.1406 L403.2949,689.7969 L405.0137,689.7969 Q405.623,689.7969 405.8887,690.0313 Q406.1543,690.2656 406.1543,690.6563 Q406.1543,691.0313 405.8887,691.2656 Q405.623,691.5 405.0137,691.5 L399.873,691.5 Q399.2637,691.5 398.998,691.2656 Q398.7324,691.0313 398.7324,690.6406 Q398.7324,690.2656 398.998,690.0313 Q399.2637,689.7969 399.873,689.7969 L401.5918,689.7969 L401.5918,683.1406 L399.873,683.1406 Q399.2637,683.1406 398.998,682.9063 Q398.7324,682.6719 398.7324,682.2813 Q398.7324,681.9063 398.998,681.6719 Q399.2637,681.4375 399.873,681.4375 L405.0137,681.4375 Q405.623,681.4375 405.8887,681.6719 Q406.1543,681.9063 406.1543,682.2813 Q406.1543,682.6719 405.8887,682.9063 Q405.623,683.1406 405.0137,683.1406 L403.2949,683.1406 Z " fill="#000000"/><text fill="#000000" font-family="sans-serif" font-size="14" font-style="italic" lengthAdjust="spacing" textLength="72.3789" x="418.3066" y="692.2285">Component</text><line style="stroke:#181818;stroke-width:0.5;" x1="379.5" x2="501.5273" y1="702.5" y2="702.5"/><line style="stroke:#181818;stroke-width:0.5;" x1="379.5" x2="501.5273" y1="710.5" y2="710.5"/><ellipse cx="389.5" cy="724.8047" fill="#84BE84" rx="3" ry="3" style="stroke:#038048;stroke-width:1;"/><text fill="#000000" font-family="sans-serif" font-size="14" lengthAdjust="spacing" textLength="98.0273" x="398.5" y="729.0332">setEntity(Entity)</text><ellipse cx="389.5" cy="742.4141" fill="#84BE84" rx="3" ry="3" style="stroke:#038048;stroke-width:1;"/><text fill="#000000" font-family="sans-serif" font-size="14" lengthAdjust="spacing" textLength="52.1445" x="398.5" y="746.6426">update()</text><ellipse cx="389.5" cy="760.0234" fill="#84BE84" rx="3" ry="3" style="stroke:#038048;stroke-width:1;"/><text fill="#000000" font-family="sans-serif" font-size="14" lengthAdjust="spacing" textLength="39.6689" x="398.5" y="764.252">draw()</text></g><!--class AnimationComponent--><g class="entity" data-entity="AnimationComponent" data-source-line="10" data-uid="ent0005" id="entity_AnimationComponent"><rect fill="#F1F1F1" height="48" rx="2.5" ry="2.5" style="stroke:#181818;stroke-width:0.5;" width="166.6338" x="263" y="509.5"/><ellipse cx="278" cy="525.5" fill="#ADD1B2" rx="11" ry="11" style="stroke:#181818;stroke-width:1;"/><path d="M280.7656,521.375 Q280.9219,521.1563 281.1094,521.0469 Q281.2969,520.9375 281.5156,520.9375 Q281.8906,520.9375 282.125,521.2031 Q282.3594,521.4531 282.3594,522.0625 L282.3594,523.5156 Q282.3594,524.125 282.125,524.3906 Q281.8906,524.6563 281.5156,524.6563 Q281.1719,524.6563 280.9688,524.4531 Q280.7656,524.2656 280.6563,523.75 Q280.6094,523.3906 280.4219,523.2031 Q280.0938,522.8281 279.4844,522.6094 Q278.875,522.3906 278.25,522.3906 Q277.4844,522.3906 276.8438,522.7188 Q276.2188,523.0469 275.7188,523.7969 Q275.2344,524.5469 275.2344,525.5781 L275.2344,526.6719 Q275.2344,527.9063 276.125,528.7344 Q277.0156,529.5469 278.6094,529.5469 Q279.5469,529.5469 280.2031,529.2969 Q280.5938,529.1406 281.0156,528.7031 Q281.2813,528.4375 281.4219,528.3594 Q281.5781,528.2813 281.7813,528.2813 Q282.1094,528.2813 282.3594,528.5469 Q282.625,528.7969 282.625,529.1406 Q282.625,529.4844 282.2813,529.8906 Q281.7813,530.4688 280.9844,530.7969 Q279.9063,531.25 278.6094,531.25 Q277.0938,531.25 275.8906,530.625 Q274.9063,530.125 274.2188,529.0625 Q273.5313,527.9844 273.5313,526.7031 L273.5313,525.5469 Q273.5313,524.2188 274.1406,523.0781 Q274.7656,521.9219 275.8594,521.3125 Q276.9531,520.6875 278.1875,520.6875 Q278.9219,520.6875 279.5625,520.8594 Q280.2188,521.0156 280.7656,521.375 Z " fill="#000000"/><text fill="#000000" font-family="sans-serif" font-size="14" lengthAdjust="spacing" textLength="134.6338" x="292" y="531.2285">AnimationComponent</text><line style="stroke:#181818;stroke-width:0.5;" x1="264" x2="428.6338" y1="541.5" y2="541.5"/><line style="stroke:#181818;stroke-width:0.5;" x1="264" x2="428.6338" y1="549.5" y2="549.5"/></g><!--class BodyComponent--><g class="entity" data-entity="BodyComponent" data-source-line="11" data-uid="ent0006" id="entity_BodyComponent"><rect fill="#F1F1F1" height="48" rx="2.5" ry="2.5" style="stroke:#181818;stroke-width:0.5;" width="136.2891" x="465.5" y="509.5"/><ellipse cx="480.5" cy="525.5" fill="#ADD1B2" rx="11" ry="11" style="stroke:#181818;stroke-width:1;"/><path d="M483.2656,521.375 Q483.4219,521.1563 483.6094,521.0469 Q483.7969,520.9375 484.0156,520.9375 Q484.3906,520.9375 484.625,521.2031 Q484.8594,521.4531 484.8594,522.0625 L484.8594,523.5156 Q484.8594,524.125 484.625,524.3906 Q484.3906,524.6563 484.0156,524.6563 Q483.6719,524.6563 483.4688,524.4531 Q483.2656,524.2656 483.1563,523.75 Q483.1094,523.3906 482.9219,523.2031 Q482.5938,522.8281 481.9844,522.6094 Q481.375,522.3906 480.75,522.3906 Q479.9844,522.3906 479.3438,522.7188 Q478.7188,523.0469 478.2188,523.7969 Q477.7344,524.5469 477.7344,525.5781 L477.7344,526.6719 Q477.7344,527.9063 478.625,528.7344 Q479.5156,529.5469 481.1094,529.5469 Q482.0469,529.5469 482.7031,529.2969 Q483.0938,529.1406 483.5156,528.7031 Q483.7813,528.4375 483.9219,528.3594 Q484.0781,528.2813 484.2813,528.2813 Q484.6094,528.2813 484.8594,528.5469 Q485.125,528.7969 485.125,529.1406 Q485.125,529.4844 484.7813,529.8906 Q484.2813,530.4688 483.4844,530.7969 Q482.4063,531.25 481.1094,531.25 Q479.5938,531.25 478.3906,530.625 Q477.4063,530.125 476.7188,529.0625 Q476.0313,527.9844 476.0313,526.7031 L476.0313,525.5469 Q476.0313,524.2188 476.6406,523.0781 Q477.2656,521.9219 478.3594,521.3125 Q479.4531,520.6875 480.6875,520.6875 Q481.4219,520.6875 482.0625,520.8594 Q482.7188,521.0156 483.2656,521.375 Z " fill="#000000"/><text fill="#000000" font-family="sans-serif" font-size="14" lengthAdjust="spacing" textLength="104.2891" x="494.5" y="531.2285">BodyComponent</text><line style="stroke:#181818;stroke-width:0.5;" x1="466.5" x2="600.7891" y1="541.5" y2="541.5"/><line style="stroke:#181818;stroke-width:0.5;" x1="466.5" x2="600.7891" y1="549.5" y2="549.5"/></g><!--class ControlComponent--><g class="entity" data-entity="ControlComponent" data-source-line="12" data-uid="ent0007" id="entity_ControlComponent"><rect fill="#F1F1F1" height="48" rx="2.5" ry="2.5" style="stroke:#181818;stroke-width:0.5;" width="149.5098" x="636.5" y="509.5"/><ellipse cx="651.5" cy="525.5" fill="#ADD1B2" rx="11" ry="11" style="stroke:#181818;stroke-width:1;"/><path d="M654.2656,521.375 Q654.4219,521.1563 654.6094,521.0469 Q654.7969,520.9375 655.0156,520.9375 Q655.3906,520.9375 655.625,521.2031 Q655.8594,521.4531 655.8594,522.0625 L655.8594,523.5156 Q655.8594,524.125 655.625,524.3906 Q655.3906,524.6563 655.0156,524.6563 Q654.6719,524.6563 654.4688,524.4531 Q654.2656,524.2656 654.1563,523.75 Q654.1094,523.3906 653.9219,523.2031 Q653.5938,522.8281 652.9844,522.6094 Q652.375,522.3906 651.75,522.3906 Q650.9844,522.3906 650.3438,522.7188 Q649.7188,523.0469 649.2188,523.7969 Q648.7344,524.5469 648.7344,525.5781 L648.7344,526.6719 Q648.7344,527.9063 649.625,528.7344 Q650.5156,529.5469 652.1094,529.5469 Q653.0469,529.5469 653.7031,529.2969 Q654.0938,529.1406 654.5156,528.7031 Q654.7813,528.4375 654.9219,528.3594 Q655.0781,528.2813 655.2813,528.2813 Q655.6094,528.2813 655.8594,528.5469 Q656.125,528.7969 656.125,529.1406 Q656.125,529.4844 655.7813,529.8906 Q655.2813,530.4688 654.4844,530.7969 Q653.4063,531.25 652.1094,531.25 Q650.5938,531.25 649.3906,530.625 Q648.4063,530.125 647.7188,529.0625 Q647.0313,527.9844 647.0313,526.7031 L647.0313,525.5469 Q647.0313,524.2188 647.6406,523.0781 Q648.2656,521.9219 649.3594,521.3125 Q650.4531,520.6875 651.6875,520.6875 Q652.4219,520.6875 653.0625,520.8594 Q653.7188,521.0156 654.2656,521.375 Z " fill="#000000"/><text fill="#000000" font-family="sans-serif" font-size="14" lengthAdjust="spacing" textLength="117.5098" x="665.5" y="531.2285">ControlComponent</text><line style="stroke:#181818;stroke-width:0.5;" x1="637.5" x2="785.0098" y1="541.5" y2="541.5"/><line style="stroke:#181818;stroke-width:0.5;" x1="637.5" x2="785.0098" y1="549.5" y2="549.5"/></g><!--class GameManager--><g class="entity" data-entity="GameManager" data-source-line="18" data-uid="ent0011" id="entity_GameManager"><rect fill="#F1F1F1" height="224.0938" rx="2.5" ry="2.5" style="stroke:#181818;stroke-width:0.5;" width="340.3506" x="727.5" y="7"/><ellipse cx="846.7358" cy="23" fill="#ADD1B2" rx="11" ry="11" style="stroke:#181818;stroke-width:1;"/><path d="M849.5015,18.875 Q849.6577,18.6563 849.8452,18.5469 Q850.0327,18.4375 850.2515,18.4375 Q850.6265,18.4375 850.8608,18.7031 Q851.0952,18.9531 851.0952,19.5625 L851.0952,21.0156 Q851.0952,21.625 850.8608,21.8906 Q850.6265,22.1563 850.2515,22.1563 Q849.9077,22.1563 849.7046,21.9531 Q849.5015,21.7656 849.3921,21.25 Q849.3452,20.8906 849.1577,20.7031 Q848.8296,20.3281 848.2202,20.1094 Q847.6108,19.8906 846.9858,19.8906 Q846.2202,19.8906 845.5796,20.2188 Q844.9546,20.5469 844.4546,21.2969 Q843.9702,22.0469 843.9702,23.0781 L843.9702,24.1719 Q843.9702,25.4063 844.8608,26.2344 Q845.7515,27.0469 847.3452,27.0469 Q848.2827,27.0469 848.939,26.7969 Q849.3296,26.6406 849.7515,26.2031 Q850.0171,25.9375 850.1577,25.8594 Q850.314,25.7813 850.5171,25.7813 Q850.8452,25.7813 851.0952,26.0469 Q851.3608,26.2969 851.3608,26.6406 Q851.3608,26.9844 851.0171,27.3906 Q850.5171,27.9688 849.7202,28.2969 Q848.6421,28.75 847.3452,28.75 Q845.8296,28.75 844.6265,28.125 Q843.6421,27.625 842.9546,26.5625 Q842.2671,25.4844 842.2671,24.2031 L842.2671,23.0469 Q842.2671,21.7188 842.8765,20.5781 Q843.5015,19.4219 844.5952,18.8125 Q845.689,18.1875 846.9233,18.1875 Q847.6577,18.1875 848.2983,18.3594 Q848.9546,18.5156 849.5015,18.875 Z " fill="#000000"/><text fill="#000000" font-family="sans-serif" font-size="14" lengthAdjust="spacing" textLength="93.3789" x="867.2358" y="28.7285">GameManager</text><line style="stroke:#181818;stroke-width:0.5;" x1="728.5" x2="1066.8506" y1="39" y2="39"/><rect fill="none" height="6" style="stroke:#C82930;stroke-width:1;" width="6" x="735.5" y="50.3047"/><text fill="#000000" font-family="sans-serif" font-size="14" lengthAdjust="spacing" textLength="80.9238" x="747.5" y="57.5332">player: Entity</text><rect fill="none" height="6" style="stroke:#C82930;stroke-width:1;" width="6" x="735.5" y="67.9141"/><text fill="#000000" font-family="sans-serif" font-size="14" lengthAdjust="spacing" textLength="127.5791" x="747.5" y="75.1426">physicsWorld: World</text><rect fill="none" height="6" style="stroke:#C82930;stroke-width:1;" width="6" x="735.5" y="85.5234"/><text fill="#000000" font-family="sans-serif" font-size="14" lengthAdjust="spacing" textLength="62.248" x="747.5" y="92.752">map: Map</text><rect fill="none" height="6" style="stroke:#C82930;stroke-width:1;" width="6" x="735.5" y="103.1328"/><text fill="#000000" font-family="sans-serif" font-size="14" lengthAdjust="spacing" textLength="186.7646" x="747.5" y="110.3613">entityManager: EntityManager</text><rect fill="none" height="6" style="stroke:#C82930;stroke-width:1;" width="6" x="735.5" y="120.7422"/><text fill="#000000" font-family="sans-serif" font-size="14" lengthAdjust="spacing" textLength="188.3369" x="747.5" y="127.9707">eventManager: EventManager</text><rect fill="none" height="6" style="stroke:#C82930;stroke-width:1;" width="6" x="735.5" y="138.3516"/><text fill="#000000" font-family="sans-serif" font-size="14" lengthAdjust="spacing" textLength="150.9648" x="747.5" y="145.5801">gameMenu: GameMenu</text><rect fill="none" height="6" style="stroke:#C82930;stroke-width:1;" width="6" x="735.5" y="155.9609"/><text fill="#000000" font-family="sans-serif" font-size="14" lengthAdjust="spacing" textLength="188.3506" x="747.5" y="163.1895">eventDialogue: EventDialogue</text><rect fill="none" height="6" style="stroke:#C82930;stroke-width:1;" width="6" x="735.5" y="173.5703"/><text fill="#000000" font-family="sans-serif" font-size="14" lengthAdjust="spacing" textLength="160.2344" x="747.5" y="180.7988">timeTracker: TimeTracker</text><rect fill="none" height="6" style="stroke:#C82930;stroke-width:1;" width="6" x="735.5" y="191.1797"/><text fill="#000000" font-family="sans-serif" font-size="14" lengthAdjust="spacing" textLength="173.4824" x="747.5" y="198.4082">scoreTracker: ScoreTracker</text><rect fill="none" height="6" style="stroke:#C82930;stroke-width:1;" width="6" x="735.5" y="208.7891"/><text fill="#000000" font-family="sans-serif" font-size="14" lengthAdjust="spacing" textLength="314.3506" x="747.5" y="216.0176">eventCompletionTracker: EventCompletionTracker</text><line style="stroke:#181818;stroke-width:0.5;" x1="728.5" x2="1066.8506" y1="223.0938" y2="223.0938"/></g><!--class Map--><g class="entity" data-entity="Map" data-source-line="33" data-uid="ent0013" id="entity_Map"><rect fill="#F1F1F1" height="48" rx="2.5" ry="2.5" style="stroke:#181818;stroke-width:0.5;" width="59.2344" x="361" y="309.5"/><ellipse cx="376" cy="325.5" fill="#ADD1B2" rx="11" ry="11" style="stroke:#181818;stroke-width:1;"/><path d="M378.7656,321.375 Q378.9219,321.1563 379.1094,321.0469 Q379.2969,320.9375 379.5156,320.9375 Q379.8906,320.9375 380.125,321.2031 Q380.3594,321.4531 380.3594,322.0625 L380.3594,323.5156 Q380.3594,324.125 380.125,324.3906 Q379.8906,324.6563 379.5156,324.6563 Q379.1719,324.6563 378.9688,324.4531 Q378.7656,324.2656 378.6563,323.75 Q378.6094,323.3906 378.4219,323.2031 Q378.0938,322.8281 377.4844,322.6094 Q376.875,322.3906 376.25,322.3906 Q375.4844,322.3906 374.8438,322.7188 Q374.2188,323.0469 373.7188,323.7969 Q373.2344,324.5469 373.2344,325.5781 L373.2344,326.6719 Q373.2344,327.9063 374.125,328.7344 Q375.0156,329.5469 376.6094,329.5469 Q377.5469,329.5469 378.2031,329.2969 Q378.5938,329.1406 379.0156,328.7031 Q379.2813,328.4375 379.4219,328.3594 Q379.5781,328.2813 379.7813,328.2813 Q380.1094,328.2813 380.3594,328.5469 Q380.625,328.7969 380.625,329.1406 Q380.625,329.4844 380.2813,329.8906 Q379.7813,330.4688 378.9844,330.7969 Q377.9063,331.25 376.6094,331.25 Q375.0938,331.25 373.8906,330.625 Q372.9063,330.125 372.2188,329.0625 Q371.5313,327.9844 371.5313,326.7031 L371.5313,325.5469 Q371.5313,324.2188 372.1406,323.0781 Q372.7656,321.9219 373.8594,321.3125 Q374.9531,320.6875 376.1875,320.6875 Q376.9219,320.6875 377.5625,320.8594 Q378.2188,321.0156 378.7656,321.375 Z " fill="#000000"/><text fill="#000000" font-family="sans-serif" font-size="14" lengthAdjust="spacing" textLength="27.2344" x="390" y="331.2285">Map</text><line style="stroke:#181818;stroke-width:0.5;" x1="362" x2="419.2344" y1="341.5" y2="341.5"/><line style="stroke:#181818;stroke-width:0.5;" x1="362" x2="419.2344" y1="349.5" y2="349.5"/></g><!--class EntityManager--><g class="entity" data-entity="EntityManager" data-source-line="34" data-uid="ent0015" id="entity_EntityManager"><rect fill="#F1F1F1" height="83.2188" rx="2.5" ry="2.5" style="stroke:#181818;stroke-width:0.5;" width="224.4199" x="562.5" y="292"/><ellipse cx="625.3257" cy="308" fill="#ADD1B2" rx="11" ry="11" style="stroke:#181818;stroke-width:1;"/><path d="M628.0913,303.875 Q628.2476,303.6563 628.4351,303.5469 Q628.6226,303.4375 628.8413,303.4375 Q629.2163,303.4375 629.4507,303.7031 Q629.6851,303.9531 629.6851,304.5625 L629.6851,306.0156 Q629.6851,306.625 629.4507,306.8906 Q629.2163,307.1563 628.8413,307.1563 Q628.4976,307.1563 628.2944,306.9531 Q628.0913,306.7656 627.9819,306.25 Q627.9351,305.8906 627.7476,305.7031 Q627.4194,305.3281 626.8101,305.1094 Q626.2007,304.8906 625.5757,304.8906 Q624.8101,304.8906 624.1694,305.2188 Q623.5444,305.5469 623.0444,306.2969 Q622.5601,307.0469 622.5601,308.0781 L622.5601,309.1719 Q622.5601,310.4063 623.4507,311.2344 Q624.3413,312.0469 625.9351,312.0469 Q626.8726,312.0469 627.5288,311.7969 Q627.9194,311.6406 628.3413,311.2031 Q628.6069,310.9375 628.7476,310.8594 Q628.9038,310.7813 629.1069,310.7813 Q629.4351,310.7813 629.6851,311.0469 Q629.9507,311.2969 629.9507,311.6406 Q629.9507,311.9844 629.6069,312.3906 Q629.1069,312.9688 628.3101,313.2969 Q627.2319,313.75 625.9351,313.75 Q624.4194,313.75 623.2163,313.125 Q622.2319,312.625 621.5444,311.5625 Q620.8569,310.4844 620.8569,309.2031 L620.8569,308.0469 Q620.8569,306.7188 621.4663,305.5781 Q622.0913,304.4219 623.1851,303.8125 Q624.2788,303.1875 625.5132,303.1875 Q626.2476,303.1875 626.8882,303.3594 Q627.5444,303.5156 628.0913,303.875 Z " fill="#000000"/><text fill="#000000" font-family="sans-serif" font-size="14" lengthAdjust="spacing" textLength="90.2686" x="645.8257" y="313.7285">EntityManager</text><line style="stroke:#181818;stroke-width:0.5;" x1="563.5" x2="785.9199" y1="324" y2="324"/><rect fill="none" height="6" style="stroke:#C82930;stroke-width:1;" width="6" x="570.5" y="335.3047"/><text fill="#000000" font-family="sans-serif" font-size="14" lengthAdjust="spacing" textLength="125.2891" x="582.5" y="342.5332">entities: List&lt;Entity&gt;</text><line style="stroke:#181818;stroke-width:0.5;" x1="563.5" x2="785.9199" y1="349.6094" y2="349.6094"/><ellipse cx="573.5" cy="363.9141" fill="#84BE84" rx="3" ry="3" style="stroke:#038048;stroke-width:1;"/><text fill="#000000" font-family="sans-serif" font-size="14" lengthAdjust="spacing" textLength="198.4199" x="582.5" y="368.1426">createEntity(Component): Entity</text></g><!--class EventManager--><g class="entity" data-entity="EventManager" data-source-line="35" data-uid="ent0017" id="entity_EventManager"><rect fill="#F1F1F1" height="83.2188" rx="2.5" ry="2.5" style="stroke:#181818;stroke-width:0.5;" width="275.7783" x="892.5" y="292"/><ellipse cx="980.6118" cy="308" fill="#ADD1B2" rx="11" ry="11" style="stroke:#181818;stroke-width:1;"/><path d="M983.3774,303.875 Q983.5337,303.6563 983.7212,303.5469 Q983.9087,303.4375 984.1274,303.4375 Q984.5024,303.4375 984.7368,303.7031 Q984.9712,303.9531 984.9712,304.5625 L984.9712,306.0156 Q984.9712,306.625 984.7368,306.8906 Q984.5024,307.1563 984.1274,307.1563 Q983.7837,307.1563 983.5806,306.9531 Q983.3774,306.7656 983.2681,306.25 Q983.2212,305.8906 983.0337,305.7031 Q982.7056,305.3281 982.0962,305.1094 Q981.4868,304.8906 980.8618,304.8906 Q980.0962,304.8906 979.4556,305.2188 Q978.8306,305.5469 978.3306,306.2969 Q977.8462,307.0469 977.8462,308.0781 L977.8462,309.1719 Q977.8462,310.4063 978.7368,311.2344 Q979.6274,312.0469 981.2212,312.0469 Q982.1587,312.0469 982.8149,311.7969 Q983.2056,311.6406 983.6274,311.2031 Q983.8931,310.9375 984.0337,310.8594 Q984.1899,310.7813 984.3931,310.7813 Q984.7212,310.7813 984.9712,311.0469 Q985.2368,311.2969 985.2368,311.6406 Q985.2368,311.9844 984.8931,312.3906 Q984.3931,312.9688 983.5962,313.2969 Q982.5181,313.75 981.2212,313.75 Q979.7056,313.75 978.5024,313.125 Q977.5181,312.625 976.8306,311.5625 Q976.1431,310.4844 976.1431,309.2031 L976.1431,308.0469 Q976.1431,306.7188 976.7524,305.5781 Q977.3774,304.4219 978.4712,303.8125 Q979.5649,303.1875 980.7993,303.1875 Q981.5337,303.1875 982.1743,303.3594 Q982.8306,303.5156 983.3774,303.875 Z " fill="#000000"/><text fill="#000000" font-family="sans-serif" font-size="14" lengthAdjust="spacing" textLength="91.0547" x="1001.1118" y="313.7285">EventManager</text><line style="stroke:#181818;stroke-width:0.5;" x1="893.5" x2="1167.2783" y1="324" y2="324"/><rect fill="none" height="6" style="stroke:#C82930;stroke-width:1;" width="6" x="900.5" y="335.3047"/><text fill="#000000" font-family="sans-serif" font-size="14" lengthAdjust="spacing" textLength="249.7783" x="912.5" y="342.5332">activeEventTriggers: List&lt;EventTrigger&gt;</text><line style="stroke:#181818;stroke-width:0.5;" x1="893.5" x2="1167.2783" y1="349.6094" y2="349.6094"/><ellipse cx="903.5" cy="363.9141" fill="#84BE84" rx="3" ry="3" style="stroke:#038048;stroke-width:1;"/><text fill="#000000" font-family="sans-serif" font-size="14" lengthAdjust="spacing" textLength="52.1445" x="912.5" y="368.1426">update()</text></g><!--class GameMenu--><g class="entity" data-entity="GameMenu" data-source-line="36" data-uid="ent0019" id="entity_GameMenu"><rect fill="#F1F1F1" height="48" rx="2.5" ry="2.5" style="stroke:#181818;stroke-width:0.5;" width="105.1445" x="1481" y="309.5"/><ellipse cx="1496" cy="325.5" fill="#ADD1B2" rx="11" ry="11" style="stroke:#181818;stroke-width:1;"/><path d="M1498.7656,321.375 Q1498.9219,321.1563 1499.1094,321.0469 Q1499.2969,320.9375 1499.5156,320.9375 Q1499.8906,320.9375 1500.125,321.2031 Q1500.3594,321.4531 1500.3594,322.0625 L1500.3594,323.5156 Q1500.3594,324.125 1500.125,324.3906 Q1499.8906,324.6563 1499.5156,324.6563 Q1499.1719,324.6563 1498.9688,324.4531 Q1498.7656,324.2656 1498.6563,323.75 Q1498.6094,323.3906 1498.4219,323.2031 Q1498.0938,322.8281 1497.4844,322.6094 Q1496.875,322.3906 1496.25,322.3906 Q1495.4844,322.3906 1494.8438,322.7188 Q1494.2188,323.0469 1493.7188,323.7969 Q1493.2344,324.5469 1493.2344,325.5781 L1493.2344,326.6719 Q1493.2344,327.9063 1494.125,328.7344 Q1495.0156,329.5469 1496.6094,329.5469 Q1497.5469,329.5469 1498.2031,329.2969 Q1498.5938,329.1406 1499.0156,328.7031 Q1499.2813,328.4375 1499.4219,328.3594 Q1499.5781,328.2813 1499.7813,328.2813 Q1500.1094,328.2813 1500.3594,328.5469 Q1500.625,328.7969 1500.625,329.1406 Q1500.625,329.4844 1500.2813,329.8906 Q1499.7813,330.4688 1498.9844,330.7969 Q1497.9063,331.25 1496.6094,331.25 Q1495.0938,331.25 1493.8906,330.625 Q1492.9063,330.125 1492.2188,329.0625 Q1491.5313,327.9844 1491.5313,326.7031 L1491.5313,325.5469 Q1491.5313,324.2188 1492.1406,323.0781 Q1492.7656,321.9219 1493.8594,321.3125 Q1494.9531,320.6875 1496.1875,320.6875 Q1496.9219,320.6875 1497.5625,320.8594 Q1498.2188,321.0156 1498.7656,321.375 Z " fill="#000000"/><text fill="#000000" font-family="sans-serif" font-size="14" lengthAdjust="spacing" textLength="73.1445" x="1510" y="331.2285">GameMenu</text><line style="stroke:#181818;stroke-width:0.5;" x1="1482" x2="1585.1445" y1="341.5" y2="341.5"/><line style="stroke:#181818;stroke-width:0.5;" x1="1482" x2="1585.1445" y1="349.5" y2="349.5"/></g><!--class EventDialogue--><g class="entity" data-entity="EventDialogue" data-source-line="37" data-uid="ent0021" id="entity_EventDialogue"><rect fill="#F1F1F1" height="48" rx="2.5" ry="2.5" style="stroke:#181818;stroke-width:0.5;" width="123.0615" x="852" y="858"/><ellipse cx="867" cy="874" fill="#ADD1B2" rx="11" ry="11" style="stroke:#181818;stroke-width:1;"/><path d="M869.7656,869.875 Q869.9219,869.6563 870.1094,869.5469 Q870.2969,869.4375 870.5156,869.4375 Q870.8906,869.4375 871.125,869.7031 Q871.3594,869.9531 871.3594,870.5625 L871.3594,872.0156 Q871.3594,872.625 871.125,872.8906 Q870.8906,873.1563 870.5156,873.1563 Q870.1719,873.1563 869.9688,872.9531 Q869.7656,872.7656 869.6563,872.25 Q869.6094,871.8906 869.4219,871.7031 Q869.0938,871.3281 868.4844,871.1094 Q867.875,870.8906 867.25,870.8906 Q866.4844,870.8906 865.8438,871.2188 Q865.2188,871.5469 864.7188,872.2969 Q864.2344,873.0469 864.2344,874.0781 L864.2344,875.1719 Q864.2344,876.4063 865.125,877.2344 Q866.0156,878.0469 867.6094,878.0469 Q868.5469,878.0469 869.2031,877.7969 Q869.5938,877.6406 870.0156,877.2031 Q870.2813,876.9375 870.4219,876.8594 Q870.5781,876.7813 870.7813,876.7813 Q871.1094,876.7813 871.3594,877.0469 Q871.625,877.2969 871.625,877.6406 Q871.625,877.9844 871.2813,878.3906 Q870.7813,878.9688 869.9844,879.2969 Q868.9063,879.75 867.6094,879.75 Q866.0938,879.75 864.8906,879.125 Q863.9063,878.625 863.2188,877.5625 Q862.5313,876.4844 862.5313,875.2031 L862.5313,874.0469 Q862.5313,872.7188 863.1406,871.5781 Q863.7656,870.4219 864.8594,869.8125 Q865.9531,869.1875 867.1875,869.1875 Q867.9219,869.1875 868.5625,869.3594 Q869.2188,869.5156 869.7656,869.875 Z " fill="#000000"/><text fill="#000000" font-family="sans-serif" font-size="14" lengthAdjust="spacing" textLength="91.0615" x="881" y="879.7285">EventDialogue</text><line style="stroke:#181818;stroke-width:0.5;" x1="853" x2="974.0615" y1="890" y2="890"/><line style="stroke:#181818;stroke-width:0.5;" x1="853" x2="974.0615" y1="898" y2="898"/></g><!--class TimeTracker--><g class="entity" data-entity="TimeTracker" data-source-line="38" data-uid="ent0023" id="entity_TimeTracker"><rect fill="#F1F1F1" height="48" rx="2.5" ry="2.5" style="stroke:#181818;stroke-width:0.5;" width="110.5586" x="1380" y="405"/><ellipse cx="1395" cy="421" fill="#ADD1B2" rx="11" ry="11" style="stroke:#181818;stroke-width:1;"/><path d="M1397.7656,416.875 Q1397.9219,416.6563 1398.1094,416.5469 Q1398.2969,416.4375 1398.5156,416.4375 Q1398.8906,416.4375 1399.125,416.7031 Q1399.3594,416.9531 1399.3594,417.5625 L1399.3594,419.0156 Q1399.3594,419.625 1399.125,419.8906 Q1398.8906,420.1563 1398.5156,420.1563 Q1398.1719,420.1563 1397.9688,419.9531 Q1397.7656,419.7656 1397.6563,419.25 Q1397.6094,418.8906 1397.4219,418.7031 Q1397.0938,418.3281 1396.4844,418.1094 Q1395.875,417.8906 1395.25,417.8906 Q1394.4844,417.8906 1393.8438,418.2188 Q1393.2188,418.5469 1392.7188,419.2969 Q1392.2344,420.0469 1392.2344,421.0781 L1392.2344,422.1719 Q1392.2344,423.4063 1393.125,424.2344 Q1394.0156,425.0469 1395.6094,425.0469 Q1396.5469,425.0469 1397.2031,424.7969 Q1397.5938,424.6406 1398.0156,424.2031 Q1398.2813,423.9375 1398.4219,423.8594 Q1398.5781,423.7813 1398.7813,423.7813 Q1399.1094,423.7813 1399.3594,424.0469 Q1399.625,424.2969 1399.625,424.6406 Q1399.625,424.9844 1399.2813,425.3906 Q1398.7813,425.9688 1397.9844,426.2969 Q1396.9063,426.75 1395.6094,426.75 Q1394.0938,426.75 1392.8906,426.125 Q1391.9063,425.625 1391.2188,424.5625 Q1390.5313,423.4844 1390.5313,422.2031 L1390.5313,421.0469 Q1390.5313,419.7188 1391.1406,418.5781 Q1391.7656,417.4219 1392.8594,416.8125 Q1393.9531,416.1875 1395.1875,416.1875 Q1395.9219,416.1875 1396.5625,416.3594 Q1397.2188,416.5156 1397.7656,416.875 Z " fill="#000000"/><text fill="#000000" font-family="sans-serif" font-size="14" lengthAdjust="spacing" textLength="78.5586" x="1409" y="426.7285">TimeTracker</text><line style="stroke:#181818;stroke-width:0.5;" x1="1381" x2="1489.5586" y1="437" y2="437"/><line style="stroke:#181818;stroke-width:0.5;" x1="1381" x2="1489.5586" y1="445" y2="445"/></g><!--class ScoreTracker--><g class="entity" data-entity="ScoreTracker" data-source-line="39" data-uid="ent0025" id="entity_ScoreTracker"><rect fill="#F1F1F1" height="48" rx="2.5" ry="2.5" style="stroke:#181818;stroke-width:0.5;" width="116.0205" x="1266.5" y="858"/><ellipse cx="1281.5" cy="874" fill="#ADD1B2" rx="11" ry="11" style="stroke:#181818;stroke-width:1;"/><path d="M1284.2656,869.875 Q1284.4219,869.6563 1284.6094,869.5469 Q1284.7969,869.4375 1285.0156,869.4375 Q1285.3906,869.4375 1285.625,869.7031 Q1285.8594,869.9531 1285.8594,870.5625 L1285.8594,872.0156 Q1285.8594,872.625 1285.625,872.8906 Q1285.3906,873.1563 1285.0156,873.1563 Q1284.6719,873.1563 1284.4688,872.9531 Q1284.2656,872.7656 1284.1563,872.25 Q1284.1094,871.8906 1283.9219,871.7031 Q1283.5938,871.3281 1282.9844,871.1094 Q1282.375,870.8906 1281.75,870.8906 Q1280.9844,870.8906 1280.3438,871.2188 Q1279.7188,871.5469 1279.2188,872.2969 Q1278.7344,873.0469 1278.7344,874.0781 L1278.7344,875.1719 Q1278.7344,876.4063 1279.625,877.2344 Q1280.5156,878.0469 1282.1094,878.0469 Q1283.0469,878.0469 1283.7031,877.7969 Q1284.0938,877.6406 1284.5156,877.2031 Q1284.7813,876.9375 1284.9219,876.8594 Q1285.0781,876.7813 1285.2813,876.7813 Q1285.6094,876.7813 1285.8594,877.0469 Q1286.125,877.2969 1286.125,877.6406 Q1286.125,877.9844 1285.7813,878.3906 Q1285.2813,878.9688 1284.4844,879.2969 Q1283.4063,879.75 1282.1094,879.75 Q1280.5938,879.75 1279.3906,879.125 Q1278.4063,878.625 1277.7188,877.5625 Q1277.0313,876.4844 1277.0313,875.2031 L1277.0313,874.0469 Q1277.0313,872.7188 1277.6406,871.5781 Q1278.2656,870.4219 1279.3594,869.8125 Q1280.4531,869.1875 1281.6875,869.1875 Q1282.4219,869.1875 1283.0625,869.3594 Q1283.7188,869.5156 1284.2656,869.875 Z " fill="#000000"/><text fill="#000000" font-family="sans-serif" font-size="14" lengthAdjust="spacing" textLength="84.0205" x="1295.5" y="879.7285">ScoreTracker</text><line style="stroke:#181818;stroke-width:0.5;" x1="1267.5" x2="1381.5205" y1="890" y2="890"/><line style="stroke:#181818;stroke-width:0.5;" x1="1267.5" x2="1381.5205" y1="898" y2="898"/></g><!--class EventCompletionTracker--><g class="entity" data-entity="EventCompletionTracker" data-source-line="40" data-uid="ent0027" id="entity_EventCompletionTracker"><rect fill="#F1F1F1" height="48" rx="2.5" ry="2.5" style="stroke:#181818;stroke-width:0.5;" width="186.0615" x="1026.5" y="858"/><ellipse cx="1041.5" cy="874" fill="#ADD1B2" rx="11" ry="11" style="stroke:#181818;stroke-width:1;"/><path d="M1044.2656,869.875 Q1044.4219,869.6563 1044.6094,869.5469 Q1044.7969,869.4375 1045.0156,869.4375 Q1045.3906,869.4375 1045.625,869.7031 Q1045.8594,869.9531 1045.8594,870.5625 L1045.8594,872.0156 Q1045.8594,872.625 1045.625,872.8906 Q1045.3906,873.1563 1045.0156,873.1563 Q1044.6719,873.1563 1044.4688,872.9531 Q1044.2656,872.7656 1044.1563,872.25 Q1044.1094,871.8906 1043.9219,871.7031 Q1043.5938,871.3281 1042.9844,871.1094 Q1042.375,870.8906 1041.75,870.8906 Q1040.9844,870.8906 1040.3438,871.2188 Q1039.7188,871.5469 1039.2188,872.2969 Q1038.7344,873.0469 1038.7344,874.0781 L1038.7344,875.1719 Q1038.7344,876.4063 1039.625,877.2344 Q1040.5156,878.0469 1042.1094,878.0469 Q1043.0469,878.0469 1043.7031,877.7969 Q1044.0938,877.6406 1044.5156,877.2031 Q1044.7813,876.9375 1044.9219,876.8594 Q1045.0781,876.7813 1045.2813,876.7813 Q1045.6094,876.7813 1045.8594,877.0469 Q1046.125,877.2969 1046.125,877.6406 Q1046.125,877.9844 1045.7813,878.3906 Q1045.2813,878.9688 1044.4844,879.2969 Q1043.4063,879.75 1042.1094,879.75 Q1040.5938,879.75 1039.3906,879.125 Q1038.4063,878.625 1037.7188,877.5625 Q1037.0313,876.4844 1037.0313,875.2031 L1037.0313,874.0469 Q1037.0313,872.7188 1037.6406,871.5781 Q1038.2656,870.4219 1039.3594,869.8125 Q1040.4531,869.1875 1041.6875,869.1875 Q1042.4219,869.1875 1043.0625,869.3594 Q1043.7188,869.5156 1044.2656,869.875 Z " fill="#000000"/><text fill="#000000" font-family="sans-serif" font-size="14" lengthAdjust="spacing" textLength="154.0615" x="1055.5" y="879.7285">EventCompletionTracker</text><line style="stroke:#181818;stroke-width:0.5;" x1="1027.5" x2="1211.5615" y1="890" y2="890"/><line style="stroke:#181818;stroke-width:0.5;" x1="1027.5" x2="1211.5615" y1="898" y2="898"/></g><!--class Entity--><g class="entity" data-entity="Entity" data-source-line="41" data-uid="ent0029" id="entity_Entity"><rect fill="#F1F1F1" height="83.2188" rx="2.5" ry="2.5" style="stroke:#181818;stroke-width:0.5;" width="220.5645" x="7" y="492"/><ellipse cx="95.5254" cy="508" fill="#ADD1B2" rx="11" ry="11" style="stroke:#181818;stroke-width:1;"/><path d="M98.291,503.875 Q98.4473,503.6563 98.6348,503.5469 Q98.8223,503.4375 99.041,503.4375 Q99.416,503.4375 99.6504,503.7031 Q99.8848,503.9531 99.8848,504.5625 L99.8848,506.0156 Q99.8848,506.625 99.6504,506.8906 Q99.416,507.1563 99.041,507.1563 Q98.6973,507.1563 98.4941,506.9531 Q98.291,506.7656 98.1816,506.25 Q98.1348,505.8906 97.9473,505.7031 Q97.6191,505.3281 97.0098,505.1094 Q96.4004,504.8906 95.7754,504.8906 Q95.0098,504.8906 94.3691,505.2188 Q93.7441,505.5469 93.2441,506.2969 Q92.7598,507.0469 92.7598,508.0781 L92.7598,509.1719 Q92.7598,510.4063 93.6504,511.2344 Q94.541,512.0469 96.1348,512.0469 Q97.0723,512.0469 97.7285,511.7969 Q98.1191,511.6406 98.541,511.2031 Q98.8066,510.9375 98.9473,510.8594 Q99.1035,510.7813 99.3066,510.7813 Q99.6348,510.7813 99.8848,511.0469 Q100.1504,511.2969 100.1504,511.6406 Q100.1504,511.9844 99.8066,512.3906 Q99.3066,512.9688 98.5098,513.2969 Q97.4316,513.75 96.1348,513.75 Q94.6191,513.75 93.416,513.125 Q92.4316,512.625 91.7441,511.5625 Q91.0566,510.4844 91.0566,509.2031 L91.0566,508.0469 Q91.0566,506.7188 91.666,505.5781 Q92.291,504.4219 93.3848,503.8125 Q94.4785,503.1875 95.7129,503.1875 Q96.4473,503.1875 97.0879,503.3594 Q97.7441,503.5156 98.291,503.875 Z " fill="#000000"/><text fill="#000000" font-family="sans-serif" font-size="14" lengthAdjust="spacing" textLength="35.0137" x="116.0254" y="513.7285">Entity</text><line style="stroke:#181818;stroke-width:0.5;" x1="8" x2="226.5645" y1="524" y2="524"/><rect fill="none" height="6" style="stroke:#C82930;stroke-width:1;" width="6" x="15" y="535.3047"/><text fill="#000000" font-family="sans-serif" font-size="14" lengthAdjust="spacing" textLength="194.5645" x="27" y="542.5332">components: List&lt;Component&gt;</text><line style="stroke:#181818;stroke-width:0.5;" x1="8" x2="226.5645" y1="549.6094" y2="549.6094"/><ellipse cx="18" cy="563.9141" fill="#84BE84" rx="3" ry="3" style="stroke:#038048;stroke-width:1;"/><text fill="#000000" font-family="sans-serif" font-size="14" lengthAdjust="spacing" textLength="181.3232" x="27" y="568.1426">getComponent(): Component</text></g><!--class Tracker--><g class="entity" data-entity="Tracker" data-source-line="57" data-uid="ent0033" id="entity_Tracker"><rect fill="#F1F1F1" height="100.8281" rx="2.5" ry="2.5" style="stroke:#181818;stroke-width:0.5;" width="139.6201" x="1309.5" y="967"/><ellipse cx="1351.5773" cy="983" fill="#A9DCDF" rx="11" ry="11" style="stroke:#181818;stroke-width:1;"/><path d="M1353.7648,984.7656 L1349.6242,984.7656 L1349.2023,985.7969 L1349.6242,985.7969 Q1350.2336,985.7969 1350.4992,986.0313 Q1350.7648,986.2656 1350.7648,986.6563 Q1350.7648,987.0313 1350.4992,987.2656 Q1350.2336,987.5 1349.6242,987.5 L1347.3273,987.5 Q1346.718,987.5 1346.468,987.2656 Q1346.2023,987.0313 1346.2023,986.6406 Q1346.2023,986.2656 1346.4836,986.0313 Q1346.7492,985.7813 1347.3742,985.7969 L1350.0461,979.1406 L1348.9367,979.1406 Q1348.3273,979.1406 1348.0617,978.9063 Q1347.7961,978.6719 1347.7961,978.2813 Q1347.7961,977.9063 1348.0617,977.6719 Q1348.3273,977.4375 1348.9367,977.4375 L1352.6086,977.4375 L1355.9992,985.7969 Q1356.593,985.7969 1356.7805,985.9375 Q1357.1711,986.2031 1357.1711,986.6563 Q1357.1711,987.0313 1356.9055,987.2656 Q1356.6555,987.5 1356.0461,987.5 L1353.7492,987.5 Q1353.1398,987.5 1352.8742,987.2656 Q1352.6086,987.0313 1352.6086,986.6406 Q1352.6086,986.2656 1352.8742,986.0313 Q1353.1398,985.7969 1353.7492,985.7969 L1354.1711,985.7969 L1353.7648,984.7656 Z M1353.0461,983.0625 L1351.6867,979.6875 L1350.3117,983.0625 L1353.0461,983.0625 Z " fill="#000000"/><text fill="#000000" font-family="sans-serif" font-size="14" font-style="italic" lengthAdjust="spacing" textLength="47.4482" x="1371.5945" y="988.7285">Tracker</text><line style="stroke:#181818;stroke-width:0.5;" x1="1310.5" x2="1448.1201" y1="999" y2="999"/><polygon fill="none" points="1320.5,1008.3047,1324.5,1012.3047,1320.5,1016.3047,1316.5,1012.3047" style="stroke:#B38D22;stroke-width:1;"/><text fill="#000000" font-family="sans-serif" font-size="14" lengthAdjust="spacing" textLength="113.6201" x="1329.5" y="1017.5332">currentValue: float</text><line style="stroke:#181818;stroke-width:0.5;" x1="1310.5" x2="1448.1201" y1="1024.6094" y2="1024.6094"/><ellipse cx="1320.5" cy="1038.9141" fill="#84BE84" rx="3" ry="3" style="stroke:#038048;stroke-width:1;"/><text fill="#000000" font-family="sans-serif" font-size="14" lengthAdjust="spacing" textLength="98.834" x="1329.5" y="1043.1426">getValue(): float</text><ellipse cx="1320.5" cy="1056.5234" fill="#84BE84" rx="3" ry="3" style="stroke:#038048;stroke-width:1;"/><text fill="#000000" font-family="sans-serif" font-size="14" lengthAdjust="spacing" textLength="78.6064" x="1329.5" y="1060.752">update(float)</text></g><!--class EventTrigger--><g class="entity" data-entity="EventTrigger" data-source-line="75" data-uid="ent0036" id="entity_EventTrigger"><rect fill="#F1F1F1" height="100.8281" rx="2.5" ry="2.5" style="stroke:#181818;stroke-width:0.5;" width="141.9512" x="1057.5" y="483"/><ellipse cx="1085.913" cy="499" fill="#ADD1B2" rx="11" ry="11" style="stroke:#181818;stroke-width:1;"/><path d="M1088.6786,494.875 Q1088.8349,494.6563 1089.0224,494.5469 Q1089.2099,494.4375 1089.4286,494.4375 Q1089.8036,494.4375 1090.038,494.7031 Q1090.2724,494.9531 1090.2724,495.5625 L1090.2724,497.0156 Q1090.2724,497.625 1090.038,497.8906 Q1089.8036,498.1563 1089.4286,498.1563 Q1089.0849,498.1563 1088.8817,497.9531 Q1088.6786,497.7656 1088.5692,497.25 Q1088.5224,496.8906 1088.3349,496.7031 Q1088.0067,496.3281 1087.3974,496.1094 Q1086.788,495.8906 1086.163,495.8906 Q1085.3974,495.8906 1084.7567,496.2188 Q1084.1317,496.5469 1083.6317,497.2969 Q1083.1474,498.0469 1083.1474,499.0781 L1083.1474,500.1719 Q1083.1474,501.4063 1084.038,502.2344 Q1084.9286,503.0469 1086.5224,503.0469 Q1087.4599,503.0469 1088.1161,502.7969 Q1088.5067,502.6406 1088.9286,502.2031 Q1089.1942,501.9375 1089.3349,501.8594 Q1089.4911,501.7813 1089.6942,501.7813 Q1090.0224,501.7813 1090.2724,502.0469 Q1090.538,502.2969 1090.538,502.6406 Q1090.538,502.9844 1090.1942,503.3906 Q1089.6942,503.9688 1088.8974,504.2969 Q1087.8192,504.75 1086.5224,504.75 Q1085.0067,504.75 1083.8036,504.125 Q1082.8192,503.625 1082.1317,502.5625 Q1081.4442,501.4844 1081.4442,500.2031 L1081.4442,499.0469 Q1081.4442,497.7188 1082.0536,496.5781 Q1082.6786,495.4219 1083.7724,494.8125 Q1084.8661,494.1875 1086.1005,494.1875 Q1086.8349,494.1875 1087.4755,494.3594 Q1088.1317,494.5156 1088.6786,494.875 Z " fill="#000000"/><text fill="#000000" font-family="sans-serif" font-size="14" lengthAdjust="spacing" textLength="80.1445" x="1102.8937" y="504.7285">EventTrigger</text><line style="stroke:#181818;stroke-width:0.5;" x1="1058.5" x2="1198.4512" y1="515" y2="515"/><rect fill="none" height="6" style="stroke:#C82930;stroke-width:1;" width="6" x="1065.5" y="526.3047"/><text fill="#000000" font-family="sans-serif" font-size="14" lengthAdjust="spacing" textLength="115.9512" x="1077.5" y="533.5332">event: GameEvent</text><line style="stroke:#181818;stroke-width:0.5;" x1="1058.5" x2="1198.4512" y1="540.6094" y2="540.6094"/><ellipse cx="1068.5" cy="554.9141" fill="#84BE84" rx="3" ry="3" style="stroke:#038048;stroke-width:1;"/><text fill="#000000" font-family="sans-serif" font-size="14" lengthAdjust="spacing" textLength="102.71" x="1077.5" y="559.1426">addEntity(Entity)</text><ellipse cx="1068.5" cy="572.5234" fill="#84BE84" rx="3" ry="3" style="stroke:#038048;stroke-width:1;"/><text fill="#000000" font-family="sans-serif" font-size="14" lengthAdjust="spacing" textLength="52.1445" x="1077.5" y="576.752">update()</text></g><!--class GameEvent--><g class="entity" data-entity="GameEvent" data-source-line="80" data-uid="ent0037" id="entity_GameEvent"><rect fill="#F1F1F1" height="118.4375" rx="2.5" ry="2.5" style="stroke:#181818;stroke-width:0.5;" width="340.3506" x="892.5" y="662"/><ellipse cx="1021.4634" cy="678" fill="#ADD1B2" rx="11" ry="11" style="stroke:#181818;stroke-width:1;"/><path d="M1024.229,673.875 Q1024.3853,673.6563 1024.5728,673.5469 Q1024.7603,673.4375 1024.979,673.4375 Q1025.354,673.4375 1025.5884,673.7031 Q1025.8228,673.9531 1025.8228,674.5625 L1025.8228,676.0156 Q1025.8228,676.625 1025.5884,676.8906 Q1025.354,677.1563 1024.979,677.1563 Q1024.6353,677.1563 1024.4321,676.9531 Q1024.229,676.7656 1024.1196,676.25 Q1024.0728,675.8906 1023.8853,675.7031 Q1023.5571,675.3281 1022.9478,675.1094 Q1022.3384,674.8906 1021.7134,674.8906 Q1020.9478,674.8906 1020.3071,675.2188 Q1019.6821,675.5469 1019.1821,676.2969 Q1018.6978,677.0469 1018.6978,678.0781 L1018.6978,679.1719 Q1018.6978,680.4063 1019.5884,681.2344 Q1020.479,682.0469 1022.0728,682.0469 Q1023.0103,682.0469 1023.6665,681.7969 Q1024.0571,681.6406 1024.479,681.2031 Q1024.7446,680.9375 1024.8853,680.8594 Q1025.0415,680.7813 1025.2446,680.7813 Q1025.5728,680.7813 1025.8228,681.0469 Q1026.0884,681.2969 1026.0884,681.6406 Q1026.0884,681.9844 1025.7446,682.3906 Q1025.2446,682.9688 1024.4478,683.2969 Q1023.3696,683.75 1022.0728,683.75 Q1020.5571,683.75 1019.354,683.125 Q1018.3696,682.625 1017.6821,681.5625 Q1016.9946,680.4844 1016.9946,679.2031 L1016.9946,678.0469 Q1016.9946,676.7188 1017.604,675.5781 Q1018.229,674.4219 1019.3228,673.8125 Q1020.4165,673.1875 1021.6509,673.1875 Q1022.3853,673.1875 1023.0259,673.3594 Q1023.6821,673.5156 1024.229,673.875 Z " fill="#000000"/><text fill="#000000" font-family="sans-serif" font-size="14" lengthAdjust="spacing" textLength="73.9238" x="1041.9634" y="683.7285">GameEvent</text><line style="stroke:#181818;stroke-width:0.5;" x1="893.5" x2="1231.8506" y1="694" y2="694"/><rect fill="none" height="6" style="stroke:#C82930;stroke-width:1;" width="6" x="900.5" y="705.3047"/><text fill="#000000" font-family="sans-serif" font-size="14" lengthAdjust="spacing" textLength="151.7783" x="912.5" y="712.5332">dialogue: EventDialogue</text><rect fill="none" height="6" style="stroke:#C82930;stroke-width:1;" width="6" x="900.5" y="722.9141"/><text fill="#000000" font-family="sans-serif" font-size="14" lengthAdjust="spacing" textLength="173.4824" x="912.5" y="730.1426">scoreTracker: ScoreTracker</text><rect fill="none" height="6" style="stroke:#C82930;stroke-width:1;" width="6" x="900.5" y="740.5234"/><text fill="#000000" font-family="sans-serif" font-size="14" lengthAdjust="spacing" textLength="314.3506" x="912.5" y="747.752">eventCompletionTracker: EventCompletionTracker</text><line style="stroke:#181818;stroke-width:0.5;" x1="893.5" x2="1231.8506" y1="754.8281" y2="754.8281"/><ellipse cx="903.5" cy="769.1328" fill="#84BE84" rx="3" ry="3" style="stroke:#038048;stroke-width:1;"/><text fill="#000000" font-family="sans-serif" font-size="14" lengthAdjust="spacing" textLength="77.8066" x="912.5" y="773.3613">apply(Entity)</text></g><!--link AnimationComponent to Component--><g class="link" data-entity-1="AnimationComponent" data-entity-2="Component" data-source-line="14" data-uid="lnk8" id="link_AnimationComponent_Component"><path codeLine="14" d="M358.22,557.62 C372.44,585.69 388.686,617.7426 407.226,654.3426" fill="none" id="AnimationComponent-to-Component" style="stroke:#181818;stroke-width:1;stroke-dasharray:7,7;"/><polygon fill="none" points="415.36,670.4,412.5785,651.6313,401.8736,657.054,415.36,670.4" style="stroke:#181818;stroke-width:1;"/></g><!--link BodyComponent to Component--><g class="link" data-entity-1="BodyComponent" data-entity-2="Component" data-source-line="15" data-uid="lnk9" id="link_BodyComponent_Component"><path codeLine="15" d="M521.91,557.62 C507.84,585.69 491.7739,617.7074 473.4339,654.3074" fill="none" id="BodyComponent-to-Component" style="stroke:#181818;stroke-width:1;stroke-dasharray:7,7;"/><polygon fill="none" points="465.37,670.4,478.7981,656.9953,468.0697,651.6194,465.37,670.4" style="stroke:#181818;stroke-width:1;"/></g><!--link ControlComponent to Component--><g class="link" data-entity-1="ControlComponent" data-entity-2="Component" data-source-line="16" data-uid="lnk10" id="link_ControlComponent_Component"><path codeLine="16" d="M677.73,557.62 C634.02,587.53 571.9035,630.0528 517.5135,667.2828" fill="none" id="ControlComponent-to-Component" style="stroke:#181818;stroke-width:1;stroke-dasharray:7,7;"/><polygon fill="none" points="502.66,677.45,520.9026,672.2339,514.1244,662.3316,502.66,677.45" style="stroke:#181818;stroke-width:1;"/></g><!--reverse link GameManager to World--><g class="link" data-entity-1="GameManager" data-entity-2="World" data-source-line="32" data-uid="lnk12" id="link_GameManager_World"><path codeLine="32" d="M715.739,158.793 C602.839,186.633 465.23,228.41 343.5,292 C334.47,296.72 325.44,303.05 317.49,309.3" fill="none" id="GameManager-backto-World" style="stroke:#181818;stroke-width:1;"/><polygon fill="none" points="727.39,155.92,720.6068,153.4728,715.739,158.793,722.5222,161.2402,727.39,155.92" style="stroke:#181818;stroke-width:1;"/><text fill="#000000" font-family="sans-serif" font-size="13" lengthAdjust="spacing" textLength="7.23" x="316.3391" y="298.5889">1</text></g><!--reverse link GameManager to Map--><g class="link" data-entity-1="GameManager" data-entity-2="Map" data-source-line="33" data-uid="lnk14" id="link_GameManager_Map"><path codeLine="33" d="M715.8823,159.3786 C632.7623,181.7486 545.12,212.51 464.5,261 C443.22,273.8 423.23,293.78 409.41,309.37" fill="none" id="GameManager-backto-Map" style="stroke:#181818;stroke-width:1;"/><polygon fill="none" points="727.47,156.26,720.6366,153.9567,715.8823,159.3786,722.7157,161.6819,727.47,156.26" style="stroke:#181818;stroke-width:1;"/><text fill="#000000" font-family="sans-serif" font-size="13" lengthAdjust="spacing" textLength="7.23" x="406.3582" y="298.6768">1</text></g><!--reverse link GameManager to EntityManager--><g class="link" data-entity-1="GameManager" data-entity-2="EntityManager" data-source-line="34" data-uid="lnk16" id="link_GameManager_EntityManager"><path codeLine="34" d="M772.0912,239.5067 C749.3212,261.1967 735.54,274.33 717.17,291.84" fill="none" id="GameManager-backto-EntityManager" style="stroke:#181818;stroke-width:1;"/><polygon fill="none" points="780.78,231.23,773.6767,232.4721,772.0912,239.5067,779.1945,238.2646,780.78,231.23" style="stroke:#181818;stroke-width:1;"/><text fill="#000000" font-family="sans-serif" font-size="13" lengthAdjust="spacing" textLength="7.23" x="716.6418" y="281.1212">1</text></g><!--reverse link GameManager to EventManager--><g class="link" data-entity-1="GameManager" data-entity-2="EventManager" data-source-line="35" data-uid="lnk18" id="link_GameManager_EventManager"><path codeLine="35" d="M973.4846,241.4031 C987.0546,263.0931 994.09,274.33 1005.05,291.84" fill="none" id="GameManager-backto-EventManager" style="stroke:#181818;stroke-width:1;"/><polygon fill="none" points="967.12,231.23,966.9113,238.4381,973.4846,241.4031,973.6933,234.195,967.12,231.23" style="stroke:#181818;stroke-width:1;"/><text fill="#000000" font-family="sans-serif" font-size="13" lengthAdjust="spacing" textLength="7.23" x="993.2926" y="281.1212">1</text></g><!--reverse link GameManager to GameMenu--><g class="link" data-entity-1="GameManager" data-entity-2="GameMenu" data-source-line="36" data-uid="lnk20" id="link_GameManager_GameMenu"><path codeLine="36" d="M1079.3492,143.4574 C1193.5692,162.9374 1332.83,196.81 1453.5,261 C1476.52,273.25 1498.29,293.48 1513.29,309.31" fill="none" id="GameManager-backto-GameMenu" style="stroke:#181818;stroke-width:1;"/><polygon fill="none" points="1067.52,141.44,1072.7621,146.3918,1079.3492,143.4574,1074.1071,138.5057,1067.52,141.44" style="stroke:#181818;stroke-width:1;"/><text fill="#000000" font-family="sans-serif" font-size="13" lengthAdjust="spacing" textLength="7.23" x="1500.2253" y="298.6015">1</text></g><!--reverse link GameManager to EventDialogue--><g class="link" data-entity-1="GameManager" data-entity-2="EventDialogue" data-source-line="37" data-uid="lnk22" id="link_GameManager_EventDialogue"><path codeLine="37" d="M852.0522,242.7905 C843.0922,274.9805 839.5,298.94 839.5,332.5 C839.5,332.5 839.5,332.5 839.5,722 C839.5,774.37 872.9,828.14 894.83,857.79" fill="none" id="GameManager-backto-EventDialogue" style="stroke:#181818;stroke-width:1;"/><polygon fill="none" points="855.27,231.23,849.8076,235.9376,852.0522,242.7905,857.5146,238.0829,855.27,231.23" style="stroke:#181818;stroke-width:1;"/><text fill="#000000" font-family="sans-serif" font-size="13" lengthAdjust="spacing" textLength="7.23" x="882.1705" y="847.0763">1</text></g><!--reverse link GameManager to TimeTracker--><g class="link" data-entity-1="GameManager" data-entity-2="TimeTracker" data-source-line="38" data-uid="lnk24" id="link_GameManager_TimeTracker"><path codeLine="38" d="M1079.581,131.606 C1183.031,146.286 1298.96,179.47 1382.5,261 C1422.45,299.98 1432.36,368.89 1434.77,404.78" fill="none" id="GameManager-backto-TimeTracker" style="stroke:#181818;stroke-width:1;"/><polygon fill="none" points="1067.7,129.92,1073.0785,134.7233,1079.581,131.606,1074.2025,126.8027,1067.7,129.92" style="stroke:#181818;stroke-width:1;"/><text fill="#000000" font-family="sans-serif" font-size="13" lengthAdjust="spacing" textLength="7.23" x="1426.7721" y="394.0638">1</text></g><!--reverse link GameManager to ScoreTracker--><g class="link" data-entity-1="GameManager" data-entity-2="ScoreTracker" data-source-line="39" data-uid="lnk26" id="link_GameManager_ScoreTracker"><path codeLine="39" d="M1079.6348,133.009 C1210.2648,152.029 1356.5,200.56 1356.5,332.5 C1356.5,332.5 1356.5,332.5 1356.5,722 C1356.5,771.14 1341.63,827.16 1332.16,857.86" fill="none" id="GameManager-backto-ScoreTracker" style="stroke:#181818;stroke-width:1;"/><polygon fill="none" points="1067.76,131.28,1073.1211,136.1028,1079.6348,133.009,1074.2737,128.1862,1067.76,131.28" style="stroke:#181818;stroke-width:1;"/><text fill="#000000" font-family="sans-serif" font-size="13" lengthAdjust="spacing" textLength="7.23" x="1326.2528" y="847.1643">1</text></g><!--reverse link GameManager to EventCompletionTracker--><g class="link" data-entity-1="GameManager" data-entity-2="EventCompletionTracker" data-source-line="40" data-uid="lnk28" id="link_GameManager_EventCompletionTracker"><path codeLine="40" d="M1079.3053,148.9552 C1183.5553,175.6352 1285.5,226.13 1285.5,332.5 C1285.5,332.5 1285.5,332.5 1285.5,722 C1285.5,770.12 1294.91,791.55 1263.5,828 C1250.11,843.54 1231.74,854.52 1212.61,862.29" fill="none" id="GameManager-backto-EventCompletionTracker" style="stroke:#181818;stroke-width:1;"/><polygon fill="none" points="1067.68,145.98,1072.5009,151.3427,1079.3053,148.9552,1074.4844,143.5925,1067.68,145.98" style="stroke:#181818;stroke-width:1;"/><text fill="#000000" font-family="sans-serif" font-size="13" lengthAdjust="spacing" textLength="7.23" x="1220.6175" y="857.5049">1</text></g><!--reverse link GameManager to Entity--><g class="link" data-entity-1="GameManager" data-entity-2="Entity" data-source-line="41" data-uid="lnk30" id="link_GameManager_Entity"><path codeLine="41" d="M715.992,180.0304 C644.132,208.2804 573.25,242.76 507.5,292 C468.87,320.93 475.51,345.27 437.5,375 C399.76,404.52 290.72,455.9 210.36,491.93" fill="none" id="GameManager-backto-Entity" style="stroke:#181818;stroke-width:1;"/><polygon fill="none" points="727.16,175.64,720.1125,174.1125,715.992,180.0304,723.0395,181.5579,727.16,175.64" style="stroke:#181818;stroke-width:1;"/><text fill="#000000" font-family="sans-serif" font-size="13" lengthAdjust="spacing" textLength="35.4072" x="508.5" y="338.9951">player</text><text fill="#000000" font-family="sans-serif" font-size="13" lengthAdjust="spacing" textLength="7.23" x="218.2154" y="481.2261">1</text></g><!--reverse link EntityManager to Entity--><g class="link" data-entity-1="EntityManager" data-entity-2="Entity" data-source-line="53" data-uid="lnk31" id="link_EntityManager_Entity"><path codeLine="53" d="M624.5155,383.1732 C594.6755,410.0632 560.82,435.46 516.5,453 C403.82,497.6 363.22,454.24 245.5,483 C235.43,485.46 225.09,488.51 214.86,491.89" fill="none" id="EntityManager-backto-Entity" style="stroke:#181818;stroke-width:1;"/><polygon fill="none" points="633.43,375.14,626.295,376.1851,624.5155,383.1732,631.6505,382.1281,633.43,375.14" style="stroke:#181818;stroke-width:1;"/><text fill="#000000" font-family="sans-serif" font-size="13" lengthAdjust="spacing" textLength="53.479" x="596.5" y="434.4951">manages</text><text fill="#000000" font-family="sans-serif" font-size="13" lengthAdjust="spacing" textLength="19.5127" x="232.6372" y="481.1795">0..*</text></g><!--reverse link Entity to Component--><g class="link" data-entity-1="Entity" data-entity-2="Component" data-source-line="54" data-uid="lnk32" id="link_Entity_Component"><path codeLine="54" d="M198.7865,581.1854 C255.5265,613.7654 323.91,653.04 378.23,684.24" fill="none" id="Entity-backto-Component" style="stroke:#181818;stroke-width:1;"/><polygon fill="none" points="188.38,575.21,191.5914,581.6665,198.7865,581.1854,195.575,574.7289,188.38,575.21" style="stroke:#181818;stroke-width:1;"/><text fill="#000000" font-family="sans-serif" font-size="13" lengthAdjust="spacing" textLength="31.0781" x="280.5" y="628.4951">holds</text><text fill="#000000" font-family="sans-serif" font-size="13" lengthAdjust="spacing" textLength="19.5127" x="350.9597" y="676.59">1..*</text></g><!--link TimeTracker to Tracker--><g class="link" data-entity-1="TimeTracker" data-entity-2="Tracker" data-source-line="65" data-uid="lnk34" id="link_TimeTracker_Tracker"><path codeLine="65" d="M1435.5,453.05 C1435.5,489.1 1435.5,561 1435.5,622 C1435.5,622 1435.5,622 1435.5,883 C1435.5,912.28 1432.2064,926.5912 1419.5664,950.8912" fill="none" id="TimeTracker-to-Tracker" style="stroke:#181818;stroke-width:1;"/><polygon fill="none" points="1411.26,966.86,1424.8894,953.66,1414.2435,948.1224,1411.26,966.86" style="stroke:#181818;stroke-width:1;"/></g><!--link ScoreTracker to Tracker--><g class="link" data-entity-1="ScoreTracker" data-entity-2="Tracker" data-source-line="66" data-uid="lnk35" id="link_ScoreTracker_Tracker"><path codeLine="66" d="M1334.08,906.25 C1340.97,922.99 1343.6729,929.5373 1352.2429,950.3373" fill="none" id="ScoreTracker-to-Tracker" style="stroke:#181818;stroke-width:1;"/><polygon fill="none" points="1359.1,966.98,1357.7905,948.0516,1346.6953,952.623,1359.1,966.98" style="stroke:#181818;stroke-width:1;"/></g><!--link EventManager to ContactListener--><g class="link" data-entity-1="EventManager" data-entity-2="ContactListener" data-source-line="91" data-uid="lnk38" id="link_EventManager_ContactListener"><path codeLine="91" d="M1002.03,375.01 C996.25,384.53 990.68,394.86 986.5,405 C972.15,439.84 966.8024,465.2977 963.0024,491.4077" fill="none" id="EventManager-to-ContactListener" style="stroke:#181818;stroke-width:1;stroke-dasharray:7,7;"/><polygon fill="none" points="960.41,509.22,968.9398,492.2718,957.0649,490.5435,960.41,509.22" style="stroke:#181818;stroke-width:1;"/><text fill="#000000" font-family="sans-serif" font-size="13" lengthAdjust="spacing" textLength="66.4663" x="987.5" y="434.4951">implements</text></g><!--reverse link EventManager to EventTrigger--><g class="link" data-entity-1="EventManager" data-entity-2="EventTrigger" data-source-line="92" data-uid="lnk39" id="link_EventManager_EventTrigger"><path codeLine="92" d="M1055.8924,385.8051 C1071.3424,417.0251 1087.46,449.59 1103.94,482.88" fill="none" id="EventManager-backto-EventTrigger" style="stroke:#181818;stroke-width:1;"/><polygon fill="none" points="1050.57,375.05,1049.6462,382.2017,1055.8924,385.8051,1056.8162,378.6534,1050.57,375.05" style="stroke:#181818;stroke-width:1;"/><text fill="#000000" font-family="sans-serif" font-size="13" lengthAdjust="spacing" textLength="53.479" x="1089.5" y="434.4951">manages</text><text fill="#000000" font-family="sans-serif" font-size="13" lengthAdjust="spacing" textLength="19.5127" x="1080.1898" y="472.1685">0..*</text></g><!--reverse link EventTrigger to GameEvent--><g class="link" data-entity-1="EventTrigger" data-entity-2="GameEvent" data-source-line="93" data-uid="lnk40" id="link_EventTrigger_GameEvent"><path codeLine="93" d="M1106.7892,595.5163 C1098.2792,619.4463 1092.04,636.99 1083.16,661.92" fill="none" id="EventTrigger-backto-GameEvent" style="stroke:#181818;stroke-width:1;"/><polygon fill="none" points="1110.81,584.21,1105.0308,588.5229,1106.7892,595.5163,1112.5684,591.2034,1110.81,584.21" style="stroke:#181818;stroke-width:1;"/><text fill="#000000" font-family="sans-serif" font-size="13" lengthAdjust="spacing" textLength="31.0781" x="1100.5" y="628.4951">holds</text><text fill="#000000" font-family="sans-serif" font-size="13" lengthAdjust="spacing" textLength="7.23" x="1078.244" y="651.2345">1</text></g><!--link GameEvent to EventDialogue--><g class="link" data-entity-1="GameEvent" data-entity-2="EventDialogue" data-source-line="96" data-uid="lnk41" id="link_GameEvent_EventDialogue"><path codeLine="96" d="M1007.86,780.3 C982.62,807.25 958.1812,833.3105 939.1712,853.6105" fill="none" id="GameEvent-to-EventDialogue" style="stroke:#181818;stroke-width:1;stroke-dasharray:7,7;"/><polygon fill="#181818" points="935.07,857.99,944.1415,854.1549,938.4877,854.3404,938.3021,848.6866,935.07,857.99" style="stroke:#181818;stroke-width:1;"/><text fill="#000000" font-family="sans-serif" font-size="13" lengthAdjust="spacing" textLength="27.46" x="980.5" y="824.4951">uses</text></g><!--link GameEvent to ScoreTracker--><g class="link" data-entity-1="GameEvent" data-entity-2="ScoreTracker" data-source-line="97" data-uid="lnk42" id="link_GameEvent_ScoreTracker"><path codeLine="97" d="M1158.2,780.08 C1202.64,807.05 1247.8008,834.457 1281.3308,854.807" fill="none" id="GameEvent-to-ScoreTracker" style="stroke:#181818;stroke-width:1;stroke-dasharray:7,7;"/><polygon fill="#181818" points="1286.46,857.92,1280.8415,849.831,1282.1856,855.3258,1276.6908,856.6699,1286.46,857.92" style="stroke:#181818;stroke-width:1;"/><text fill="#000000" font-family="sans-serif" font-size="13" lengthAdjust="spacing" textLength="27.46" x="1233.5" y="824.4951">uses</text></g><!--link GameEvent to EventCompletionTracker--><g class="link" data-entity-1="GameEvent" data-entity-2="EventCompletionTracker" data-source-line="98" data-uid="lnk43" id="link_GameEvent_EventCompletionTracker"><path codeLine="98" d="M1083.4,780.3 C1093.06,807.25 1101.957,832.0413 1109.227,852.3413" fill="none" id="GameEvent-to-EventCompletionTracker" style="stroke:#181818;stroke-width:1;stroke-dasharray:7,7;"/><polygon fill="#181818" points="1111.25,857.99,1111.9814,848.1683,1109.5642,853.2828,1104.4498,850.8656,1111.25,857.99" style="stroke:#181818;stroke-width:1;"/><text fill="#000000" font-family="sans-serif" font-size="13" lengthAdjust="spacing" textLength="27.46" x="1100.5" y="824.4951">uses</text></g><!--SRC=[hLLDRzim3BtxLn3QeSc66DlL609iNTVBUjc2xQpQQY9CjWn9RX5i-U_JXoLHYTFJJhRu7cdoYQHRGRK6yaigqP6A3uQf9zeo8BToCBGrtxWsR62AL0YybVqe1pOO-5C1l0FDpDrWk3ckmcFjhTFOKSDMuT0f-c9VJrKRFlXfu3qrN0uf5edGPzaTBwqk7oK50ghB653NVxSvlQe8TGwUHpp7uvVlQSyUw43tLWLVy0P6GOzCDH3A3QR3KVDMUo4Ry0zlx-dOm0CT_O5v_Xmiki_7G7Ysb8oZauVtBXKsJ0tSps_PwmkdGkudDhl5eoSOthETekrl5tMN3nxKhLGP_O5EERXJHJ2dTIBUBThj3LStW2I3rLVQqewjWSYNGHEWGe2U7lNHDbQlAqoLcmsG3sHMRmbnGYxPIoKN6LZB9K9IzAftadI9WLLTmWjThtxYKi_hrK8393IYdONOh8KGiLrzst6c6t3Z_35mjdukMyNiaCxJctf_dLhxL0QE4Tl8Z36JQmYxPoPPLZPQdYhR7qMEeQZtTVqMrzLxK9EPErVkINbUBUyWHQTT-VHH6wkOWJdTMRwGxnje9wMioqygt80y2KbDpDFRN8xPEcykRq0x2rrnMaluMcqUY0ARZLqdyHenhqIIm8ltZwyMTN2y1rinVsOUsIc-jqYwP6JRblluL4ISEQbNd2ti5mzxLzfrhotu4rwLtYj6wrvPIlztx_Wqnr7a5CiouwT9iTRjl2U3tIt4BQ_lJFY_YZxmKLTOzVY7AFwChWsvowPtuq1A1zpSIEoonJ60jv47S9VV8FEacGPf3jOd3sELyRhUbfgxGCw9d96Aphp2MTOyi_y1]--></g></svg>