<svg xmlns="http://www.w3.org/2000/svg" xmlns:xlink="http://www.w3.org/1999/xlink" contentStyleType="text/css" data-diagram-type="CLASS" height="595px" preserveAspectRatio="none" style="width:2058px;height:595px;background:#FFFFFF;" version="1.1" viewBox="0 0 2058 595" width="2058px" zoomAndPan="magnify"><defs/><g><!--class GameManager--><g class="entity" data-entity="GameManager" data-source-line="5" data-uid="ent0002" id="entity_GameManager"><rect fill="#F1F1F1" height="100.8281" rx="2.5" ry="2.5" style="stroke:#181818;stroke-width:0.5;" width="131.0547" x="227.5" y="282.5"/><ellipse cx="245.0541" cy="298.5" fill="#ADD1B2" rx="11" ry="11" style="stroke:#181818;stroke-width:1;"/><path d="M247.8197,294.375 Q247.976,294.1563 248.1635,294.0469 Q248.351,293.9375 248.5697,293.9375 Q248.9447,293.9375 249.1791,294.2031 Q249.4135,294.4531 249.4135,295.0625 L249.4135,296.5156 Q249.4135,297.125 249.1791,297.3906 Q248.9447,297.6563 248.5697,297.6563 Q248.226,297.6563 248.0229,297.4531 Q247.8197,297.2656 247.7104,296.75 Q247.6635,296.3906 247.476,296.2031 Q247.1479,295.8281 246.5385,295.6094 Q245.9291,295.3906 245.3041,295.3906 Q244.5385,295.3906 243.8979,295.7188 Q243.2729,296.0469 242.7729,296.7969 Q242.2885,297.5469 242.2885,298.5781 L242.2885,299.6719 Q242.2885,300.9063 243.1791,301.7344 Q244.0697,302.5469 245.6635,302.5469 Q246.601,302.5469 247.2572,302.2969 Q247.6479,302.1406 248.0697,301.7031 Q248.3354,301.4375 248.476,301.3594 Q248.6322,301.2813 248.8354,301.2813 Q249.1635,301.2813 249.4135,301.5469 Q249.6791,301.7969 249.6791,302.1406 Q249.6791,302.4844 249.3354,302.8906 Q248.8354,303.4688 248.0385,303.7969 Q246.9604,304.25 245.6635,304.25 Q244.1479,304.25 242.9447,303.625 Q241.9604,303.125 241.2729,302.0625 Q240.5854,300.9844 240.5854,299.7031 L240.5854,298.5469 Q240.5854,297.2188 241.1947,296.0781 Q241.8197,294.9219 242.9135,294.3125 Q244.0072,293.6875 245.2416,293.6875 Q245.976,293.6875 246.6166,293.8594 Q247.2729,294.0156 247.8197,294.375 Z " fill="#000000"/><text fill="#000000" font-family="sans-serif" font-size="14" lengthAdjust="spacing" textLength="93.3789" x="259.6217" y="304.2285">GameManager</text><line style="stroke:#181818;stroke-width:0.5;" x1="228.5" x2="357.5547" y1="314.5" y2="314.5"/><text fill="#000000" font-family="sans-serif" font-size="14" lengthAdjust="spacing" textLength="108.9238" x="233.5" y="333.0332">currentTime: float</text><line style="stroke:#181818;stroke-width:0.5;" x1="228.5" x2="357.5547" y1="340.1094" y2="340.1094"/><text fill="#000000" font-family="sans-serif" font-size="14" lengthAdjust="spacing" textLength="108.1377" x="233.5" y="358.6426">startGame(): void</text><text fill="#000000" font-family="sans-serif" font-size="14" lengthAdjust="spacing" textLength="119.0547" x="233.5" y="376.252">pauseGame(): void</text></g><!--class GameMenu--><g class="entity" data-entity="GameMenu" data-source-line="12" data-uid="ent0003" id="entity_GameMenu"><rect fill="#F1F1F1" height="100.8281" rx="2.5" ry="2.5" style="stroke:#181818;stroke-width:0.5;" width="139.5928" x="223" y="51"/><ellipse cx="253.5017" cy="67" fill="#ADD1B2" rx="11" ry="11" style="stroke:#181818;stroke-width:1;"/><path d="M256.2673,62.875 Q256.4236,62.6563 256.6111,62.5469 Q256.7986,62.4375 257.0173,62.4375 Q257.3923,62.4375 257.6267,62.7031 Q257.8611,62.9531 257.8611,63.5625 L257.8611,65.0156 Q257.8611,65.625 257.6267,65.8906 Q257.3923,66.1563 257.0173,66.1563 Q256.6736,66.1563 256.4705,65.9531 Q256.2673,65.7656 256.158,65.25 Q256.1111,64.8906 255.9236,64.7031 Q255.5955,64.3281 254.9861,64.1094 Q254.3767,63.8906 253.7517,63.8906 Q252.9861,63.8906 252.3455,64.2188 Q251.7205,64.5469 251.2205,65.2969 Q250.7361,66.0469 250.7361,67.0781 L250.7361,68.1719 Q250.7361,69.4063 251.6267,70.2344 Q252.5173,71.0469 254.1111,71.0469 Q255.0486,71.0469 255.7048,70.7969 Q256.0955,70.6406 256.5173,70.2031 Q256.783,69.9375 256.9236,69.8594 Q257.0798,69.7813 257.283,69.7813 Q257.6111,69.7813 257.8611,70.0469 Q258.1267,70.2969 258.1267,70.6406 Q258.1267,70.9844 257.783,71.3906 Q257.283,71.9688 256.4861,72.2969 Q255.408,72.75 254.1111,72.75 Q252.5955,72.75 251.3923,72.125 Q250.408,71.625 249.7205,70.5625 Q249.033,69.4844 249.033,68.2031 L249.033,67.0469 Q249.033,65.7188 249.6423,64.5781 Q250.2673,63.4219 251.3611,62.8125 Q252.4548,62.1875 253.6892,62.1875 Q254.4236,62.1875 255.0642,62.3594 Q255.7205,62.5156 256.2673,62.875 Z " fill="#000000"/><text fill="#000000" font-family="sans-serif" font-size="14" lengthAdjust="spacing" textLength="73.1445" x="270.9465" y="72.7285">GameMenu</text><line style="stroke:#181818;stroke-width:0.5;" x1="224" x2="361.5928" y1="83" y2="83"/><text fill="#000000" font-family="sans-serif" font-size="14" lengthAdjust="spacing" textLength="91.8408" x="229" y="101.5332">isPaused: bool</text><line style="stroke:#181818;stroke-width:0.5;" x1="224" x2="361.5928" y1="108.6094" y2="108.6094"/><text fill="#000000" font-family="sans-serif" font-size="14" lengthAdjust="spacing" textLength="121.3857" x="229" y="127.1426">displayMenu(): void</text><text fill="#000000" font-family="sans-serif" font-size="14" lengthAdjust="spacing" textLength="127.5928" x="229" y="144.752">resumeGame(): void</text></g><!--class TrackerComponent--><g class="entity" data-entity="TrackerComponent" data-source-line="19" data-uid="ent0004" id="entity_TrackerComponent"><rect fill="#F1F1F1" height="118.4375" rx="2.5" ry="2.5" style="stroke:#181818;stroke-width:0.5;" width="189.4199" x="393.5" y="274"/><ellipse cx="425.4167" cy="290" fill="#ADD1B2" rx="11" ry="11" style="stroke:#181818;stroke-width:1;"/><path d="M428.1824,285.875 Q428.3386,285.6563 428.5261,285.5469 Q428.7136,285.4375 428.9324,285.4375 Q429.3074,285.4375 429.5417,285.7031 Q429.7761,285.9531 429.7761,286.5625 L429.7761,288.0156 Q429.7761,288.625 429.5417,288.8906 Q429.3074,289.1563 428.9324,289.1563 Q428.5886,289.1563 428.3855,288.9531 Q428.1824,288.7656 428.073,288.25 Q428.0261,287.8906 427.8386,287.7031 Q427.5105,287.3281 426.9011,287.1094 Q426.2917,286.8906 425.6667,286.8906 Q424.9011,286.8906 424.2605,287.2188 Q423.6355,287.5469 423.1355,288.2969 Q422.6511,289.0469 422.6511,290.0781 L422.6511,291.1719 Q422.6511,292.4063 423.5417,293.2344 Q424.4324,294.0469 426.0261,294.0469 Q426.9636,294.0469 427.6199,293.7969 Q428.0105,293.6406 428.4324,293.2031 Q428.698,292.9375 428.8386,292.8594 Q428.9949,292.7813 429.198,292.7813 Q429.5261,292.7813 429.7761,293.0469 Q430.0417,293.2969 430.0417,293.6406 Q430.0417,293.9844 429.698,294.3906 Q429.198,294.9688 428.4011,295.2969 Q427.323,295.75 426.0261,295.75 Q424.5105,295.75 423.3074,295.125 Q422.323,294.625 421.6355,293.5625 Q420.948,292.4844 420.948,291.2031 L420.948,290.0469 Q420.948,288.7188 421.5574,287.5781 Q422.1824,286.4219 423.2761,285.8125 Q424.3699,285.1875 425.6042,285.1875 Q426.3386,285.1875 426.9792,285.3594 Q427.6355,285.5156 428.1824,285.875 Z " fill="#000000"/><text fill="#000000" font-family="sans-serif" font-size="14" lengthAdjust="spacing" textLength="119.8271" x="443.176" y="295.7285">TrackerComponent</text><line style="stroke:#181818;stroke-width:0.5;" x1="394.5" x2="581.9199" y1="306" y2="306"/><line style="stroke:#181818;stroke-width:0.5;" x1="394.5" x2="581.9199" y1="314" y2="314"/><text fill="#000000" font-family="sans-serif" font-size="14" lengthAdjust="spacing" textLength="172.7441" x="399.5" y="332.5332">increment(count: float): void</text><text fill="#000000" font-family="sans-serif" font-size="14" lengthAdjust="spacing" textLength="177.4199" x="399.5" y="350.1426">decrement(count: float): void</text><text fill="#000000" font-family="sans-serif" font-size="14" lengthAdjust="spacing" textLength="63.0273" x="399.5" y="367.752">get(): float</text><text fill="#000000" font-family="sans-serif" font-size="14" lengthAdjust="spacing" textLength="129.1719" x="399.5" y="385.3613">set(value: float): void</text></g><!--class TimeComponent--><g class="entity" data-entity="TimeComponent" data-source-line="26" data-uid="ent0005" id="entity_TimeComponent"><rect fill="#F1F1F1" height="65.6094" rx="2.5" ry="2.5" style="stroke:#181818;stroke-width:0.5;" width="139.6133" x="242" y="496"/><ellipse cx="258.8558" cy="512" fill="#ADD1B2" rx="11" ry="11" style="stroke:#181818;stroke-width:1;"/><path d="M261.6214,507.875 Q261.7777,507.6563 261.9652,507.5469 Q262.1527,507.4375 262.3714,507.4375 Q262.7464,507.4375 262.9808,507.7031 Q263.2152,507.9531 263.2152,508.5625 L263.2152,510.0156 Q263.2152,510.625 262.9808,510.8906 Q262.7464,511.1563 262.3714,511.1563 Q262.0277,511.1563 261.8246,510.9531 Q261.6214,510.7656 261.5121,510.25 Q261.4652,509.8906 261.2777,509.7031 Q260.9496,509.3281 260.3402,509.1094 Q259.7308,508.8906 259.1058,508.8906 Q258.3402,508.8906 257.6996,509.2188 Q257.0746,509.5469 256.5746,510.2969 Q256.0902,511.0469 256.0902,512.0781 L256.0902,513.1719 Q256.0902,514.4063 256.9808,515.2344 Q257.8714,516.0469 259.4652,516.0469 Q260.4027,516.0469 261.0589,515.7969 Q261.4496,515.6406 261.8714,515.2031 Q262.1371,514.9375 262.2777,514.8594 Q262.4339,514.7813 262.6371,514.7813 Q262.9652,514.7813 263.2152,515.0469 Q263.4808,515.2969 263.4808,515.6406 Q263.4808,515.9844 263.1371,516.3906 Q262.6371,516.9688 261.8402,517.2969 Q260.7621,517.75 259.4652,517.75 Q257.9496,517.75 256.7464,517.125 Q255.7621,516.625 255.0746,515.5625 Q254.3871,514.4844 254.3871,513.2031 L254.3871,512.0469 Q254.3871,510.7188 254.9964,509.5781 Q255.6214,508.4219 256.7152,507.8125 Q257.8089,507.1875 259.0433,507.1875 Q259.7777,507.1875 260.4183,507.3594 Q261.0746,507.5156 261.6214,507.875 Z " fill="#000000"/><text fill="#000000" font-family="sans-serif" font-size="14" lengthAdjust="spacing" textLength="103.4893" x="273.2682" y="517.7285">TimeComponent</text><line style="stroke:#181818;stroke-width:0.5;" x1="243" x2="380.6133" y1="528" y2="528"/><text fill="#000000" font-family="sans-serif" font-size="14" lengthAdjust="spacing" textLength="127.6133" x="248" y="546.5332">timeRemaining: float</text><line style="stroke:#181818;stroke-width:0.5;" x1="243" x2="380.6133" y1="553.6094" y2="553.6094"/></g><!--class ScoreComponent--><g class="entity" data-entity="ScoreComponent" data-source-line="30" data-uid="ent0006" id="entity_ScoreComponent"><rect fill="#F1F1F1" height="65.6094" rx="2.5" ry="2.5" style="stroke:#181818;stroke-width:0.5;" width="140.9512" x="417.5" y="496"/><ellipse cx="432.5" cy="512" fill="#ADD1B2" rx="11" ry="11" style="stroke:#181818;stroke-width:1;"/><path d="M435.2656,507.875 Q435.4219,507.6563 435.6094,507.5469 Q435.7969,507.4375 436.0156,507.4375 Q436.3906,507.4375 436.625,507.7031 Q436.8594,507.9531 436.8594,508.5625 L436.8594,510.0156 Q436.8594,510.625 436.625,510.8906 Q436.3906,511.1563 436.0156,511.1563 Q435.6719,511.1563 435.4688,510.9531 Q435.2656,510.7656 435.1563,510.25 Q435.1094,509.8906 434.9219,509.7031 Q434.5938,509.3281 433.9844,509.1094 Q433.375,508.8906 432.75,508.8906 Q431.9844,508.8906 431.3438,509.2188 Q430.7188,509.5469 430.2188,510.2969 Q429.7344,511.0469 429.7344,512.0781 L429.7344,513.1719 Q429.7344,514.4063 430.625,515.2344 Q431.5156,516.0469 433.1094,516.0469 Q434.0469,516.0469 434.7031,515.7969 Q435.0938,515.6406 435.5156,515.2031 Q435.7813,514.9375 435.9219,514.8594 Q436.0781,514.7813 436.2813,514.7813 Q436.6094,514.7813 436.8594,515.0469 Q437.125,515.2969 437.125,515.6406 Q437.125,515.9844 436.7813,516.3906 Q436.2813,516.9688 435.4844,517.2969 Q434.4063,517.75 433.1094,517.75 Q431.5938,517.75 430.3906,517.125 Q429.4063,516.625 428.7188,515.5625 Q428.0313,514.4844 428.0313,513.2031 L428.0313,512.0469 Q428.0313,510.7188 428.6406,509.5781 Q429.2656,508.4219 430.3594,507.8125 Q431.4531,507.1875 432.6875,507.1875 Q433.4219,507.1875 434.0625,507.3594 Q434.7188,507.5156 435.2656,507.875 Z " fill="#000000"/><text fill="#000000" font-family="sans-serif" font-size="14" lengthAdjust="spacing" textLength="108.9512" x="446.5" y="517.7285">ScoreComponent</text><line style="stroke:#181818;stroke-width:0.5;" x1="418.5" x2="557.4512" y1="528" y2="528"/><text fill="#000000" font-family="sans-serif" font-size="14" lengthAdjust="spacing" textLength="114.3857" x="423.5" y="546.5332">currentScore: float</text><line style="stroke:#181818;stroke-width:0.5;" x1="418.5" x2="557.4512" y1="553.6094" y2="553.6094"/></g><!--class Entity--><g class="entity" data-entity="Entity" data-source-line="34" data-uid="ent0007" id="entity_Entity"><rect fill="#F1F1F1" height="100.8281" rx="2.5" ry="2.5" style="stroke:#181818;stroke-width:0.5;" width="190.2197" x="734" y="51"/><ellipse cx="807.353" cy="67" fill="#ADD1B2" rx="11" ry="11" style="stroke:#181818;stroke-width:1;"/><path d="M810.1187,62.875 Q810.2749,62.6563 810.4624,62.5469 Q810.6499,62.4375 810.8687,62.4375 Q811.2437,62.4375 811.478,62.7031 Q811.7124,62.9531 811.7124,63.5625 L811.7124,65.0156 Q811.7124,65.625 811.478,65.8906 Q811.2437,66.1563 810.8687,66.1563 Q810.5249,66.1563 810.3218,65.9531 Q810.1187,65.7656 810.0093,65.25 Q809.9624,64.8906 809.7749,64.7031 Q809.4468,64.3281 808.8374,64.1094 Q808.228,63.8906 807.603,63.8906 Q806.8374,63.8906 806.1968,64.2188 Q805.5718,64.5469 805.0718,65.2969 Q804.5874,66.0469 804.5874,67.0781 L804.5874,68.1719 Q804.5874,69.4063 805.478,70.2344 Q806.3687,71.0469 807.9624,71.0469 Q808.8999,71.0469 809.5562,70.7969 Q809.9468,70.6406 810.3687,70.2031 Q810.6343,69.9375 810.7749,69.8594 Q810.9312,69.7813 811.1343,69.7813 Q811.4624,69.7813 811.7124,70.0469 Q811.978,70.2969 811.978,70.6406 Q811.978,70.9844 811.6343,71.3906 Q811.1343,71.9688 810.3374,72.2969 Q809.2593,72.75 807.9624,72.75 Q806.4468,72.75 805.2437,72.125 Q804.2593,71.625 803.5718,70.5625 Q802.8843,69.4844 802.8843,68.2031 L802.8843,67.0469 Q802.8843,65.7188 803.4937,64.5781 Q804.1187,63.4219 805.2124,62.8125 Q806.3062,62.1875 807.5405,62.1875 Q808.2749,62.1875 808.9155,62.3594 Q809.5718,62.5156 810.1187,62.875 Z " fill="#000000"/><text fill="#000000" font-family="sans-serif" font-size="14" lengthAdjust="spacing" textLength="35.0137" x="827.853" y="72.7285">Entity</text><line style="stroke:#181818;stroke-width:0.5;" x1="735" x2="923.2197" y1="83" y2="83"/><text fill="#000000" font-family="sans-serif" font-size="14" lengthAdjust="spacing" textLength="99.5928" x="740" y="101.5332">inventory: Item[]</text><text fill="#000000" font-family="sans-serif" font-size="14" lengthAdjust="spacing" textLength="178.2197" x="740" y="119.1426">position: PositionComponent</text><line style="stroke:#181818;stroke-width:0.5;" x1="735" x2="923.2197" y1="126.2188" y2="126.2188"/><text fill="#000000" font-family="sans-serif" font-size="14" lengthAdjust="spacing" textLength="178.1787" x="740" y="144.752">move(direction: Vector): void</text></g><!--class Player--><g class="entity" data-entity="Player" data-source-line="41" data-uid="ent0008" id="entity_Player"><rect fill="#F1F1F1" height="100.8281" rx="2.5" ry="2.5" style="stroke:#181818;stroke-width:0.5;" width="213.5098" x="916" y="282.5"/><ellipse cx="998.6636" cy="298.5" fill="#ADD1B2" rx="11" ry="11" style="stroke:#181818;stroke-width:1;"/><path d="M1001.4292,294.375 Q1001.5854,294.1563 1001.7729,294.0469 Q1001.9604,293.9375 1002.1792,293.9375 Q1002.5542,293.9375 1002.7886,294.2031 Q1003.0229,294.4531 1003.0229,295.0625 L1003.0229,296.5156 Q1003.0229,297.125 1002.7886,297.3906 Q1002.5542,297.6563 1002.1792,297.6563 Q1001.8354,297.6563 1001.6323,297.4531 Q1001.4292,297.2656 1001.3198,296.75 Q1001.2729,296.3906 1001.0854,296.2031 Q1000.7573,295.8281 1000.1479,295.6094 Q999.5386,295.3906 998.9136,295.3906 Q998.1479,295.3906 997.5073,295.7188 Q996.8823,296.0469 996.3823,296.7969 Q995.8979,297.5469 995.8979,298.5781 L995.8979,299.6719 Q995.8979,300.9063 996.7886,301.7344 Q997.6792,302.5469 999.2729,302.5469 Q1000.2104,302.5469 1000.8667,302.2969 Q1001.2573,302.1406 1001.6792,301.7031 Q1001.9448,301.4375 1002.0854,301.3594 Q1002.2417,301.2813 1002.4448,301.2813 Q1002.7729,301.2813 1003.0229,301.5469 Q1003.2886,301.7969 1003.2886,302.1406 Q1003.2886,302.4844 1002.9448,302.8906 Q1002.4448,303.4688 1001.6479,303.7969 Q1000.5698,304.25 999.2729,304.25 Q997.7573,304.25 996.5542,303.625 Q995.5698,303.125 994.8823,302.0625 Q994.1948,300.9844 994.1948,299.7031 L994.1948,298.5469 Q994.1948,297.2188 994.8042,296.0781 Q995.4292,294.9219 996.5229,294.3125 Q997.6167,293.6875 998.8511,293.6875 Q999.5854,293.6875 1000.2261,293.8594 Q1000.8823,294.0156 1001.4292,294.375 Z " fill="#000000"/><text fill="#000000" font-family="sans-serif" font-size="14" lengthAdjust="spacing" textLength="39.6826" x="1019.1636" y="304.2285">Player</text><line style="stroke:#181818;stroke-width:0.5;" x1="917" x2="1128.5098" y1="314.5" y2="314.5"/><text fill="#000000" font-family="sans-serif" font-size="14" lengthAdjust="spacing" textLength="167.3232" x="922" y="333.0332">energy: EnergyComponent</text><text fill="#000000" font-family="sans-serif" font-size="14" lengthAdjust="spacing" textLength="126.0547" x="922" y="350.6426">timetable: Timetable</text><line style="stroke:#181818;stroke-width:0.5;" x1="917" x2="1128.5098" y1="357.7188" y2="357.7188"/><text fill="#000000" font-family="sans-serif" font-size="14" lengthAdjust="spacing" textLength="201.5098" x="922" y="376.252">completedTask(task: Task): void</text></g><!--class EnergyComponent--><g class="entity" data-entity="EnergyComponent" data-source-line="48" data-uid="ent0009" id="entity_EnergyComponent"><rect fill="#F1F1F1" height="65.6094" rx="2.5" ry="2.5" style="stroke:#181818;stroke-width:0.5;" width="148.7373" x="679.5" y="496"/><ellipse cx="694.5" cy="512" fill="#ADD1B2" rx="11" ry="11" style="stroke:#181818;stroke-width:1;"/><path d="M697.2656,507.875 Q697.4219,507.6563 697.6094,507.5469 Q697.7969,507.4375 698.0156,507.4375 Q698.3906,507.4375 698.625,507.7031 Q698.8594,507.9531 698.8594,508.5625 L698.8594,510.0156 Q698.8594,510.625 698.625,510.8906 Q698.3906,511.1563 698.0156,511.1563 Q697.6719,511.1563 697.4688,510.9531 Q697.2656,510.7656 697.1563,510.25 Q697.1094,509.8906 696.9219,509.7031 Q696.5938,509.3281 695.9844,509.1094 Q695.375,508.8906 694.75,508.8906 Q693.9844,508.8906 693.3438,509.2188 Q692.7188,509.5469 692.2188,510.2969 Q691.7344,511.0469 691.7344,512.0781 L691.7344,513.1719 Q691.7344,514.4063 692.625,515.2344 Q693.5156,516.0469 695.1094,516.0469 Q696.0469,516.0469 696.7031,515.7969 Q697.0938,515.6406 697.5156,515.2031 Q697.7813,514.9375 697.9219,514.8594 Q698.0781,514.7813 698.2813,514.7813 Q698.6094,514.7813 698.8594,515.0469 Q699.125,515.2969 699.125,515.6406 Q699.125,515.9844 698.7813,516.3906 Q698.2813,516.9688 697.4844,517.2969 Q696.4063,517.75 695.1094,517.75 Q693.5938,517.75 692.3906,517.125 Q691.4063,516.625 690.7188,515.5625 Q690.0313,514.4844 690.0313,513.2031 L690.0313,512.0469 Q690.0313,510.7188 690.6406,509.5781 Q691.2656,508.4219 692.3594,507.8125 Q693.4531,507.1875 694.6875,507.1875 Q695.4219,507.1875 696.0625,507.3594 Q696.7188,507.5156 697.2656,507.875 Z " fill="#000000"/><text fill="#000000" font-family="sans-serif" font-size="14" lengthAdjust="spacing" textLength="116.7373" x="708.5" y="517.7285">EnergyComponent</text><line style="stroke:#181818;stroke-width:0.5;" x1="680.5" x2="827.2373" y1="528" y2="528"/><text fill="#000000" font-family="sans-serif" font-size="14" lengthAdjust="spacing" textLength="126.0615" x="685.5" y="546.5332">currentEnergy: float;</text><line style="stroke:#181818;stroke-width:0.5;" x1="680.5" x2="827.2373" y1="553.6094" y2="553.6094"/></g><!--class PositionComponent--><g class="entity" data-entity="PositionComponent" data-source-line="52" data-uid="ent0010" id="entity_PositionComponent"><rect fill="#F1F1F1" height="100.8281" rx="2.5" ry="2.5" style="stroke:#181818;stroke-width:0.5;" width="263.3506" x="617.5" y="282.5"/><ellipse cx="683.8325" cy="298.5" fill="#ADD1B2" rx="11" ry="11" style="stroke:#181818;stroke-width:1;"/><path d="M686.5981,294.375 Q686.7544,294.1563 686.9419,294.0469 Q687.1294,293.9375 687.3481,293.9375 Q687.7231,293.9375 687.9575,294.2031 Q688.1919,294.4531 688.1919,295.0625 L688.1919,296.5156 Q688.1919,297.125 687.9575,297.3906 Q687.7231,297.6563 687.3481,297.6563 Q687.0044,297.6563 686.8013,297.4531 Q686.5981,297.2656 686.4888,296.75 Q686.4419,296.3906 686.2544,296.2031 Q685.9263,295.8281 685.3169,295.6094 Q684.7075,295.3906 684.0825,295.3906 Q683.3169,295.3906 682.6763,295.7188 Q682.0513,296.0469 681.5513,296.7969 Q681.0669,297.5469 681.0669,298.5781 L681.0669,299.6719 Q681.0669,300.9063 681.9575,301.7344 Q682.8481,302.5469 684.4419,302.5469 Q685.3794,302.5469 686.0356,302.2969 Q686.4263,302.1406 686.8481,301.7031 Q687.1138,301.4375 687.2544,301.3594 Q687.4106,301.2813 687.6138,301.2813 Q687.9419,301.2813 688.1919,301.5469 Q688.4575,301.7969 688.4575,302.1406 Q688.4575,302.4844 688.1138,302.8906 Q687.6138,303.4688 686.8169,303.7969 Q685.7388,304.25 684.4419,304.25 Q682.9263,304.25 681.7231,303.625 Q680.7388,303.125 680.0513,302.0625 Q679.3638,300.9844 679.3638,299.7031 L679.3638,298.5469 Q679.3638,297.2188 679.9731,296.0781 Q680.5981,294.9219 681.6919,294.3125 Q682.7856,293.6875 684.02,293.6875 Q684.7544,293.6875 685.395,293.8594 Q686.0513,294.0156 686.5981,294.375 Z " fill="#000000"/><text fill="#000000" font-family="sans-serif" font-size="14" lengthAdjust="spacing" textLength="122.1855" x="704.3325" y="304.2285">PositionComponent</text><line style="stroke:#181818;stroke-width:0.5;" x1="618.5" x2="879.8506" y1="314.5" y2="314.5"/><text fill="#000000" font-family="sans-serif" font-size="14" lengthAdjust="spacing" textLength="70.041" x="623.5" y="333.0332">posX: float;</text><text fill="#000000" font-family="sans-serif" font-size="14" lengthAdjust="spacing" textLength="70.041" x="623.5" y="350.6426">posY: float;</text><line style="stroke:#181818;stroke-width:0.5;" x1="618.5" x2="879.8506" y1="357.7188" y2="357.7188"/><text fill="#000000" font-family="sans-serif" font-size="14" lengthAdjust="spacing" textLength="251.3506" x="623.5" y="376.252">setPosition(posX: float, posY: float): void</text></g><!--class Map--><g class="entity" data-entity="Map" data-source-line="59" data-uid="ent0011" id="entity_Map"><rect fill="#F1F1F1" height="83.2188" rx="2.5" ry="2.5" style="stroke:#181818;stroke-width:0.5;" width="199.5166" x="7" y="487.5"/><ellipse cx="88.8911" cy="503.5" fill="#ADD1B2" rx="11" ry="11" style="stroke:#181818;stroke-width:1;"/><path d="M91.6567,499.375 Q91.813,499.1563 92.0005,499.0469 Q92.188,498.9375 92.4067,498.9375 Q92.7817,498.9375 93.0161,499.2031 Q93.2505,499.4531 93.2505,500.0625 L93.2505,501.5156 Q93.2505,502.125 93.0161,502.3906 Q92.7817,502.6563 92.4067,502.6563 Q92.063,502.6563 91.8599,502.4531 Q91.6567,502.2656 91.5474,501.75 Q91.5005,501.3906 91.313,501.2031 Q90.9849,500.8281 90.3755,500.6094 Q89.7661,500.3906 89.1411,500.3906 Q88.3755,500.3906 87.7349,500.7188 Q87.1099,501.0469 86.6099,501.7969 Q86.1255,502.5469 86.1255,503.5781 L86.1255,504.6719 Q86.1255,505.9063 87.0161,506.7344 Q87.9067,507.5469 89.5005,507.5469 Q90.438,507.5469 91.0942,507.2969 Q91.4849,507.1406 91.9067,506.7031 Q92.1724,506.4375 92.313,506.3594 Q92.4692,506.2813 92.6724,506.2813 Q93.0005,506.2813 93.2505,506.5469 Q93.5161,506.7969 93.5161,507.1406 Q93.5161,507.4844 93.1724,507.8906 Q92.6724,508.4688 91.8755,508.7969 Q90.7974,509.25 89.5005,509.25 Q87.9849,509.25 86.7817,508.625 Q85.7974,508.125 85.1099,507.0625 Q84.4224,505.9844 84.4224,504.7031 L84.4224,503.5469 Q84.4224,502.2188 85.0317,501.0781 Q85.6567,499.9219 86.7505,499.3125 Q87.8442,498.6875 89.0786,498.6875 Q89.813,498.6875 90.4536,498.8594 Q91.1099,499.0156 91.6567,499.375 Z " fill="#000000"/><text fill="#000000" font-family="sans-serif" font-size="14" lengthAdjust="spacing" textLength="27.2344" x="109.3911" y="509.2285">Map</text><line style="stroke:#181818;stroke-width:0.5;" x1="8" x2="205.5166" y1="519.5" y2="519.5"/><text fill="#000000" font-family="sans-serif" font-size="14" lengthAdjust="spacing" textLength="85.5859" x="13" y="538.0332">tileData: Tile[]</text><line style="stroke:#181818;stroke-width:0.5;" x1="8" x2="205.5166" y1="545.1094" y2="545.1094"/><text fill="#000000" font-family="sans-serif" font-size="14" lengthAdjust="spacing" textLength="187.5166" x="13" y="563.6426">checkCollision(p: Player): void</text></g><!--class TimeTable--><g class="entity" data-entity="TimeTable" data-source-line="65" data-uid="ent0012" id="entity_TimeTable"><rect fill="#F1F1F1" height="118.4375" rx="2.5" ry="2.5" style="stroke:#181818;stroke-width:0.5;" width="147.3926" x="949.5" y="470"/><ellipse cx="986.6678" cy="486" fill="#ADD1B2" rx="11" ry="11" style="stroke:#181818;stroke-width:1;"/><path d="M989.4334,481.875 Q989.5896,481.6563 989.7771,481.5469 Q989.9646,481.4375 990.1834,481.4375 Q990.5584,481.4375 990.7928,481.7031 Q991.0271,481.9531 991.0271,482.5625 L991.0271,484.0156 Q991.0271,484.625 990.7928,484.8906 Q990.5584,485.1563 990.1834,485.1563 Q989.8396,485.1563 989.6365,484.9531 Q989.4334,484.7656 989.324,484.25 Q989.2771,483.8906 989.0896,483.7031 Q988.7615,483.3281 988.1521,483.1094 Q987.5428,482.8906 986.9178,482.8906 Q986.1521,482.8906 985.5115,483.2188 Q984.8865,483.5469 984.3865,484.2969 Q983.9021,485.0469 983.9021,486.0781 L983.9021,487.1719 Q983.9021,488.4063 984.7928,489.2344 Q985.6834,490.0469 987.2771,490.0469 Q988.2146,490.0469 988.8709,489.7969 Q989.2615,489.6406 989.6834,489.2031 Q989.949,488.9375 990.0896,488.8594 Q990.2459,488.7813 990.449,488.7813 Q990.7771,488.7813 991.0271,489.0469 Q991.2928,489.2969 991.2928,489.6406 Q991.2928,489.9844 990.949,490.3906 Q990.449,490.9688 989.6521,491.2969 Q988.574,491.75 987.2771,491.75 Q985.7615,491.75 984.5584,491.125 Q983.574,490.625 982.8865,489.5625 Q982.199,488.4844 982.199,487.2031 L982.199,486.0469 Q982.199,484.7188 982.8084,483.5781 Q983.4334,482.4219 984.5271,481.8125 Q985.6209,481.1875 986.8553,481.1875 Q987.5896,481.1875 988.2303,481.3594 Q988.8865,481.5156 989.4334,481.875 Z " fill="#000000"/><text fill="#000000" font-family="sans-serif" font-size="14" lengthAdjust="spacing" textLength="66.1309" x="1005.5939" y="491.7285">TimeTable</text><line style="stroke:#181818;stroke-width:0.5;" x1="950.5" x2="1095.8926" y1="502" y2="502"/><text fill="#000000" font-family="sans-serif" font-size="14" lengthAdjust="spacing" textLength="78.5723" x="955.5" y="520.5332">tasks: Task[]</text><text fill="#000000" font-family="sans-serif" font-size="14" lengthAdjust="spacing" textLength="130.7236" x="955.5" y="538.1426">currentTaskIndex: int</text><line style="stroke:#181818;stroke-width:0.5;" x1="950.5" x2="1095.8926" y1="545.2188" y2="545.2188"/><text fill="#000000" font-family="sans-serif" font-size="14" lengthAdjust="spacing" textLength="97.2412" x="955.5" y="563.752">getTask(): Task</text><text fill="#000000" font-family="sans-serif" font-size="14" lengthAdjust="spacing" textLength="135.3926" x="955.5" y="581.3613">generateTasks(): void</text></g><!--class Task--><g class="entity" data-entity="Task" data-source-line="73" data-uid="ent0013" id="entity_Task"><rect fill="#F1F1F1" height="188.875" rx="2.5" ry="2.5" style="stroke:#181818;stroke-width:0.5;" width="215.0752" x="1454.5" y="7"/><ellipse cx="1542.6187" cy="23" fill="#ADD1B2" rx="11" ry="11" style="stroke:#181818;stroke-width:1;"/><path d="M1545.3843,18.875 Q1545.5405,18.6563 1545.728,18.5469 Q1545.9155,18.4375 1546.1343,18.4375 Q1546.5093,18.4375 1546.7437,18.7031 Q1546.978,18.9531 1546.978,19.5625 L1546.978,21.0156 Q1546.978,21.625 1546.7437,21.8906 Q1546.5093,22.1563 1546.1343,22.1563 Q1545.7905,22.1563 1545.5874,21.9531 Q1545.3843,21.7656 1545.2749,21.25 Q1545.228,20.8906 1545.0405,20.7031 Q1544.7124,20.3281 1544.103,20.1094 Q1543.4937,19.8906 1542.8687,19.8906 Q1542.103,19.8906 1541.4624,20.2188 Q1540.8374,20.5469 1540.3374,21.2969 Q1539.853,22.0469 1539.853,23.0781 L1539.853,24.1719 Q1539.853,25.4063 1540.7437,26.2344 Q1541.6343,27.0469 1543.228,27.0469 Q1544.1655,27.0469 1544.8218,26.7969 Q1545.2124,26.6406 1545.6343,26.2031 Q1545.8999,25.9375 1546.0405,25.8594 Q1546.1968,25.7813 1546.3999,25.7813 Q1546.728,25.7813 1546.978,26.0469 Q1547.2437,26.2969 1547.2437,26.6406 Q1547.2437,26.9844 1546.8999,27.3906 Q1546.3999,27.9688 1545.603,28.2969 Q1544.5249,28.75 1543.228,28.75 Q1541.7124,28.75 1540.5093,28.125 Q1539.5249,27.625 1538.8374,26.5625 Q1538.1499,25.4844 1538.1499,24.2031 L1538.1499,23.0469 Q1538.1499,21.7188 1538.7593,20.5781 Q1539.3843,19.4219 1540.478,18.8125 Q1541.5718,18.1875 1542.8062,18.1875 Q1543.5405,18.1875 1544.1812,18.3594 Q1544.8374,18.5156 1545.3843,18.875 Z " fill="#000000"/><text fill="#000000" font-family="sans-serif" font-size="14" lengthAdjust="spacing" textLength="30.3379" x="1563.1187" y="28.7285">Task</text><line style="stroke:#181818;stroke-width:0.5;" x1="1455.5" x2="1668.5752" y1="39" y2="39"/><text fill="#000000" font-family="sans-serif" font-size="14" lengthAdjust="spacing" textLength="109.7168" x="1460.5" y="57.5332">description: string</text><text fill="#000000" font-family="sans-serif" font-size="14" lengthAdjust="spacing" textLength="104.2754" x="1460.5" y="75.1426">isComplete: bool</text><text fill="#000000" font-family="sans-serif" font-size="14" lengthAdjust="spacing" textLength="136.9443" x="1460.5" y="92.752">timeToComplete: float</text><line style="stroke:#181818;stroke-width:0.5;" x1="1455.5" x2="1668.5752" y1="99.8281" y2="99.8281"/><text fill="#000000" font-family="sans-serif" font-size="14" lengthAdjust="spacing" textLength="99.5928" x="1460.5" y="118.3613">complete(): void</text><text fill="#000000" font-family="sans-serif" font-size="14" lengthAdjust="spacing" textLength="133.8477" x="1460.5" y="135.9707">getCompletion(): bool</text><text fill="#000000" font-family="sans-serif" font-size="14" lengthAdjust="spacing" textLength="140.8271" x="1460.5" y="153.5801">getDescription(): string</text><text fill="#000000" font-family="sans-serif" font-size="14" lengthAdjust="spacing" textLength="164.1719" x="1460.5" y="171.1895">getCompletionTime(): void</text><text fill="#000000" font-family="sans-serif" font-size="14" lengthAdjust="spacing" textLength="203.0752" x="1460.5" y="188.7988">setDescription(desc: string): void</text></g><!--class TheoryTask--><g class="entity" data-entity="TheoryTask" data-source-line="85" data-uid="ent0014" id="entity_TheoryTask"><rect fill="#F1F1F1" height="83.2188" rx="2.5" ry="2.5" style="stroke:#181818;stroke-width:0.5;" width="247.0059" x="1165.5" y="291.5"/><ellipse cx="1247.7979" cy="307.5" fill="#ADD1B2" rx="11" ry="11" style="stroke:#181818;stroke-width:1;"/><path d="M1250.5635,303.375 Q1250.7197,303.1563 1250.9072,303.0469 Q1251.0947,302.9375 1251.3135,302.9375 Q1251.6885,302.9375 1251.9229,303.2031 Q1252.1572,303.4531 1252.1572,304.0625 L1252.1572,305.5156 Q1252.1572,306.125 1251.9229,306.3906 Q1251.6885,306.6563 1251.3135,306.6563 Q1250.9697,306.6563 1250.7666,306.4531 Q1250.5635,306.2656 1250.4541,305.75 Q1250.4072,305.3906 1250.2197,305.2031 Q1249.8916,304.8281 1249.2822,304.6094 Q1248.6729,304.3906 1248.0479,304.3906 Q1247.2822,304.3906 1246.6416,304.7188 Q1246.0166,305.0469 1245.5166,305.7969 Q1245.0322,306.5469 1245.0322,307.5781 L1245.0322,308.6719 Q1245.0322,309.9063 1245.9229,310.7344 Q1246.8135,311.5469 1248.4072,311.5469 Q1249.3447,311.5469 1250.001,311.2969 Q1250.3916,311.1406 1250.8135,310.7031 Q1251.0791,310.4375 1251.2197,310.3594 Q1251.376,310.2813 1251.5791,310.2813 Q1251.9072,310.2813 1252.1572,310.5469 Q1252.4229,310.7969 1252.4229,311.1406 Q1252.4229,311.4844 1252.0791,311.8906 Q1251.5791,312.4688 1250.7822,312.7969 Q1249.7041,313.25 1248.4072,313.25 Q1246.8916,313.25 1245.6885,312.625 Q1244.7041,312.125 1244.0166,311.0625 Q1243.3291,309.9844 1243.3291,308.7031 L1243.3291,307.5469 Q1243.3291,306.2188 1243.9385,305.0781 Q1244.5635,303.9219 1245.6572,303.3125 Q1246.751,302.6875 1247.9854,302.6875 Q1248.7197,302.6875 1249.3604,302.8594 Q1250.0166,303.0156 1250.5635,303.375 Z " fill="#000000"/><text fill="#000000" font-family="sans-serif" font-size="14" lengthAdjust="spacing" textLength="73.9102" x="1268.2979" y="313.2285">TheoryTask</text><line style="stroke:#181818;stroke-width:0.5;" x1="1166.5" x2="1411.5059" y1="323.5" y2="323.5"/><text fill="#000000" font-family="sans-serif" font-size="14" lengthAdjust="spacing" textLength="143.9717" x="1171.5" y="342.0332">requiredSolution: string</text><line style="stroke:#181818;stroke-width:0.5;" x1="1166.5" x2="1411.5059" y1="349.1094" y2="349.1094"/><text fill="#000000" font-family="sans-serif" font-size="14" lengthAdjust="spacing" textLength="235.0059" x="1171.5" y="367.6426">answerQuestion(solution: string): bool</text></g><!--class HCITask--><g class="entity" data-entity="HCITask" data-source-line="91" data-uid="ent0015" id="entity_HCITask"><rect fill="#F1F1F1" height="83.2188" rx="2.5" ry="2.5" style="stroke:#181818;stroke-width:0.5;" width="227.5234" x="1448" y="291.5"/><ellipse cx="1530.2876" cy="307.5" fill="#ADD1B2" rx="11" ry="11" style="stroke:#181818;stroke-width:1;"/><path d="M1533.0532,303.375 Q1533.2095,303.1563 1533.397,303.0469 Q1533.5845,302.9375 1533.8032,302.9375 Q1534.1782,302.9375 1534.4126,303.2031 Q1534.647,303.4531 1534.647,304.0625 L1534.647,305.5156 Q1534.647,306.125 1534.4126,306.3906 Q1534.1782,306.6563 1533.8032,306.6563 Q1533.4595,306.6563 1533.2563,306.4531 Q1533.0532,306.2656 1532.9438,305.75 Q1532.897,305.3906 1532.7095,305.2031 Q1532.3813,304.8281 1531.772,304.6094 Q1531.1626,304.3906 1530.5376,304.3906 Q1529.772,304.3906 1529.1313,304.7188 Q1528.5063,305.0469 1528.0063,305.7969 Q1527.522,306.5469 1527.522,307.5781 L1527.522,308.6719 Q1527.522,309.9063 1528.4126,310.7344 Q1529.3032,311.5469 1530.897,311.5469 Q1531.8345,311.5469 1532.4907,311.2969 Q1532.8813,311.1406 1533.3032,310.7031 Q1533.5688,310.4375 1533.7095,310.3594 Q1533.8657,310.2813 1534.0688,310.2813 Q1534.397,310.2813 1534.647,310.5469 Q1534.9126,310.7969 1534.9126,311.1406 Q1534.9126,311.4844 1534.5688,311.8906 Q1534.0688,312.4688 1533.272,312.7969 Q1532.1938,313.25 1530.897,313.25 Q1529.3813,313.25 1528.1782,312.625 Q1527.1938,312.125 1526.5063,311.0625 Q1525.8188,309.9844 1525.8188,308.7031 L1525.8188,307.5469 Q1525.8188,306.2188 1526.4282,305.0781 Q1527.0532,303.9219 1528.147,303.3125 Q1529.2407,302.6875 1530.4751,302.6875 Q1531.2095,302.6875 1531.8501,302.8594 Q1532.5063,303.0156 1533.0532,303.375 Z " fill="#000000"/><text fill="#000000" font-family="sans-serif" font-size="14" lengthAdjust="spacing" textLength="54.4482" x="1550.7876" y="313.2285">HCITask</text><line style="stroke:#181818;stroke-width:0.5;" x1="1449" x2="1674.5234" y1="323.5" y2="323.5"/><text fill="#000000" font-family="sans-serif" font-size="14" lengthAdjust="spacing" textLength="128.3789" x="1454" y="342.0332">requiredItems: Item[]</text><line style="stroke:#181818;stroke-width:0.5;" x1="1449" x2="1674.5234" y1="349.1094" y2="349.1094"/><text fill="#000000" font-family="sans-serif" font-size="14" lengthAdjust="spacing" textLength="215.5234" x="1454" y="367.6426">checkOrder(inventory: Item[]): bool</text></g><!--class SofTask--><g class="entity" data-entity="SofTask" data-source-line="97" data-uid="ent0016" id="entity_SofTask"><rect fill="#F1F1F1" height="83.2188" rx="2.5" ry="2.5" style="stroke:#181818;stroke-width:0.5;" width="157.5234" x="1711" y="291.5"/><ellipse cx="1759.8359" cy="307.5" fill="#ADD1B2" rx="11" ry="11" style="stroke:#181818;stroke-width:1;"/><path d="M1762.6016,303.375 Q1762.7578,303.1563 1762.9453,303.0469 Q1763.1328,302.9375 1763.3516,302.9375 Q1763.7266,302.9375 1763.9609,303.2031 Q1764.1953,303.4531 1764.1953,304.0625 L1764.1953,305.5156 Q1764.1953,306.125 1763.9609,306.3906 Q1763.7266,306.6563 1763.3516,306.6563 Q1763.0078,306.6563 1762.8047,306.4531 Q1762.6016,306.2656 1762.4922,305.75 Q1762.4453,305.3906 1762.2578,305.2031 Q1761.9297,304.8281 1761.3203,304.6094 Q1760.7109,304.3906 1760.0859,304.3906 Q1759.3203,304.3906 1758.6797,304.7188 Q1758.0547,305.0469 1757.5547,305.7969 Q1757.0703,306.5469 1757.0703,307.5781 L1757.0703,308.6719 Q1757.0703,309.9063 1757.9609,310.7344 Q1758.8516,311.5469 1760.4453,311.5469 Q1761.3828,311.5469 1762.0391,311.2969 Q1762.4297,311.1406 1762.8516,310.7031 Q1763.1172,310.4375 1763.2578,310.3594 Q1763.4141,310.2813 1763.6172,310.2813 Q1763.9453,310.2813 1764.1953,310.5469 Q1764.4609,310.7969 1764.4609,311.1406 Q1764.4609,311.4844 1764.1172,311.8906 Q1763.6172,312.4688 1762.8203,312.7969 Q1761.7422,313.25 1760.4453,313.25 Q1758.9297,313.25 1757.7266,312.625 Q1756.7422,312.125 1756.0547,311.0625 Q1755.3672,309.9844 1755.3672,308.7031 L1755.3672,307.5469 Q1755.3672,306.2188 1755.9766,305.0781 Q1756.6016,303.9219 1757.6953,303.3125 Q1758.7891,302.6875 1760.0234,302.6875 Q1760.7578,302.6875 1761.3984,302.8594 Q1762.0547,303.0156 1762.6016,303.375 Z " fill="#000000"/><text fill="#000000" font-family="sans-serif" font-size="14" lengthAdjust="spacing" textLength="51.3516" x="1780.3359" y="313.2285">SofTask</text><line style="stroke:#181818;stroke-width:0.5;" x1="1712" x2="1867.5234" y1="323.5" y2="323.5"/><text fill="#000000" font-family="sans-serif" font-size="14" lengthAdjust="spacing" textLength="98.0547" x="1717" y="342.0332">assignedPC: int</text><line style="stroke:#181818;stroke-width:0.5;" x1="1712" x2="1867.5234" y1="349.1094" y2="349.1094"/><text fill="#000000" font-family="sans-serif" font-size="14" lengthAdjust="spacing" textLength="145.5234" x="1717" y="367.6426">uploadFile(pc: int): bool</text></g><!--class Event--><g class="entity" data-entity="Event" data-source-line="103" data-uid="ent0017" id="entity_Event"><rect fill="#F1F1F1" height="118.4375" rx="2.5" ry="2.5" style="stroke:#181818;stroke-width:0.5;" width="121.7168" x="1917" y="42.5"/><ellipse cx="1956.2626" cy="58.5" fill="#ADD1B2" rx="11" ry="11" style="stroke:#181818;stroke-width:1;"/><path d="M1959.0283,54.375 Q1959.1845,54.1563 1959.372,54.0469 Q1959.5595,53.9375 1959.7783,53.9375 Q1960.1533,53.9375 1960.3876,54.2031 Q1960.622,54.4531 1960.622,55.0625 L1960.622,56.5156 Q1960.622,57.125 1960.3876,57.3906 Q1960.1533,57.6563 1959.7783,57.6563 Q1959.4345,57.6563 1959.2314,57.4531 Q1959.0283,57.2656 1958.9189,56.75 Q1958.872,56.3906 1958.6845,56.2031 Q1958.3564,55.8281 1957.747,55.6094 Q1957.1376,55.3906 1956.5126,55.3906 Q1955.747,55.3906 1955.1064,55.7188 Q1954.4814,56.0469 1953.9814,56.7969 Q1953.497,57.5469 1953.497,58.5781 L1953.497,59.6719 Q1953.497,60.9063 1954.3876,61.7344 Q1955.2783,62.5469 1956.872,62.5469 Q1957.8095,62.5469 1958.4658,62.2969 Q1958.8564,62.1406 1959.2783,61.7031 Q1959.5439,61.4375 1959.6845,61.3594 Q1959.8408,61.2813 1960.0439,61.2813 Q1960.372,61.2813 1960.622,61.5469 Q1960.8876,61.7969 1960.8876,62.1406 Q1960.8876,62.4844 1960.5439,62.8906 Q1960.0439,63.4688 1959.247,63.7969 Q1958.1689,64.25 1956.872,64.25 Q1955.3564,64.25 1954.1533,63.625 Q1953.1689,63.125 1952.4814,62.0625 Q1951.7939,60.9844 1951.7939,59.7031 L1951.7939,58.5469 Q1951.7939,57.2188 1952.4033,56.0781 Q1953.0283,54.9219 1954.122,54.3125 Q1955.2158,53.6875 1956.4501,53.6875 Q1957.1845,53.6875 1957.8251,53.8594 Q1958.4814,54.0156 1959.0283,54.375 Z " fill="#000000"/><text fill="#000000" font-family="sans-serif" font-size="14" lengthAdjust="spacing" textLength="35.7998" x="1975.6543" y="64.2285">Event</text><line style="stroke:#181818;stroke-width:0.5;" x1="1918" x2="2037.7168" y1="74.5" y2="74.5"/><text fill="#000000" font-family="sans-serif" font-size="14" lengthAdjust="spacing" textLength="109.7168" x="1923" y="93.0332">description: string</text><text fill="#000000" font-family="sans-serif" font-size="14" lengthAdjust="spacing" textLength="77.8135" x="1923" y="110.6426">effect: Effect</text><text fill="#000000" font-family="sans-serif" font-size="14" lengthAdjust="spacing" textLength="88.7236" x="1923" y="128.252">isHidden: bool</text><line style="stroke:#181818;stroke-width:0.5;" x1="1918" x2="2037.7168" y1="135.3281" y2="135.3281"/><text fill="#000000" font-family="sans-serif" font-size="14" lengthAdjust="spacing" textLength="82.4688" x="1923" y="153.8613">trigger(): void</text></g><!--class Effect--><g class="entity" data-entity="Effect" data-source-line="111" data-uid="ent0018" id="entity_Effect"><rect fill="#F1F1F1" height="100.8281" rx="2.5" ry="2.5" style="stroke:#181818;stroke-width:0.5;" width="147.4063" x="1904.5" y="282.5"/><ellipse cx="1956.0566" cy="298.5" fill="#ADD1B2" rx="11" ry="11" style="stroke:#181818;stroke-width:1;"/><path d="M1958.8223,294.375 Q1958.9785,294.1563 1959.166,294.0469 Q1959.3535,293.9375 1959.5723,293.9375 Q1959.9473,293.9375 1960.1816,294.2031 Q1960.416,294.4531 1960.416,295.0625 L1960.416,296.5156 Q1960.416,297.125 1960.1816,297.3906 Q1959.9473,297.6563 1959.5723,297.6563 Q1959.2285,297.6563 1959.0254,297.4531 Q1958.8223,297.2656 1958.7129,296.75 Q1958.666,296.3906 1958.4785,296.2031 Q1958.1504,295.8281 1957.541,295.6094 Q1956.9316,295.3906 1956.3066,295.3906 Q1955.541,295.3906 1954.9004,295.7188 Q1954.2754,296.0469 1953.7754,296.7969 Q1953.291,297.5469 1953.291,298.5781 L1953.291,299.6719 Q1953.291,300.9063 1954.1816,301.7344 Q1955.0723,302.5469 1956.666,302.5469 Q1957.6035,302.5469 1958.2598,302.2969 Q1958.6504,302.1406 1959.0723,301.7031 Q1959.3379,301.4375 1959.4785,301.3594 Q1959.6348,301.2813 1959.8379,301.2813 Q1960.166,301.2813 1960.416,301.5469 Q1960.6816,301.7969 1960.6816,302.1406 Q1960.6816,302.4844 1960.3379,302.8906 Q1959.8379,303.4688 1959.041,303.7969 Q1957.9629,304.25 1956.666,304.25 Q1955.1504,304.25 1953.9473,303.625 Q1952.9629,303.125 1952.2754,302.0625 Q1951.5879,300.9844 1951.5879,299.7031 L1951.5879,298.5469 Q1951.5879,297.2188 1952.1973,296.0781 Q1952.8223,294.9219 1953.916,294.3125 Q1955.0098,293.6875 1956.2441,293.6875 Q1956.9785,293.6875 1957.6191,293.8594 Q1958.2754,294.0156 1958.8223,294.375 Z " fill="#000000"/><text fill="#000000" font-family="sans-serif" font-size="14" lengthAdjust="spacing" textLength="35.793" x="1976.5566" y="304.2285">Effect</text><line style="stroke:#181818;stroke-width:0.5;" x1="1905.5" x2="2050.9063" y1="314.5" y2="314.5"/><text fill="#000000" font-family="sans-serif" font-size="14" lengthAdjust="spacing" textLength="78.5928" x="1910.5" y="333.0332">target: Entity</text><text fill="#000000" font-family="sans-serif" font-size="14" lengthAdjust="spacing" textLength="135.4063" x="1910.5" y="350.6426">energyAdjustment: int</text><line style="stroke:#181818;stroke-width:0.5;" x1="1905.5" x2="2050.9063" y1="357.7188" y2="357.7188"/><text fill="#000000" font-family="sans-serif" font-size="14" lengthAdjust="spacing" textLength="112.0479" x="1910.5" y="376.252">applyEffect(): void</text></g><!--reverse link GameManager to Map--><g class="link" data-entity-1="GameManager" data-entity-2="Map" data-source-line="118" data-uid="lnk19" id="link_GameManager_Map"><path codeLine="118" d="M237.036,392.3728 C206.256,424.4828 175,457.08 146.07,487.25" fill="none" id="GameManager-backto-Map" style="stroke:#181818;stroke-width:1;"/><polygon fill="#181818" points="245.34,383.71,238.3004,385.2734,237.036,392.3728,244.0756,390.8094,245.34,383.71" style="stroke:#181818;stroke-width:1;"/></g><!--reverse link GameManager to TimeComponent--><g class="link" data-entity-1="GameManager" data-entity-2="TimeComponent" data-source-line="119" data-uid="lnk20" id="link_GameManager_TimeComponent"><path codeLine="119" d="M299.0389,395.6529 C302.4889,430.9029 305.85,465.24 308.84,495.77" fill="none" id="GameManager-backto-TimeComponent" style="stroke:#181818;stroke-width:1;"/><polygon fill="#181818" points="297.87,383.71,294.4735,390.0711,299.0389,395.6529,302.4354,389.2918,297.87,383.71" style="stroke:#181818;stroke-width:1;"/></g><!--reverse link GameManager to ScoreComponent--><g class="link" data-entity-1="GameManager" data-entity-2="ScoreComponent" data-source-line="120" data-uid="lnk21" id="link_GameManager_ScoreComponent"><path codeLine="120" d="M351.4681,392.1724 C386.9081,427.4224 424.92,465.24 455.6,495.77" fill="none" id="GameManager-backto-ScoreComponent" style="stroke:#181818;stroke-width:1;"/><polygon fill="#181818" points="342.96,383.71,344.3932,390.7772,351.4681,392.1724,350.0348,385.1052,342.96,383.71" style="stroke:#181818;stroke-width:1;"/></g><!--link GameMenu to GameManager--><g class="link" data-entity-1="GameMenu" data-entity-2="GameManager" data-source-line="122" data-uid="lnk22" id="link_GameMenu_GameManager"><path codeLine="122" d="M293,152.02 C293,190.49 293,237.62 293,276.18" fill="none" id="GameMenu-to-GameManager" style="stroke:#181818;stroke-width:1;"/><polygon fill="#181818" points="293,282.18,297,273.18,293,277.18,289,273.18,293,282.18" style="stroke:#181818;stroke-width:1;"/></g><!--reverse link TrackerComponent to TimeComponent--><g class="link" data-entity-1="TrackerComponent" data-entity-2="TimeComponent" data-source-line="124" data-uid="lnk23" id="link_TrackerComponent_TimeComponent"><path codeLine="124" d="M423.096,405.5417 C392.316,439.4717 366.75,467.65 341.24,495.77" fill="none" id="TrackerComponent-backto-TimeComponent" style="stroke:#181818;stroke-width:1;"/><polygon fill="none" points="435.19,392.21,418.6521,401.5104,427.5399,409.5731,435.19,392.21" style="stroke:#181818;stroke-width:1;"/></g><!--reverse link TrackerComponent to ScoreComponent--><g class="link" data-entity-1="TrackerComponent" data-entity-2="ScoreComponent" data-source-line="125" data-uid="lnk24" id="link_TrackerComponent_ScoreComponent"><path codeLine="125" d="M488,410.21 C488,444.14 488,467.65 488,495.77" fill="none" id="TrackerComponent-backto-ScoreComponent" style="stroke:#181818;stroke-width:1;"/><polygon fill="none" points="488,392.21,482,410.21,494,410.21,488,392.21" style="stroke:#181818;stroke-width:1;"/></g><!--reverse link TrackerComponent to EnergyComponent--><g class="link" data-entity-1="TrackerComponent" data-entity-2="EnergyComponent" data-source-line="126" data-uid="lnk25" id="link_TrackerComponent_EnergyComponent"><path codeLine="126" d="M582.3528,402.817 C628.8728,436.747 671.25,467.65 709.81,495.77" fill="none" id="TrackerComponent-backto-EnergyComponent" style="stroke:#181818;stroke-width:1;"/><polygon fill="none" points="567.81,392.21,578.8171,407.6646,585.8884,397.9694,567.81,392.21" style="stroke:#181818;stroke-width:1;"/></g><!--reverse link Entity to Player--><g class="link" data-entity-1="Entity" data-entity-2="Player" data-source-line="128" data-uid="lnk26" id="link_Entity_Player"><path codeLine="128" d="M882.4804,165.7665 C915.0004,204.2365 948.29,243.62 980.88,282.18" fill="none" id="Entity-backto-Player" style="stroke:#181818;stroke-width:1;"/><polygon fill="none" points="870.86,152.02,877.8982,169.64,887.0626,161.893,870.86,152.02" style="stroke:#181818;stroke-width:1;"/></g><!--link Entity to PositionComponent--><g class="link" data-entity-1="Entity" data-entity-2="PositionComponent" data-source-line="129" data-uid="lnk27" id="link_Entity_PositionComponent"><path codeLine="129" d="M811.74,152.02 C798.33,190.49 779.81,243.62 766.37,282.18" fill="none" id="Entity-PositionComponent" style="stroke:#181818;stroke-width:1;"/><polygon fill="#000000" points="788.3543,239.8972,794.1066,232.3234,788.5563,230.3888,788.3543,239.8972" style="stroke:#000000;stroke-width:1;"/><text fill="#000000" font-family="sans-serif" font-size="13" lengthAdjust="spacing" textLength="7.23" x="799" y="240.4951">1</text></g><!--reverse link Player to EnergyComponent--><g class="link" data-entity-1="Player" data-entity-2="EnergyComponent" data-source-line="132" data-uid="lnk28" id="link_Player_EnergyComponent"><path codeLine="132" d="M944.3469,390.7291 C895.4669,425.9791 841.02,465.24 798.69,495.77" fill="none" id="Player-backto-EnergyComponent" style="stroke:#181818;stroke-width:1;"/><polygon fill="#181818" points="954.08,383.71,946.8738,383.9752,944.3469,390.7291,951.5531,390.4639,954.08,383.71" style="stroke:#181818;stroke-width:1;"/></g><!--link Player to TimeTable--><g class="link" data-entity-1="Player" data-entity-2="TimeTable" data-source-line="133" data-uid="lnk29" id="link_Player_TimeTable"><path codeLine="133" d="M1023,383.71 C1023,409.98 1023,442.37 1023,469.81" fill="none" id="Player-TimeTable" style="stroke:#181818;stroke-width:1;"/><polygon fill="#000000" points="1028,436.1758,1030.9389,427.1307,1025.0611,427.1307,1028,436.1758" style="stroke:#000000;stroke-width:1;"/><text fill="#000000" font-family="sans-serif" font-size="13" lengthAdjust="spacing" textLength="7.23" x="1037" y="436.4951">1</text></g><!--reverse link Task to TheoryTask--><g class="link" data-entity-1="Task" data-entity-2="TheoryTask" data-source-line="135" data-uid="lnk30" id="link_Task_TheoryTask"><path codeLine="135" d="M1440.7197,204.4603 C1400.1297,238.5703 1369.74,264.13 1337.25,291.44" fill="none" id="Task-backto-TheoryTask" style="stroke:#181818;stroke-width:1;"/><polygon fill="none" points="1454.5,192.88,1436.8596,199.8669,1444.5798,209.0538,1454.5,192.88" style="stroke:#181818;stroke-width:1;"/></g><!--reverse link Task to HCITask--><g class="link" data-entity-1="Task" data-entity-2="HCITask" data-source-line="136" data-uid="lnk31" id="link_Task_HCITask"><path codeLine="136" d="M1562,214.18 C1562,247.39 1562,265.05 1562,291.49" fill="none" id="Task-backto-HCITask" style="stroke:#181818;stroke-width:1;"/><polygon fill="none" points="1562,196.18,1556,214.18,1568,214.18,1562,196.18" style="stroke:#181818;stroke-width:1;"/></g><!--reverse link Task to SofTask--><g class="link" data-entity-1="Task" data-entity-2="SofTask" data-source-line="137" data-uid="lnk32" id="link_Task_SofTask"><path codeLine="137" d="M1667.7575,208.9482 C1700.7575,242.1582 1723.49,265.05 1749.76,291.49" fill="none" id="Task-backto-SofTask" style="stroke:#181818;stroke-width:1;"/><polygon fill="none" points="1655.07,196.18,1663.5014,213.1774,1672.0136,204.7191,1655.07,196.18" style="stroke:#181818;stroke-width:1;"/></g><!--link Event to Effect--><g class="link" data-entity-1="Event" data-entity-2="Effect" data-source-line="139" data-uid="lnk33" id="link_Event_Effect"><path codeLine="139" d="M1978,160.71 C1978,198.29 1978,246.66 1978,282.41" fill="none" id="Event-Effect" style="stroke:#181818;stroke-width:1;"/><polygon fill="#000000" points="1983,240.1758,1985.9389,231.1307,1980.0611,231.1307,1983,240.1758" style="stroke:#000000;stroke-width:1;"/><text fill="#000000" font-family="sans-serif" font-size="13" lengthAdjust="spacing" textLength="7.23" x="1992" y="240.4951">1</text></g><!--SRC=[VLLBRzGm43vlVaMEQSKUk0PK2MqNsaF5GYC4gZYuyUpMDB63xIoiWF_EZ1zvUU6InEDlldbFweOPaxzZBTmnoGwWyr_Pgkwr1cahqKAPxnl5RBRALiOoRGbPN9JvKGcUhJhM6vY9_cHPFLA2x8bFc1q1UPa_AjKG5nUcQzY902ER1jEt_w2hDAkVGMzKsoc9lZbQMMjeyL3KgfSsk3hGSVZlzG4icGdX6JmTMTF30ZOwWCcOMRSe-0Wj4rB8G-GPuFUrqdDyIAgxIE1RQOKz-Q2EY5BwLEQt5jg7hvXbPOGLIfRvBdmDn9JBLXsXu493xK6Vy4Ff980TvjkN5oJe0_9ltNl2HI5PzjYWVrNy90irGXgmm2jcdWkB3mJWCx6nO9o4lGqsNTol9buj8o8T3FZp0ANJb_7aIXMrYWdoHJu19fxTiSuNhO5hPXa5s00b5pryWlfvevf664TPXbITRO6ASkAOC7xZqq0qSMJmU2iv_2npuQk3RUQoTk6n9C1KC0jqCcSQ7SN4py7KMdI-fCPgR38Qf4qeHHmbAbcbHkamhR5cnRJX0ux2l8WCABuURP4yMfifKF0ZbvahaRDHBute2R2TOrmQllVOg_nUDVqyk6p5fFa1-aCFnh6Q1IIwF33VR6wNj3GpPXoTKDttceCkaj5A2E_LFXBYKHmayDrcA6NVONBvMsoSegkTD27O7aCBdoqVxFSucpXuxatbl16SWmmiM4qj3hY3qwxm6hxlDDQb31iZ3lCR_gqtbfRTu2thkkRazQPyqrL_kLxJO2IosQvBRkUhBJ3Ifb-lhwP_aYnBblRhtmdxUSp2nddGSdzbOOkwIp_3KKI2PDEK-SlyAikoi1alpr26g-1rvNUZqt9zukCP-diY3AqvaOJUGYzTZv0nNzH0-1S0]--></g></svg>