<svg xmlns="http://www.w3.org/2000/svg" xmlns:xlink="http://www.w3.org/1999/xlink" contentStyleType="text/css" data-diagram-type="DESCRIPTION" height="491px" preserveAspectRatio="none" style="width:641px;height:491px;background:#FFFFFF;" version="1.1" viewBox="0 0 641 491" width="641px" zoomAndPan="magnify"><defs/><g><!--cluster LogicLayer--><g class="cluster" data-entity="LogicLayer" data-source-line="4" data-uid="ent0003" id="cluster_LogicLayer"><path d="M157.41,6 L195.7411,6 A3.75,3.75 0 0 1 198.2411,8.5 L205.2411,29.6094 L310.41,29.6094 A2.5,2.5 0 0 1 312.91,32.1094 L312.91,229.5 A2.5,2.5 0 0 1 310.41,232 L157.41,232 A2.5,2.5 0 0 1 154.91,229.5 L154.91,8.5 A2.5,2.5 0 0 1 157.41,6" fill="none" style="stroke:#000000;stroke-width:1.5;"/><line style="stroke:#000000;stroke-width:1.5;" x1="154.91" x2="205.2411" y1="29.6094" y2="29.6094"/><text fill="#000000" font-family="sans-serif" font-size="14" font-weight="bold" lengthAdjust="spacing" textLength="37.3311" x="158.91" y="22.5332">Logic</text></g><!--entity GameManager--><g class="entity" data-entity="GameManager" data-source-line="5" data-uid="ent0004" id="entity_GameManager"><rect fill="#F1F1F1" height="47.6094" rx="2.5" ry="2.5" style="stroke:#181818;stroke-width:0.5;" width="115.4824" x="179.41" y="42"/><rect fill="#F1F1F1" height="10" style="stroke:#181818;stroke-width:0.5;" width="15" x="274.8924" y="47"/><rect fill="#F1F1F1" height="2" style="stroke:#181818;stroke-width:0.5;" width="4" x="272.8924" y="49"/><rect fill="#F1F1F1" height="2" style="stroke:#181818;stroke-width:0.5;" width="4" x="272.8924" y="53"/><text fill="#000000" font-family="sans-serif" font-size="14" lengthAdjust="spacing" textLength="75.4824" x="194.41" y="76.5332">Game Logic</text></g><!--entity Events--><g class="entity" data-entity="Events" data-source-line="6" data-uid="ent0005" id="entity_Events"><rect fill="#F1F1F1" height="47.6094" rx="2.5" ry="2.5" style="stroke:#181818;stroke-width:0.5;" width="126.3652" x="170.91" y="168"/><rect fill="#F1F1F1" height="10" style="stroke:#181818;stroke-width:0.5;" width="15" x="277.2752" y="173"/><rect fill="#F1F1F1" height="2" style="stroke:#181818;stroke-width:0.5;" width="4" x="275.2752" y="175"/><rect fill="#F1F1F1" height="2" style="stroke:#181818;stroke-width:0.5;" width="4" x="275.2752" y="179"/><text fill="#000000" font-family="sans-serif" font-size="14" lengthAdjust="spacing" textLength="86.3652" x="185.91" y="202.5332">Event System</text></g><!--entity UserInterface--><g class="entity" data-entity="UserInterface" data-source-line="2" data-uid="ent0002" id="entity_UserInterface"><rect fill="#F1F1F1" height="47.6094" rx="2.5" ry="2.5" style="stroke:#181818;stroke-width:0.5;" width="54" x="8.91" y="312"/><rect fill="#F1F1F1" height="10" style="stroke:#181818;stroke-width:0.5;" width="15" x="42.91" y="317"/><rect fill="#F1F1F1" height="2" style="stroke:#181818;stroke-width:0.5;" width="4" x="40.91" y="319"/><rect fill="#F1F1F1" height="2" style="stroke:#181818;stroke-width:0.5;" width="4" x="40.91" y="323"/><text fill="#000000" font-family="sans-serif" font-size="14" lengthAdjust="spacing" textLength="14" x="23.91" y="346.5332">UI</text></g><!--entity Entities--><g class="entity" data-entity="Entities" data-source-line="9" data-uid="ent0006" id="entity_Entities"><rect fill="#F1F1F1" height="47.6094" rx="2.5" ry="2.5" style="stroke:#181818;stroke-width:0.5;" width="160.6201" x="331.41" y="312"/><rect fill="#F1F1F1" height="10" style="stroke:#181818;stroke-width:0.5;" width="15" x="472.0301" y="317"/><rect fill="#F1F1F1" height="2" style="stroke:#181818;stroke-width:0.5;" width="4" x="470.0301" y="319"/><rect fill="#F1F1F1" height="2" style="stroke:#181818;stroke-width:0.5;" width="4" x="470.0301" y="323"/><text fill="#000000" font-family="sans-serif" font-size="14" lengthAdjust="spacing" textLength="120.6201" x="346.41" y="346.5332">Entity Management</text></g><!--entity World--><g class="entity" data-entity="World" data-source-line="12" data-uid="ent0007" id="entity_World"><rect fill="#F1F1F1" height="47.6094" rx="2.5" ry="2.5" style="stroke:#181818;stroke-width:0.5;" width="189.3857" x="289.41" y="438"/><rect fill="#F1F1F1" height="10" style="stroke:#181818;stroke-width:0.5;" width="15" x="458.7957" y="443"/><rect fill="#F1F1F1" height="2" style="stroke:#181818;stroke-width:0.5;" width="4" x="456.7957" y="445"/><rect fill="#F1F1F1" height="2" style="stroke:#181818;stroke-width:0.5;" width="4" x="456.7957" y="449"/><text fill="#000000" font-family="sans-serif" font-size="14" font-style="italic" lengthAdjust="spacing" textLength="149.3857" x="304.41" y="472.5332">LibGDX: Physics &amp; Map</text></g><!--link GameManager to UserInterface--><g class="link" data-entity-1="GameManager" data-entity-2="UserInterface" data-source-line="15" data-uid="lnk8" id="link_GameManager_UserInterface"><path d="M179.38,78.38 C131.33,91.23 65.73,117.33 33.91,168 C6,212.44 18.55,277.52 28.31,311.84" fill="none" id="GameManager-UserInterface" style="stroke:#181818;stroke-width:1;"/><text fill="#000000" font-family="sans-serif" font-size="13" lengthAdjust="spacing" textLength="118.498" x="34.91" y="197.4951">Shows/Hides Menus</text></g><!--link GameManager to Entities--><g class="link" data-entity-1="GameManager" data-entity-2="Entities" data-source-line="16" data-uid="lnk9" id="link_GameManager_Entities"><path d="M264.53,90.01 C274.17,98.81 284.63,109.31 292.91,120 C342.43,183.91 383.84,271.01 402.02,311.95" fill="none" id="GameManager-Entities" style="stroke:#181818;stroke-width:1;"/><text fill="#000000" font-family="sans-serif" font-size="13" lengthAdjust="spacing" textLength="99.7217" x="367.91" y="197.4951">Manages Entities</text></g><!--link GameManager to World--><g class="link" data-entity-1="GameManager" data-entity-2="World" data-source-line="17" data-uid="lnk10" id="link_GameManager_World"><path d="M294.46,76.06 C349.2,87.74 429.84,113.46 475.91,168 C546.11,251.1 585.73,318.49 523.91,408 C512.91,423.93 496.45,435.08 478.65,442.88" fill="none" id="GameManager-World" style="stroke:#181818;stroke-width:1;"/><text fill="#000000" font-family="sans-serif" font-size="13" lengthAdjust="spacing" textLength="48.4199" x="566.6864" y="262.4951">Updates</text><text fill="#000000" font-family="sans-serif" font-size="13" lengthAdjust="spacing" textLength="85.9727" x="547.91" y="278.8467">Physics &amp; Map</text></g><!--link GameManager to Events--><g class="link" data-entity-1="GameManager" data-entity-2="Events" data-source-line="18" data-uid="lnk11" id="link_GameManager_Events"><path d="M236.35,90.03 C235.82,112.17 235.01,145.44 234.47,167.67" fill="none" id="GameManager-Events" style="stroke:#181818;stroke-width:1;"/><text fill="#000000" font-family="sans-serif" font-size="13" lengthAdjust="spacing" textLength="48.4199" x="235.91" y="134.4951">Updates</text></g><!--link Events to World--><g class="link" data-entity-1="Events" data-entity-2="World" data-source-line="20" data-uid="lnk12" id="link_Events_World"><path d="M217.88,216.25 C196.72,250.11 165.18,313.97 192.91,360 C215.85,398.07 258.47,422.54 297.65,437.84" fill="none" id="Events-World" style="stroke:#181818;stroke-width:1;stroke-dasharray:7,7;"/><text fill="#000000" font-family="sans-serif" font-size="13" lengthAdjust="spacing" textLength="119.2153" x="193.91" y="341.4951">Listens for Collisions</text></g><!--link Events to UserInterface--><g class="link" data-entity-1="Events" data-entity-2="UserInterface" data-source-line="21" data-uid="lnk13" id="link_Events_UserInterface"><path d="M193.21,216.1 C175.77,224.98 154.86,234.34 134.91,240 C119.21,244.45 74.45,237.55 61.91,248 C43.26,263.54 37.64,291.87 36.12,311.97" fill="none" id="Events-UserInterface" style="stroke:#181818;stroke-width:1;stroke-dasharray:7,7;"/><text fill="#000000" font-family="sans-serif" font-size="13" lengthAdjust="spacing" textLength="85.9854" x="62.91" y="270.4951">Shows Dialogs</text></g><!--link Events to Entities--><g class="link" data-entity-1="Events" data-entity-2="Entities" data-source-line="22" data-uid="lnk14" id="link_Events_Entities"><path d="M238.21,216.38 C243,236.26 252.62,264.33 270.91,282 C287.55,298.08 309.54,309.38 331.19,317.28" fill="none" id="Events-Entities" style="stroke:#181818;stroke-width:1;stroke-dasharray:7,7;"/><text fill="#000000" font-family="sans-serif" font-size="13" lengthAdjust="spacing" textLength="85.979" x="271.91" y="270.4951">Affects Entities</text></g><!--link Entities to World--><g class="link" data-entity-1="Entities" data-entity-2="World" data-source-line="24" data-uid="lnk15" id="link_Entities_World"><path d="M394.84,360.07 C389.25,368.96 383.75,379.51 380.91,390 C376.68,405.6 377.57,423.83 379.44,437.91" fill="none" id="Entities-World" style="stroke:#181818;stroke-width:1;stroke-dasharray:7,7;"/><text fill="#000000" font-family="sans-serif" font-size="13" lengthAdjust="spacing" textLength="137.2808" x="381.91" y="404.4951">Creates Physics Bodies</text></g><!--SRC=[RP11QyCm38Nl_XKYXztQtaifR6tf2YaKIjWWsy5Bb5GiiOFbReIn_pxRsPgatSr- -gIdfpJPlO9aI1ZDJbaqXSnGY4Pcxx94Y69TKXPv8hnYsQA1Bm6GRcMDdHW6-EzUAjTaV7NpWSh2iMMBTQW7WSMt4Eb6MR8jT7Jjv0xmAY4BHone6TFRTlqyXyEfPSeOxXpVB6Qq3F2JDbNko84hJ2RZ5327w7ZIdpnxf1mPzgZE75st_DbwkfFxLMxWOEl9fCcbHNvHe_LkXuVGWuP8Y5zjEksdnUJEf1WARM2bgugOj79iZ_uV3DOaArsEo66U-wB0p0xpY4jvwByow9UxtFf1vu7-0G00]--></g></svg>