<svg xmlns="http://www.w3.org/2000/svg" xmlns:xlink="http://www.w3.org/1999/xlink" contentStyleType="text/css" data-diagram-type="DESCRIPTION" height="312px" preserveAspectRatio="none" style="width:793px;height:312px;background:#FFFFFF;" version="1.1" viewBox="0 0 793 312" width="793px" zoomAndPan="magnify"><defs/><g><!--entity UserInterface--><g class="entity" data-entity="UserInterface" data-source-line="2" data-uid="ent0002" id="entity_UserInterface"><rect fill="#F1F1F1" height="47.6094" rx="2.5" ry="2.5" style="stroke:#181818;stroke-width:0.5;" width="54" x="83.5" y="133"/><rect fill="#F1F1F1" height="10" style="stroke:#181818;stroke-width:0.5;" width="15" x="117.5" y="138"/><rect fill="#F1F1F1" height="2" style="stroke:#181818;stroke-width:0.5;" width="4" x="115.5" y="140"/><rect fill="#F1F1F1" height="2" style="stroke:#181818;stroke-width:0.5;" width="4" x="115.5" y="144"/><text fill="#000000" font-family="sans-serif" font-size="14" lengthAdjust="spacing" textLength="14" x="98.5" y="167.5332">UI</text></g><!--entity GameManager--><g class="entity" data-entity="GameManager" data-source-line="5" data-uid="ent0003" id="entity_GameManager"><rect fill="#F1F1F1" height="47.6094" rx="2.5" ry="2.5" style="stroke:#181818;stroke-width:0.5;" width="115.4824" x="330" y="7"/><rect fill="#F1F1F1" height="10" style="stroke:#181818;stroke-width:0.5;" width="15" x="425.4824" y="12"/><rect fill="#F1F1F1" height="2" style="stroke:#181818;stroke-width:0.5;" width="4" x="423.4824" y="14"/><rect fill="#F1F1F1" height="2" style="stroke:#181818;stroke-width:0.5;" width="4" x="423.4824" y="18"/><text fill="#000000" font-family="sans-serif" font-size="14" lengthAdjust="spacing" textLength="75.4824" x="345" y="41.5332">Game Logic</text></g><!--entity Entities--><g class="entity" data-entity="Entities" data-source-line="7" data-uid="ent0004" id="entity_Entities"><rect fill="#F1F1F1" height="47.6094" rx="2.5" ry="2.5" style="stroke:#181818;stroke-width:0.5;" width="160.6201" x="326" y="133"/><rect fill="#F1F1F1" height="10" style="stroke:#181818;stroke-width:0.5;" width="15" x="466.6201" y="138"/><rect fill="#F1F1F1" height="2" style="stroke:#181818;stroke-width:0.5;" width="4" x="464.6201" y="140"/><rect fill="#F1F1F1" height="2" style="stroke:#181818;stroke-width:0.5;" width="4" x="464.6201" y="144"/><text fill="#000000" font-family="sans-serif" font-size="14" lengthAdjust="spacing" textLength="120.6201" x="341" y="167.5332">Entity Management</text></g><!--entity World--><g class="entity" data-entity="World" data-source-line="10" data-uid="ent0005" id="entity_World"><rect fill="#F1F1F1" height="47.6094" rx="2.5" ry="2.5" style="stroke:#181818;stroke-width:0.5;" width="189.3857" x="474" y="259"/><rect fill="#F1F1F1" height="10" style="stroke:#181818;stroke-width:0.5;" width="15" x="643.3857" y="264"/><rect fill="#F1F1F1" height="2" style="stroke:#181818;stroke-width:0.5;" width="4" x="641.3857" y="266"/><rect fill="#F1F1F1" height="2" style="stroke:#181818;stroke-width:0.5;" width="4" x="641.3857" y="270"/><text fill="#000000" font-family="sans-serif" font-size="14" font-style="italic" lengthAdjust="spacing" textLength="149.3857" x="489" y="293.5332">LibGDX: Physics &amp; Map</text></g><!--link GameManager to UserInterface--><g class="link" data-entity-1="GameManager" data-entity-2="UserInterface" data-source-line="13" data-uid="lnk6" id="link_GameManager_UserInterface"><path d="M329.72,31.75 C238.08,32.73 65.85,40.59 27.5,85 C6,109.9 51.77,133.66 83.5,146.39" fill="none" id="GameManager-UserInterface" style="stroke:#181818;stroke-width:1;"/><text fill="#000000" font-family="sans-serif" font-size="13" lengthAdjust="spacing" textLength="118.498" x="28.5" y="99.4951">Shows/Hides Menus</text></g><!--link GameManager to UserInterface--><g class="link" data-entity-1="GameManager" data-entity-2="UserInterface" data-source-line="18" data-uid="lnk10" id="link_GameManager_UserInterface"><path d="M329.72,45.44 C295.82,54.41 252.69,67.73 216.5,85 C187.92,98.64 158.19,119.2 137.52,134.69" fill="none" id="GameManager-UserInterface-1" style="stroke:#181818;stroke-width:1;stroke-dasharray:7,7;"/><text fill="#000000" font-family="sans-serif" font-size="13" lengthAdjust="spacing" textLength="85.9854" x="217.5" y="99.4951">Shows Dialogs</text></g><!--link GameManager to Entities--><g class="link" data-entity-1="GameManager" data-entity-2="Entities" data-source-line="14" data-uid="lnk7" id="link_GameManager_Entities"><path d="M338.6,55.27 C319.26,67.88 303.89,84.63 314.5,103 C321.7,115.45 333.05,125.23 345.36,132.82" fill="none" id="GameManager-Entities" style="stroke:#181818;stroke-width:1;"/><text fill="#000000" font-family="sans-serif" font-size="13" lengthAdjust="spacing" textLength="99.7217" x="315.5" y="99.4951">Manages Entities</text></g><!--link GameManager to Entities--><g class="link" data-entity-1="GameManager" data-entity-2="Entities" data-source-line="19" data-uid="lnk11" id="link_GameManager_Entities"><path d="M405.29,55.26 C411,64.09 416.59,74.54 419.5,85 C423.87,100.69 420.45,118.76 416.03,132.74" fill="none" id="GameManager-Entities-1" style="stroke:#181818;stroke-width:1;stroke-dasharray:7,7;"/><text fill="#000000" font-family="sans-serif" font-size="13" lengthAdjust="spacing" textLength="85.979" x="423.5" y="99.4951">Affects Entities</text></g><!--link GameManager to World--><g class="link" data-entity-1="GameManager" data-entity-2="World" data-source-line="15" data-uid="lnk8" id="link_GameManager_World"><path d="M445.25,43.22 C470.7,50.95 498.97,63.81 517.5,85 C561.46,135.27 568.31,218.69 568.88,258.91" fill="none" id="GameManager-World" style="stroke:#181818;stroke-width:1;"/><text fill="#000000" font-family="sans-serif" font-size="13" lengthAdjust="spacing" textLength="48.4199" x="581.2764" y="154.4951">Updates</text><text fill="#000000" font-family="sans-serif" font-size="13" lengthAdjust="spacing" textLength="85.9727" x="562.5" y="170.8467">Physics &amp; Map</text></g><!--link GameManager to World--><g class="link" data-entity-1="GameManager" data-entity-2="World" data-source-line="17" data-uid="lnk9" id="link_GameManager_World"><path d="M445.2,34.66 C509.73,41.15 611.15,62.67 656.5,133 C684.67,176.68 634.58,229.37 599.14,258.94" fill="none" id="GameManager-World-1" style="stroke:#181818;stroke-width:1;stroke-dasharray:7,7;"/><text fill="#000000" font-family="sans-serif" font-size="13" lengthAdjust="spacing" textLength="119.2153" x="666.5" y="162.4951">Listens for Collisions</text></g><!--link Entities to World--><g class="link" data-entity-1="Entities" data-entity-2="World" data-source-line="21" data-uid="lnk12" id="link_Entities_World"><path d="M398.63,181.24 C395.08,196.25 393.62,215.44 403.5,229 C420.17,251.85 446.84,265.07 473.92,272.64" fill="none" id="Entities-World" style="stroke:#181818;stroke-width:1;stroke-dasharray:7,7;"/><text fill="#000000" font-family="sans-serif" font-size="13" lengthAdjust="spacing" textLength="137.2808" x="404.5" y="225.4951">Creates Physics Bodies</text></g><!--SRC=[RP3B2i8m44Nt_OgX2tVLlPI2BrIe84XHK1UndTQ1Df5CHFhtDX5jgoupSsxkIOx9-Wo28M7KQsbGvo95p_EEIr4XnAgWrEtjSIEaA50touKqP6fu3IgKnZ5kIiWs7b8KqsKvFunXUwsPKeP1mz_24KKEtYjTPWtPkHY2eEy1O_1tL_NWqOeoPDYWlBF_7NdNMlerRbL-O5ThoUIM2ODyaZqzloyq7BQ1cDYWPCYLXfagIs9IygkWuVy_0EOaIbNyubtvIPvZQhhotcVTDPbfjEgVZvsgpD5F]--></g></svg>