<svg xmlns="http://www.w3.org/2000/svg" xmlns:xlink="http://www.w3.org/1999/xlink" contentStyleType="text/css" data-diagram-type="SEQUENCE" height="496px" preserveAspectRatio="none" style="width:1075px;height:496px;background:#FFFFFF;" version="1.1" viewBox="0 0 1075 496" width="1075px" zoomAndPan="magnify"><defs/><g><g><title>EventManager</title><rect fill="#FFFFFF" height="281.8125" style="stroke:#181818;stroke-width:1;" width="10" x="210.1475" y="114.9609"/></g><g><title>EventTrigger</title><rect fill="#FFFFFF" height="164.7578" style="stroke:#181818;stroke-width:1;" width="10" x="413.23" y="232.0156"/></g><g><title>GameEvent</title><rect fill="#FFFFFF" height="134.4063" style="stroke:#181818;stroke-width:1;" width="10" x="547.7407" y="262.3672"/></g><g><title>Player</title><rect fill="#000000" fill-opacity="0.00000" height="332.1641" width="8" x="23.8413" y="82.6094"/><line style="stroke:#181818;stroke-width:0.5;stroke-dasharray:5,5;" x1="27" x2="27" y1="82.6094" y2="414.7734"/></g><g><title>EventManager</title><rect fill="#000000" fill-opacity="0.00000" height="332.1641" width="8" x="211.1475" y="82.6094"/><line style="stroke:#181818;stroke-width:0.5;stroke-dasharray:5,5;" x1="214.6201" x2="214.6201" y1="82.6094" y2="414.7734"/></g><g><title>EventTrigger</title><rect fill="#000000" fill-opacity="0.00000" height="332.1641" width="8" x="414.23" y="82.6094"/><line style="stroke:#181818;stroke-width:0.5;stroke-dasharray:5,5;" x1="418.1577" x2="418.1577" y1="82.6094" y2="414.7734"/></g><g><title>GameEvent</title><rect fill="#000000" fill-opacity="0.00000" height="332.1641" width="8" x="548.7407" y="82.6094"/><line style="stroke:#181818;stroke-width:0.5;stroke-dasharray:5,5;" x1="551.7788" x2="551.7788" y1="82.6094" y2="414.7734"/></g><g><title>EventDialogue</title><rect fill="#000000" fill-opacity="0.00000" height="332.1641" width="8" x="727.3169" y="82.6094"/><line style="stroke:#181818;stroke-width:0.5;stroke-dasharray:5,5;" x1="730.7861" x2="730.7861" y1="82.6094" y2="414.7734"/></g><g><title>ScoreTracker</title><rect fill="#000000" fill-opacity="0.00000" height="332.1641" width="8" x="838.8579" y="82.6094"/><line style="stroke:#181818;stroke-width:0.5;stroke-dasharray:5,5;" x1="842.8477" x2="842.8477" y1="82.6094" y2="414.7734"/></g><g><title>EventCompletionTracker</title><rect fill="#000000" fill-opacity="0.00000" height="332.1641" width="8" x="981.8989" y="82.6094"/><line style="stroke:#181818;stroke-width:0.5;stroke-dasharray:5,5;" x1="985.8682" x2="985.8682" y1="82.6094" y2="414.7734"/></g><g class="participant participant-head" data-participant="Player"><text fill="#000000" font-family="sans-serif" font-size="14" lengthAdjust="spacing" textLength="39.6826" x="5" y="79.5332">Player</text><ellipse cx="27.8413" cy="13.5" fill="#E2E2F0" rx="8" ry="8" style="stroke:#181818;stroke-width:0.5;"/><path d="M27.8413,21.5 L27.8413,48.5 M14.8413,29.5 L40.8413,29.5 M27.8413,48.5 L14.8413,63.5 M27.8413,48.5 L40.8413,63.5" fill="none" style="stroke:#181818;stroke-width:0.5;"/></g><g class="participant participant-tail" data-participant="Player"><text fill="#000000" font-family="sans-serif" font-size="14" lengthAdjust="spacing" textLength="39.6826" x="5" y="428.3066">Player</text><ellipse cx="27.8413" cy="439.8828" fill="#E2E2F0" rx="8" ry="8" style="stroke:#181818;stroke-width:0.5;"/><path d="M27.8413,447.8828 L27.8413,474.8828 M14.8413,455.8828 L40.8413,455.8828 M27.8413,474.8828 L14.8413,489.8828 M27.8413,474.8828 L40.8413,489.8828" fill="none" style="stroke:#181818;stroke-width:0.5;"/></g><g class="participant participant-head" data-participant="EvtManager"><rect fill="#E2E2F0" height="31.6094" rx="2.5" ry="2.5" style="stroke:#181818;stroke-width:0.5;" width="105.0547" x="162.6201" y="50"/><text fill="#000000" font-family="sans-serif" font-size="14" lengthAdjust="spacing" textLength="91.0547" x="169.6201" y="71.5332">EventManager</text></g><g class="participant participant-tail" data-participant="EvtManager"><rect fill="#E2E2F0" height="31.6094" rx="2.5" ry="2.5" style="stroke:#181818;stroke-width:0.5;" width="105.0547" x="162.6201" y="413.7734"/><text fill="#000000" font-family="sans-serif" font-size="14" lengthAdjust="spacing" textLength="91.0547" x="169.6201" y="435.3066">EventManager</text></g><g class="participant participant-head" data-participant="Trigger"><rect fill="#E2E2F0" height="31.6094" rx="2.5" ry="2.5" style="stroke:#181818;stroke-width:0.5;" width="94.1445" x="371.1577" y="50"/><text fill="#000000" font-family="sans-serif" font-size="14" lengthAdjust="spacing" textLength="80.1445" x="378.1577" y="71.5332">EventTrigger</text></g><g class="participant participant-tail" data-participant="Trigger"><rect fill="#E2E2F0" height="31.6094" rx="2.5" ry="2.5" style="stroke:#181818;stroke-width:0.5;" width="94.1445" x="371.1577" y="413.7734"/><text fill="#000000" font-family="sans-serif" font-size="14" lengthAdjust="spacing" textLength="80.1445" x="378.1577" y="435.3066">EventTrigger</text></g><g class="participant participant-head" data-participant="Event"><rect fill="#E2E2F0" height="31.6094" rx="2.5" ry="2.5" style="stroke:#181818;stroke-width:0.5;" width="87.9238" x="508.7788" y="50"/><text fill="#000000" font-family="sans-serif" font-size="14" lengthAdjust="spacing" textLength="73.9238" x="515.7788" y="71.5332">GameEvent</text></g><g class="participant participant-tail" data-participant="Event"><rect fill="#E2E2F0" height="31.6094" rx="2.5" ry="2.5" style="stroke:#181818;stroke-width:0.5;" width="87.9238" x="508.7788" y="413.7734"/><text fill="#000000" font-family="sans-serif" font-size="14" lengthAdjust="spacing" textLength="73.9238" x="515.7788" y="435.3066">GameEvent</text></g><g class="participant participant-head" data-participant="Dialogue"><rect fill="#E2E2F0" height="31.6094" rx="2.5" ry="2.5" style="stroke:#181818;stroke-width:0.5;" width="105.0615" x="678.7861" y="50"/><text fill="#000000" font-family="sans-serif" font-size="14" lengthAdjust="spacing" textLength="91.0615" x="685.7861" y="71.5332">EventDialogue</text></g><g class="participant participant-tail" data-participant="Dialogue"><rect fill="#E2E2F0" height="31.6094" rx="2.5" ry="2.5" style="stroke:#181818;stroke-width:0.5;" width="105.0615" x="678.7861" y="413.7734"/><text fill="#000000" font-family="sans-serif" font-size="14" lengthAdjust="spacing" textLength="91.0615" x="685.7861" y="435.3066">EventDialogue</text></g><g class="participant participant-head" data-participant="Score"><rect fill="#E2E2F0" height="31.6094" rx="2.5" ry="2.5" style="stroke:#181818;stroke-width:0.5;" width="98.0205" x="793.8477" y="50"/><text fill="#000000" font-family="sans-serif" font-size="14" lengthAdjust="spacing" textLength="84.0205" x="800.8477" y="71.5332">ScoreTracker</text></g><g class="participant participant-tail" data-participant="Score"><rect fill="#E2E2F0" height="31.6094" rx="2.5" ry="2.5" style="stroke:#181818;stroke-width:0.5;" width="98.0205" x="793.8477" y="413.7734"/><text fill="#000000" font-family="sans-serif" font-size="14" lengthAdjust="spacing" textLength="84.0205" x="800.8477" y="435.3066">ScoreTracker</text></g><g class="participant participant-head" data-participant="EvtTracker"><rect fill="#E2E2F0" height="31.6094" rx="2.5" ry="2.5" style="stroke:#181818;stroke-width:0.5;" width="168.0615" x="901.8682" y="50"/><text fill="#000000" font-family="sans-serif" font-size="14" lengthAdjust="spacing" textLength="154.0615" x="908.8682" y="71.5332">EventCompletionTracker</text></g><g class="participant participant-tail" data-participant="EvtTracker"><rect fill="#E2E2F0" height="31.6094" rx="2.5" ry="2.5" style="stroke:#181818;stroke-width:0.5;" width="168.0615" x="901.8682" y="413.7734"/><text fill="#000000" font-family="sans-serif" font-size="14" lengthAdjust="spacing" textLength="154.0615" x="908.8682" y="435.3066">EventCompletionTracker</text></g><g><title>EventManager</title><rect fill="#FFFFFF" height="281.8125" style="stroke:#181818;stroke-width:1;" width="10" x="210.1475" y="114.9609"/></g><g><title>EventTrigger</title><rect fill="#FFFFFF" height="164.7578" style="stroke:#181818;stroke-width:1;" width="10" x="413.23" y="232.0156"/></g><g><title>GameEvent</title><rect fill="#FFFFFF" height="134.4063" style="stroke:#181818;stroke-width:1;" width="10" x="547.7407" y="262.3672"/></g><g class="message" data-participant-1="Player" data-participant-2="EvtManager"><polygon fill="#181818" points="198.1475,110.9609,208.1475,114.9609,198.1475,118.9609,202.1475,114.9609" style="stroke:#181818;stroke-width:1;"/><line style="stroke:#181818;stroke-width:1;" x1="27.8413" x2="204.1475" y1="114.9609" y2="114.9609"/><text fill="#000000" font-family="sans-serif" font-size="13" lengthAdjust="spacing" textLength="163.3062" x="34.8413" y="110.1045">Player input causes collision</text></g><g class="message" data-participant-1="EvtManager" data-participant-2="EvtManager"><line style="stroke:#181818;stroke-width:1;" x1="220.1475" x2="262.1475" y1="145.3125" y2="145.3125"/><line style="stroke:#181818;stroke-width:1;" x1="262.1475" x2="262.1475" y1="145.3125" y2="158.3125"/><line style="stroke:#181818;stroke-width:1;" x1="221.1475" x2="262.1475" y1="158.3125" y2="158.3125"/><polygon fill="#181818" points="231.1475,154.3125,221.1475,158.3125,231.1475,162.3125,227.1475,158.3125" style="stroke:#181818;stroke-width:1;"/><text fill="#000000" font-family="sans-serif" font-size="13" lengthAdjust="spacing" textLength="169.0825" x="227.1475" y="140.4561">Receives collision notification</text></g><g class="message" data-participant-1="EvtManager" data-participant-2="EvtManager"><line style="stroke:#181818;stroke-width:1;" x1="220.1475" x2="262.1475" y1="188.6641" y2="188.6641"/><line style="stroke:#181818;stroke-width:1;" x1="262.1475" x2="262.1475" y1="188.6641" y2="201.6641"/><line style="stroke:#181818;stroke-width:1;" x1="221.1475" x2="262.1475" y1="201.6641" y2="201.6641"/><polygon fill="#181818" points="231.1475,197.6641,221.1475,201.6641,231.1475,205.6641,227.1475,201.6641" style="stroke:#181818;stroke-width:1;"/><text fill="#000000" font-family="sans-serif" font-size="13" lengthAdjust="spacing" textLength="149.5635" x="227.1475" y="183.8076">Identifies Player &amp; Trigger</text></g><g class="message" data-participant-1="EvtManager" data-participant-2="Trigger"><polygon fill="#181818" points="401.23,228.0156,411.23,232.0156,401.23,236.0156,405.23,232.0156" style="stroke:#181818;stroke-width:1;"/><line style="stroke:#181818;stroke-width:1;" x1="220.1475" x2="407.23" y1="232.0156" y2="232.0156"/><text fill="#000000" font-family="sans-serif" font-size="13" lengthAdjust="spacing" textLength="171.2344" x="227.1475" y="227.1592">Notifies trigger of Player entry</text></g><g class="message" data-participant-1="Trigger" data-participant-2="Event"><polygon fill="#181818" points="535.7407,258.3672,545.7407,262.3672,535.7407,266.3672,539.7407,262.3672" style="stroke:#181818;stroke-width:1;"/><line style="stroke:#181818;stroke-width:1;" x1="423.23" x2="541.7407" y1="262.3672" y2="262.3672"/><text fill="#000000" font-family="sans-serif" font-size="13" lengthAdjust="spacing" textLength="105.5107" x="430.23" y="257.5107">Begins event logic</text></g><g class="message" data-participant-1="Event" data-participant-2="Event"><line style="stroke:#181818;stroke-width:1;" x1="557.7407" x2="599.7407" y1="292.7188" y2="292.7188"/><line style="stroke:#181818;stroke-width:1;" x1="599.7407" x2="599.7407" y1="292.7188" y2="305.7188"/><line style="stroke:#181818;stroke-width:1;" x1="558.7407" x2="599.7407" y1="305.7188" y2="305.7188"/><polygon fill="#181818" points="568.7407,301.7188,558.7407,305.7188,568.7407,309.7188,564.7407,305.7188" style="stroke:#181818;stroke-width:1;"/><text fill="#000000" font-family="sans-serif" font-size="13" lengthAdjust="spacing" textLength="130.7935" x="564.7407" y="287.8623">Executes event effects</text></g><g class="message" data-participant-1="Event" data-participant-2="Dialogue"><polygon fill="#181818" points="719.3169,332.0703,729.3169,336.0703,719.3169,340.0703,723.3169,336.0703" style="stroke:#181818;stroke-width:1;"/><line style="stroke:#181818;stroke-width:1;" x1="557.7407" x2="725.3169" y1="336.0703" y2="336.0703"/><text fill="#000000" font-family="sans-serif" font-size="13" lengthAdjust="spacing" textLength="149.5762" x="564.7407" y="331.2139">Displays pop-up message</text></g><g class="message" data-participant-1="Event" data-participant-2="Score"><polygon fill="#181818" points="830.8579,362.4219,840.8579,366.4219,830.8579,370.4219,834.8579,366.4219" style="stroke:#181818;stroke-width:1;"/><line style="stroke:#181818;stroke-width:1;" x1="557.7407" x2="836.8579" y1="366.4219" y2="366.4219"/><text fill="#000000" font-family="sans-serif" font-size="13" lengthAdjust="spacing" textLength="117.7871" x="564.7407" y="361.5654">Adds points to score</text></g><g class="message" data-participant-1="Event" data-participant-2="EvtTracker"><polygon fill="#181818" points="973.8989,392.7734,983.8989,396.7734,973.8989,400.7734,977.8989,396.7734" style="stroke:#181818;stroke-width:1;"/><line style="stroke:#181818;stroke-width:1;" x1="552.7407" x2="979.8989" y1="396.7734" y2="396.7734"/><text fill="#000000" font-family="sans-serif" font-size="13" lengthAdjust="spacing" textLength="130.0825" x="559.7407" y="391.917">Logs event completion</text></g><!--SRC=[VP51JWCn34NtEONL1RjUW0KIq0eX0KBG2rWPpyXYcaI9PqHlZvicRQQgsCNH-z_-Dbhn4Jv7F50q0QEmvO1EOBMToSaxEXmehW0JRETQtW1taOSAblUIUi4zPR9uwUk6pOPnzCD46Qh5alksFj8kelqfxVB73QzdlmyZ2NlNqfgYbCQSOiFweSa6zsKRm2vC0XQdH0ci7qTEwcKCMk4PXTg5DFfhjo-on7Dh0SuBzspnEDj_qjTEOoYfuZBJtNcvIrdvLSs7BmefNxwlOZMBXylurSbKSMwlaBeyqS0k0ULIZy2sZNsydJcXZMRxItOIgYhgUxAIBbmzfw8RJa5dIX1yM4y1zfIIHhcm-QOAFdRT4M8d6iX3ogTkEjTRAlhcXzhQdYzlJ4TNWpSVTGCBfgxr3m00]--></g></svg>