<svg xmlns="http://www.w3.org/2000/svg" xmlns:xlink="http://www.w3.org/1999/xlink" xmlns:lucid="lucid" width="1846.22" height="1078.5"><g transform="translate(-1437.362006372005 -931)" lucid:page-tab-id="0_0"><path d="M500 500h3500v2000H500z" fill="#fff"/><path d="M1477.36 1058.57h-11.66m-11.67 0h-11.67a5 5 0 0 0-5 5v10.13m0 10.13v20.26m0 10.12v20.26m0 10.13v20.27m0 10.13v20.26m0 10.13v20.25m0 10.13v20.26m0 10.13v20.26m0 10.13v20.26m0 10.13v20.26m0 10.14v20.27m0 10.13V1408m0 10.13v20.26m0 10.12v20.26m0 10.13v20.27m0 10.13v20.26m0 10.13v20.25m0 10.13v20.26m0 10.13v20.26m0 10.13v20.26m0 10.13v20.26m0 10.14v20.26m0 10.13v20.26m0 10.12v20.26m0 10.13v20.27m0 10.13v20.26m0 10.13v20.25m0 10.13v20.26m0 10.13v10.13a5 5 0 0 0 5 5h11.5m11.5 0h11.5M1477.35 1058.57h3.5M1476.85 1919.5h3.5M1791.83 1062.5v10.14m.02 10.14l.03 20.28m0 10.14l.04 20.3m.02 10.13l.02 20.28m.02 10.15l.02 20.28m.02 10.14l.03 20.3m0 10.13l.04 20.28m0 10.14l.03 20.28m0 10.14l.04 20.3m0 10.13l.04 20.28m.02 10.14l.03 20.27m.02 10.14l.02 20.3m0 10.14l.03 20.28m.02 10.14l.03 20.28m0 10.14l.04 20.28m0 10.14l.04 20.3m0 10.13l.04 20.28m0 10.15l.04 20.28m0 10.14l.04 20.3m.02 10.13l.02 20.28m.02 10.14l.02 20.28m.02 10.14l.02 20.3m.02 10.13l.03 20.28m0 10.14l.04 20.27m0 10.14l.03 20.3m0 10.14l.04 20.28m0 10.14l.03 10.14" stroke="#333" fill="none"/><path d="M1792.3 1062.5h-.95v-.5h.95zM1793.37 1854h-.95v-.5h.95z" stroke="#333" stroke-width=".05" fill="#333"/><path d="M2152.66 1062.5v10.14m0 10.14v20.28m0 10.14v20.3m0 10.13v20.28m0 10.15v20.28m0 10.14v20.3m0 10.13v20.28m0 10.14v20.28m0 10.14v20.3m0 10.13v20.28m0 10.14v20.27m0 10.14v20.3m0 10.14v20.28m0 10.14v20.28m0 10.14v20.28m0 10.14v20.3m0 10.13v20.28m0 10.15v20.28m0 10.14v20.3m0 10.13v20.28m0 10.14v20.28m0 10.14v20.3m0 10.13v20.28m0 10.14v20.27m0 10.14v20.3m0 10.14v20.28m0 10.14v10.14" stroke="#333" fill="none"/><path d="M2153.13 1062.5h-.95v-.5h.95zM2153.13 1854h-.95v-.5h.95z" stroke="#333" stroke-width=".05" fill="#333"/><path d="M2132.66 1219a8 8 0 0 1 8-8h24a8 8 0 0 1 8 8v184a8 8 0 0 1-8 8h-24a8 8 0 0 1-8-8z" stroke="#f2f2f2" fill="#ced4db"/><path d="M2513.5 1062.5v10.14m0 10.14v20.28m0 10.14v20.3m0 10.13v20.28m0 10.15v20.28m0 10.14v20.3m0 10.13v20.28m0 10.14v20.28m0 10.14v20.3m0 10.13v20.28m0 10.14v20.27m0 10.14v20.3m0 10.14v20.28m0 10.14v20.28m0 10.14v20.28m0 10.14v20.3m0 10.13v20.28m0 10.15v20.28m0 10.14v20.3m0 10.13v20.28m0 10.14v20.28m0 10.14v20.3m0 10.13v20.28m0 10.14v20.27m0 10.14v20.3m0 10.14v20.28m0 10.14v10.14" stroke="#333" fill="none"/><path d="M2513.97 1062.5h-.95v-.5h.95zM2513.97 1854h-.95v-.5h.95z" stroke="#333" stroke-width=".05" fill="#333"/><path d="M2493.5 1419a8 8 0 0 1 8-8h24a8 8 0 0 1 8 8v364a8 8 0 0 1-8 8h-24a8 8 0 0 1-8-8zM1772.9 1128.73a8 8 0 0 1 8-8h24a8 8 0 0 1 8 8v693.55a8 8 0 0 1-8 8h-24a8 8 0 0 1-8-8z" stroke="#f2f2f2" fill="#ced4db"/><path d="M2057.62 939a8 8 0 0 1 8-8h174.08a8 8 0 0 1 8 8v115a8 8 0 0 1-8 8h-174.08a8 8 0 0 1-8-8z" stroke="#000" stroke-opacity="0" fill="#6db1ff"/><use xlink:href="#a" transform="matrix(1,0,0,1,2065.6213870944853,939) translate(62.11263020833333 66.39214409722223)"/><path d="M2418.45 939a8 8 0 0 1 8-8h174.08a8 8 0 0 1 8 8v115a8 8 0 0 1-8 8h-174.08a8 8 0 0 1-8-8z" stroke="#000" stroke-opacity="0" fill="#6db1ff"/><use xlink:href="#b" transform="matrix(1,0,0,1,2426.4553854227047,939) translate(55.177951388888886 66.39214409722223)"/><path d="M1458.1 982.8v-.2a19.75 19.75 0 0 1 19.76-19.76 19.75 19.75 0 0 1 19.75 19.75 19.75 19.75 0 0 1-19.74 19.74 19.75 19.75 0 0 1-19.75-19.75v-.2" stroke="#333" fill="#fff"/><path d="M1437.86 970.84a8 8 0 0 1 8-8h64a8 8 0 0 1 8 8v142a8 8 0 0 1-8 8h-64a8 8 0 0 1-8-8z" fill="none"/><path d="M1477.86 1002.34v55.3l40 63.2m-40-63.2l-40 63.2m0-98.75h80" stroke="#333" fill="none"/><use xlink:href="#c" transform="matrix(1,0,0,1,1357.862006372005,1120.8370265082585) translate(84.19270833333333 23.680555555555557)"/><path d="M1437.86 1179.93H1756M1437.88 1179.93h-.52" stroke="#333" fill="none"/><path d="M1770.78 1179.93l-14.27 4.64v-9.27z" stroke="#333" fill="#333"/><use xlink:href="#d" transform="matrix(1,0,0,1,1492.3200577078796,1183.9307400086973) translate(0.0049999999999954525 23.680555555555557)"/><use xlink:href="#e" transform="matrix(1,0,0,1,1492.3200577078796,1183.9307400086973) translate(70.65278645833334 23.680555555555557)"/><use xlink:href="#f" transform="matrix(1,0,0,1,1492.3200577078796,1183.9307400086973) translate(99.94315104166668 23.680555555555557)"/><use xlink:href="#g" transform="matrix(1,0,0,1,1492.3200577078796,1183.9307400086973) translate(155.07444444444445 23.680555555555557)"/><path d="M1696.8 939a8 8 0 0 1 8-8h174.06a8 8 0 0 1 8 8v115a8 8 0 0 1-8 8H1704.8a8 8 0 0 1-8-8z" stroke="#000" stroke-opacity="0" fill="#6db1ff"/><use xlink:href="#h" transform="matrix(1,0,0,1,1704.787388766265,939) translate(2.475585937499986 66.39214409722223)"/><path d="M3093.5 939a8 8 0 0 1 8-8h174.08a8 8 0 0 1 8 8v115a8 8 0 0 1-8 8H3101.5a8 8 0 0 1-8-8z" stroke="#000" stroke-opacity="0" fill="#6db1ff"/><use xlink:href="#i" transform="matrix(1,0,0,1,3101.5042148944044,939) translate(21.071506076388886 66.39214409722223)"/><path d="M2779.3 939a8 8 0 0 1 8-8h174.06a8 8 0 0 1 8 8v115a8 8 0 0 1-8 8H2787.3a8 8 0 0 1-8-8z" stroke="#000" stroke-opacity="0" fill="#6db1ff"/><use xlink:href="#j" transform="matrix(1,0,0,1,2787.289383750924,939) translate(10.973849826388872 66.39214409722223)"/><path d="M2873.5 1062.5v10.14m0 10.14v20.28m0 10.14v20.3m0 10.13v20.28m0 10.15v20.28m0 10.14v20.3m0 10.13v20.28m0 10.14v20.28m0 10.14v20.3m0 10.13v20.28m0 10.14v20.27m0 10.14v20.3m0 10.14v20.28m0 10.14v20.28m0 10.14v20.28m0 10.14v20.3m0 10.13v20.28m0 10.15v20.28m0 10.14v20.3m0 10.13v20.28m0 10.14v20.28m0 10.14v20.3m0 10.13v20.28m0 10.14v20.27m0 10.14v20.3m0 10.13v20.3m0 10.13v10.14" stroke="#333" fill="none"/><path d="M2873.98 1062.5h-.95v-.5h.95zM2873.98 1854h-.95v-.5h.95z" stroke="#333" stroke-width=".05" fill="#333"/><path d="M3193.5 1062.5v10.14m0 10.14v20.28m0 10.14v20.3m0 10.13v20.28m0 10.15v20.28m0 10.14v20.3m0 10.13v20.28m0 10.14v20.28m0 10.14v20.3m0 10.13v20.28m0 10.14v20.27m0 10.14v20.3m0 10.14v20.28m0 10.14v20.28m0 10.14v20.28m0 10.14v20.3m0 10.13v20.28m0 10.15v20.28m0 10.14v20.3m0 10.13v20.28m0 10.14v20.28m0 10.14v20.3m0 10.13v20.28m0 10.14v20.27m0 10.14v20.3m0 10.13v20.3m0 10.13v10.14" stroke="#333" fill="none"/><path d="M3193.98 1062.5h-.95v-.5h.95zM3193.98 1854h-.95v-.5h.95z" stroke="#333" stroke-width=".05" fill="#333"/><path d="M3093.5 1862a8 8 0 0 1 8-8h174.08a8 8 0 0 1 8 8v115a8 8 0 0 1-8 8H3101.5a8 8 0 0 1-8-8z" stroke="#000" stroke-opacity="0" fill="#6db1ff"/><use xlink:href="#i" transform="matrix(1,0,0,1,3101.5042148944044,1862) translate(21.071506076388886 66.39214409722223)"/><path d="M2779.3 1862a8 8 0 0 1 8-8h174.06a8 8 0 0 1 8 8v115a8 8 0 0 1-8 8H2787.3a8 8 0 0 1-8-8z" stroke="#000" stroke-opacity="0" fill="#6db1ff"/><use xlink:href="#j" transform="matrix(1,0,0,1,2787.289383750924,1862) translate(10.973849826388872 66.39214409722223)"/><path d="M2418.45 1862a8 8 0 0 1 8-8h174.08a8 8 0 0 1 8 8v115a8 8 0 0 1-8 8h-174.08a8 8 0 0 1-8-8z" stroke="#000" stroke-opacity="0" fill="#6db1ff"/><use xlink:href="#b" transform="matrix(1,0,0,1,2426.4553854227047,1862) translate(55.177951388888886 66.39214409722223)"/><path d="M2057.62 1862a8 8 0 0 1 8-8h174.08a8 8 0 0 1 8 8v115a8 8 0 0 1-8 8h-174.08a8 8 0 0 1-8-8z" stroke="#000" stroke-opacity="0" fill="#6db1ff"/><use xlink:href="#a" transform="matrix(1,0,0,1,2065.6213870944853,1862) translate(62.11263020833333 66.39214409722223)"/><path d="M1697.86 1862a8 8 0 0 1 8-8h174.08a8 8 0 0 1 8 8v115a8 8 0 0 1-8 8h-174.08a8 8 0 0 1-8-8z" stroke="#000" stroke-opacity="0" fill="#6db1ff"/><use xlink:href="#h" transform="matrix(1,0,0,1,1705.860925304591,1862) translate(2.475585937499986 66.39214409722223)"/><path d="M1458.1 1849.45v-.2a19.75 19.75 0 0 1 19.76-19.75 19.75 19.75 0 0 1 19.75 19.75 19.75 19.75 0 0 1-19.74 19.75 19.75 19.75 0 0 1-19.75-19.75v-.2" stroke="#333" fill="#fff"/><path d="M1437.86 1837.5a8 8 0 0 1 8-8h64a8 8 0 0 1 8 8v142a8 8 0 0 1-8 8h-64a8 8 0 0 1-8-8z" fill="none"/><path d="M1477.86 1869v55.3l40 63.2m-40-63.2l-40 63.2m0-98.75h80" stroke="#333" fill="none"/><use xlink:href="#c" transform="matrix(1,0,0,1,1357.862006372005,1987.5) translate(84.19270833333333 23.680555555555557)"/><path d="M1813.9 1251h301.88" stroke="#3a414a" fill="none"/><path d="M1813.9 1251.47h-.5v-.94h.5z" stroke="#3a414a" stroke-width=".05" fill="#3a414a"/><path d="M2130.54 1251l-14.27 4.63v-9.27z" stroke="#3a414a" fill="#3a414a"/><use xlink:href="#k" transform="matrix(1,0,0,1,1897.34471725249,1254.9999997896302) translate(0.0049999999999954525 23.680555555555557)"/><use xlink:href="#g" transform="matrix(1,0,0,1,1897.34471725249,1254.9999997896302) translate(80.82205729166667 23.680555555555557)"/><path d="M1453.75 1448h318.15" stroke="#3a414a" fill="none"/><path d="M1438.98 1448l14.27-4.63v9.27z" stroke="#3a414a" fill="#3a414a"/><path d="M1772.4 1448.48h-.5v-.95h.5z" stroke="#3a414a" stroke-width=".05" fill="#3a414a"/><use xlink:href="#l" transform="matrix(1,0,0,1,1675.554256773656,1452.004449654551) translate(0.004999999999999005 23.680555555555557)"/><use xlink:href="#m" transform="matrix(1,0,0,1,1675.554256773656,1452.004449654551) translate(22.491979166666667 23.680555555555557)"/><path d="M1813.9 1462.74h662.7" stroke="#3a414a" fill="none"/><path d="M1813.9 1463.22h-.5v-.95h.5z" stroke="#3a414a" stroke-width=".05" fill="#3a414a"/><path d="M2491.37 1462.74l-14.26 4.64v-9.27z" stroke="#3a414a" fill="#3a414a"/><use xlink:href="#l" transform="matrix(1,0,0,1,1883.5263791168427,1466.7445382170242) translate(0.0049999999999954525 23.680555555555557)"/><use xlink:href="#n" transform="matrix(1,0,0,1,1883.5263791168427,1466.7445382170242) translate(22.491979166666663 23.680555555555557)"/><use xlink:href="#o" transform="matrix(1,0,0,1,1883.5263791168427,1466.7445382170242) translate(69.78147569444445 23.680555555555557)"/><use xlink:href="#p" transform="matrix(1,0,0,1,1883.5263791168427,1466.7445382170242) translate(153.59440972222222 23.680555555555557)"/><path d="M2534.5 1639.63h302.94" stroke="#3a414a" fill="none"/><path d="M2534.5 1640.1h-.5v-.95h.5z" stroke="#3a414a" stroke-width=".05" fill="#3a414a"/><path d="M2852.2 1639.63l-14.26 4.63V1635z" stroke="#3a414a" fill="#3a414a"/><use xlink:href="#q" transform="matrix(1,0,0,1,2628.297379649902,1643.6255459062863) translate(0.005000000000002558 23.680555555555557)"/><use xlink:href="#r" transform="matrix(1,0,0,1,2628.297379649902,1643.6255459062863) translate(9.649097222222217 59.17274305555556)"/><path d="M2854.33 1619a8 8 0 0 1 8-8h24a8 8 0 0 1 8 8v64a8 8 0 0 1-8 8h-24a8 8 0 0 1-8-8z" stroke="#f2f2f2" fill="#ced4db"/><path d="M2534.5 1516.8h623.78" stroke="#3a414a" fill="none"/><path d="M2534.5 1517.27h-.5v-.95h.5z" stroke="#3a414a" stroke-width=".05" fill="#3a414a"/><path d="M3173.04 1516.8l-14.26 4.63v-9.27z" stroke="#3a414a" fill="#3a414a"/><use xlink:href="#s" transform="matrix(1,0,0,1,2554.4113422952473,1520.7916022257675) translate(0.0049999999999954525 23.680555555555557)"/><use xlink:href="#t" transform="matrix(1,0,0,1,2554.4113422952473,1520.7916022257675) translate(91.33746527777778 23.680555555555557)"/><use xlink:href="#u" transform="matrix(1,0,0,1,2554.4113422952473,1520.7916022257675) translate(162.8565625 23.680555555555557)"/><path d="M3175.16 1499a8 8 0 0 1 8-8h24a8 8 0 0 1 8 8v64a8 8 0 0 1-8 8h-24a8 8 0 0 1-8-8z" stroke="#f2f2f2" fill="#ced4db"/><path d="M1829.78 1351h301.88" stroke="#3a414a" fill="none"/><path d="M1815.02 1351l14.26-4.63v9.27z" stroke="#3a414a" fill="#3a414a"/><path d="M2132.16 1351.47h-.5v-.94h.5z" stroke="#3a414a" stroke-width=".05" fill="#3a414a"/><g><use xlink:href="#v" transform="matrix(1,0,0,1,1883.0337701195083,1354.9999998692683) translate(0.0049999999999954525 23.680555555555557)"/><use xlink:href="#w" transform="matrix(1,0,0,1,1883.0337701195083,1354.9999998692683) translate(26.347230902777774 23.680555555555557)"/><use xlink:href="#x" transform="matrix(1,0,0,1,1883.0337701195083,1354.9999998692683) translate(96.94727430555557 23.680555555555557)"/></g><path d="M1453.75 1715.78h1038.73" stroke="#3a414a" fill="none"/><path d="M1438.98 1715.78l14.27-4.63v9.27z" stroke="#3a414a" fill="#3a414a"/><path d="M2493 1716.26h-.52v-.95h.5z" stroke="#3a414a" stroke-width=".05" fill="#3a414a"/><g><use xlink:href="#y" transform="matrix(1,0,0,1,2159.8841884459603,1719.782733000926) translate(0.0049999999999954525 23.680555555555557)"/><use xlink:href="#w" transform="matrix(1,0,0,1,2159.8841884459603,1719.782733000926) translate(73.45769097222222 23.680555555555557)"/><use xlink:href="#z" transform="matrix(1,0,0,1,2159.8841884459603,1719.782733000926) translate(144.057734375 23.680555555555557)"/><use xlink:href="#e" transform="matrix(1,0,0,1,2159.8841884459603,1719.782733000926) translate(217.8207552083333 23.680555555555557)"/><use xlink:href="#A" transform="matrix(1,0,0,1,2159.8841884459603,1719.782733000926) translate(247.11111979166665 23.680555555555557)"/></g><path d="M1829.78 1591h662.72" stroke="#3a414a" fill="none"/><path d="M1815.02 1591l14.26-4.63v9.27z" stroke="#3a414a" fill="#3a414a"/><path d="M2493 1591.47h-.52v-.94h.5z" stroke="#3a414a" stroke-width=".05" fill="#3a414a"/><g><use xlink:href="#B" transform="matrix(1,0,0,1,2185.128029100875,1595) translate(0.0049999999999954525 23.680555555555557)"/><use xlink:href="#w" transform="matrix(1,0,0,1,2185.128029100875,1595) translate(123.00304687500001 23.680555555555557)"/><use xlink:href="#C" transform="matrix(1,0,0,1,2185.128029100875,1595) translate(193.6030902777778 23.680555555555557)"/></g><defs><path fill="#333" d="M180 0v-1490h270l367 940c28 72 75 218 110 339 35-117 81-264 110-339l362-940h271V0h-187c2-448-5-837 7-1287-157 497-311 829-483 1287H842C666-458 514-784 354-1284c12 438 5 843 7 1284H180" id="D"/><path fill="#333" d="M471 26C259 26 90-98 90-318c0-256 228-303 435-329 202-27 287-16 287-108 0-139-79-219-234-219-161 0-248 86-283 164l-173-57c86-203 278-265 451-265 150 0 419 46 419 395V0H815v-152h-12C765-73 660 26 471 26zm31-159c199 0 310-134 310-271v-155c-30 35-226 55-295 64-131 17-246 59-246 186 0 116 97 176 231 176" id="E"/><path fill="#333" d="M158 418v-1536h174v179h20c37-59 106-193 324-193 279 0 474 222 474 576 0 356-194 580-473 580-213 0-288-135-325-197h-14v591H158zm492-555c209 0 317-186 317-421 0-232-105-413-317-413-206 0-314 166-314 413 0 249 111 421 314 421" id="F"/><g id="a"><use transform="matrix(0.01193576388888889,0,0,0.01193576388888889,0,0)" xlink:href="#D"/><use transform="matrix(0.01193576388888889,0,0,0.01193576388888889,22.081163194444446,0)" xlink:href="#E"/><use transform="matrix(0.01193576388888889,0,0,0.01193576388888889,35.80729166666667,0)" xlink:href="#F"/></g><path fill="#333" d="M180 0v-1490h908v168H370v486h669v168H370v500h727V0H180" id="G"/><path fill="#333" d="M481 0L54-1118h197c107 314 236 620 325 951 87-331 217-637 324-951h197L670 0H481" id="H"/><path fill="#333" d="M628 24c-324 0-524-230-524-574 0-343 198-582 503-582 237 0 487 146 487 559v75H286c9 234 145 362 343 362 132 0 231-58 273-172l174 48C1024-91 857 24 628 24zM287-650h624c-17-190-120-322-304-322-192 0-309 151-320 322" id="I"/><path fill="#333" d="M338-670V0H158v-1118h173l1 207c72-158 192-221 342-221 226 0 378 139 378 422V0H872v-695c0-172-96-275-252-275-161 0-282 109-282 300" id="J"/><path fill="#333" d="M598-1118v154H368v674c0 100 37 144 132 144 23 0 62-6 92-12L629-6c-37 13-88 20-134 20-193 0-307-107-307-290v-688H20v-154h168v-266h180v266h230" id="K"/><g id="b"><use transform="matrix(0.01193576388888889,0,0,0.01193576388888889,0,0)" xlink:href="#G"/><use transform="matrix(0.01193576388888889,0,0,0.01193576388888889,14.692925347222223,0)" xlink:href="#H"/><use transform="matrix(0.01193576388888889,0,0,0.01193576388888889,27.95355902777778,0)" xlink:href="#I"/><use transform="matrix(0.01193576388888889,0,0,0.01193576388888889,42.204861111111114,0)" xlink:href="#J"/><use transform="matrix(0.01193576388888889,0,0,0.01193576388888889,56.64713541666667,0)" xlink:href="#K"/></g><path d="M180 0v-1490h510c348 0 508 209 508 474 0 266-160 477-507 477H370V0H180zm190-706h312c236 0 327-133 327-310 0-176-91-307-329-307H370v617" id="L"/><path d="M338-1490V0H158v-1490h180" id="M"/><path d="M471 26C259 26 90-98 90-318c0-256 228-303 435-329 202-27 287-16 287-108 0-139-79-219-234-219-161 0-248 86-283 164l-173-57c86-203 278-265 451-265 150 0 419 46 419 395V0H815v-152h-12C765-73 660 26 471 26zm31-159c199 0 310-134 310-271v-155c-30 35-226 55-295 64-131 17-246 59-246 186 0 116 97 176 231 176" id="N"/><path d="M140 405l46-156c120 36 205 19 263-150l32-93L54-1118h197c107 313 237 620 324 950 87-331 219-637 326-950h196L606 167c-68 178-176 259-334 259-64 0-113-12-132-21" id="O"/><path d="M628 24c-324 0-524-230-524-574 0-343 198-582 503-582 237 0 487 146 487 559v75H286c9 234 145 362 343 362 132 0 231-58 273-172l174 48C1024-91 857 24 628 24zM287-650h624c-17-190-120-322-304-322-192 0-309 151-320 322" id="P"/><path d="M158 0v-1118h174v172h12c41-113 157-188 290-188 26 0 70 2 91 3v181c-11-2-60-10-108-10-161 0-279 109-279 260V0H158" id="Q"/><g id="c"><use transform="matrix(0.01193576388888889,0,0,0.01193576388888889,0,0)" xlink:href="#L"/><use transform="matrix(0.01193576388888889,0,0,0.01193576388888889,15.611979166666668,0)" xlink:href="#M"/><use transform="matrix(0.01193576388888889,0,0,0.01193576388888889,21.532118055555557,0)" xlink:href="#N"/><use transform="matrix(0.01193576388888889,0,0,0.01193576388888889,34.900173611111114,0)" xlink:href="#O"/><use transform="matrix(0.01193576388888889,0,0,0.01193576388888889,48.16080729166667,0)" xlink:href="#P"/><use transform="matrix(0.01193576388888889,0,0,0.01193576388888889,62.41210937500001,0)" xlink:href="#Q"/></g><path fill="#3a414a" d="M180 0v-1490h270l367 940c28 72 75 218 110 339 35-117 81-264 110-339l362-940h271V0h-187c2-448-5-837 7-1287-157 497-311 829-483 1287H842C666-458 514-784 354-1284c12 438 5 843 7 1284H180" id="R"/><path fill="#3a414a" d="M613 24c-304 0-509-231-509-576 0-350 205-580 509-580 305 0 511 230 511 580 0 345-206 576-511 576zm0-161c226 0 329-195 329-415 0-222-103-419-329-419-223 0-326 196-326 419 0 220 103 415 326 415" id="S"/><path fill="#3a414a" d="M481 0L54-1118h197c107 314 236 620 325 951 87-331 217-637 324-951h197L670 0H481" id="T"/><path fill="#3a414a" d="M628 24c-324 0-524-230-524-574 0-343 198-582 503-582 237 0 487 146 487 559v75H286c9 234 145 362 343 362 132 0 231-58 273-172l174 48C1024-91 857 24 628 24zM287-650h624c-17-190-120-322-304-322-192 0-309 151-320 322" id="U"/><g id="d"><use transform="matrix(0.01193576388888889,0,0,0.01193576388888889,0,0)" xlink:href="#R"/><use transform="matrix(0.01193576388888889,0,0,0.01193576388888889,22.081163194444446,0)" xlink:href="#S"/><use transform="matrix(0.01193576388888889,0,0,0.01193576388888889,36.26085069444444,0)" xlink:href="#T"/><use transform="matrix(0.01193576388888889,0,0,0.01193576388888889,49.52148437500001,0)" xlink:href="#U"/></g><path fill="#3a414a" d="M598-1118v154H368v674c0 100 37 144 132 144 23 0 62-6 92-12L629-6c-37 13-88 20-134 20-193 0-307-107-307-290v-688H20v-154h168v-266h180v266h230" id="V"/><g id="e"><use transform="matrix(0.01193576388888889,0,0,0.01193576388888889,0,0)" xlink:href="#V"/><use transform="matrix(0.01193576388888889,0,0,0.01193576388888889,7.758246527777779,0)" xlink:href="#S"/></g><path fill="#3a414a" d="M338-670V0H158v-1118h173l1 207c72-158 192-221 342-221 226 0 378 139 378 422V0H872v-695c0-172-96-275-252-275-161 0-282 109-282 300" id="W"/><path fill="#3a414a" d="M409 0L70-1118h191c89 329 165 560 243 925 75-353 154-601 240-925h192c85 325 161 564 235 922 77-354 157-598 244-922h191L1267 0h-179c-86-307-176-590-250-913C763-588 675-308 588 0H409" id="X"/><g id="f"><use transform="matrix(0.01193576388888889,0,0,0.01193576388888889,0,0)" xlink:href="#W"/><use transform="matrix(0.01193576388888889,0,0,0.01193576388888889,14.442274305555557,0)" xlink:href="#U"/><use transform="matrix(0.01193576388888889,0,0,0.01193576388888889,28.251953125000004,0)" xlink:href="#X"/></g><path fill="#3a414a" d="M538 24C308 24 148-78 108-271l171-41c32 123 123 178 257 178 156 0 256-77 256-169 0-77-54-128-164-154l-186-44c-203-48-300-148-300-305 0-192 176-326 414-326 230 0 351 112 402 269l-163 42c-31-80-94-158-238-158-133 0-233 69-233 162 0 83 57 129 188 160l169 40c203 48 298 149 298 302 0 196-179 339-441 339" id="Y"/><path fill="#3a414a" d="M158 418v-1536h174v179h20c37-59 106-193 324-193 279 0 474 222 474 576 0 356-194 580-473 580-213 0-288-135-325-197h-14v591H158zm492-555c209 0 317-186 317-421 0-232-105-413-317-413-206 0-314 166-314 413 0 249 111 421 314 421" id="Z"/><path fill="#3a414a" d="M471 26C259 26 90-98 90-318c0-256 228-303 435-329 202-27 287-16 287-108 0-139-79-219-234-219-161 0-248 86-283 164l-173-57c86-203 278-265 451-265 150 0 419 46 419 395V0H815v-152h-12C765-73 660 26 471 26zm31-159c199 0 310-134 310-271v-155c-30 35-226 55-295 64-131 17-246 59-246 186 0 116 97 176 231 176" id="aa"/><path fill="#3a414a" d="M613 24c-304 0-509-231-509-576 0-350 205-580 509-580 216 0 392 114 453 309l-173 49c-33-115-133-197-280-197-223 0-326 196-326 419 0 220 103 415 326 415 150 0 252-85 285-206l172 49C1010-95 832 24 613 24" id="ab"/><g id="g"><use transform="matrix(0.01193576388888889,0,0,0.01193576388888889,0,0)" xlink:href="#Y"/><use transform="matrix(0.01193576388888889,0,0,0.01193576388888889,12.90256076388889,0)" xlink:href="#Z"/><use transform="matrix(0.01193576388888889,0,0,0.01193576388888889,28.108723958333336,0)" xlink:href="#aa"/><use transform="matrix(0.01193576388888889,0,0,0.01193576388888889,41.83485243055556,0)" xlink:href="#ab"/><use transform="matrix(0.01193576388888889,0,0,0.01193576388888889,55.79969618055556,0)" xlink:href="#U"/></g><path fill="#333" d="M789 20c-398 0-667-293-667-764 0-473 273-766 655-766 315 0 558 198 612 487h-196c-61-191-204-311-415-311-262 0-471 207-471 590 0 380 208 588 482 588 249 0 420-165 425-427H828v-166h572v163c0 370-256 606-611 606" id="ac"/><path fill="#333" d="M158 0v-1118h175l1 205c55-151 181-225 313-225 147 0 245 90 285 228 53-141 190-228 352-228 194 0 352 125 352 384V0h-181v-749c0-161-105-225-225-225-151 0-243 103-243 244V0H807v-767c0-124-93-207-219-207-131 0-250 92-250 270V0H158" id="ad"/><path fill="#333" d="M611 442c-248 0-391-105-460-228l146-94c47 65 117 165 314 165 178 0 307-82 307-266v-224h-17C863-141 792-18 576-18c-268 0-472-195-472-546 0-346 197-568 476-568 216 0 288 133 326 193h17v-179h175V29c0 289-215 413-487 413zm-5-620c203 0 314-146 314-390 0-237-108-403-314-403-213 0-319 180-319 403 0 230 109 390 319 390" id="ae"/><path fill="#333" d="M158 0v-1118h174v172h12c41-113 157-188 290-188 26 0 70 2 91 3v181c-11-2-60-10-108-10-161 0-279 109-279 260V0H158" id="af"/><g id="h"><use transform="matrix(0.01193576388888889,0,0,0.01193576388888889,0,0)" xlink:href="#ac"/><use transform="matrix(0.01193576388888889,0,0,0.01193576388888889,18.237847222222225,0)" xlink:href="#E"/><use transform="matrix(0.01193576388888889,0,0,0.01193576388888889,31.963975694444454,0)" xlink:href="#ad"/><use transform="matrix(0.01193576388888889,0,0,0.01193576388888889,53.376736111111114,0)" xlink:href="#I"/><use transform="matrix(0.01193576388888889,0,0,0.01193576388888889,67.62803819444444,0)" xlink:href="#D"/><use transform="matrix(0.01193576388888889,0,0,0.01193576388888889,89.70920138888889,0)" xlink:href="#E"/><use transform="matrix(0.01193576388888889,0,0,0.01193576388888889,103.43532986111111,0)" xlink:href="#J"/><use transform="matrix(0.01193576388888889,0,0,0.01193576388888889,117.87760416666667,0)" xlink:href="#E"/><use transform="matrix(0.01193576388888889,0,0,0.01193576388888889,131.60373263888889,0)" xlink:href="#ae"/><use transform="matrix(0.01193576388888889,0,0,0.01193576388888889,146.59505208333334,0)" xlink:href="#I"/><use transform="matrix(0.01193576388888889,0,0,0.01193576388888889,160.84635416666669,0)" xlink:href="#af"/></g><path fill="#333" d="M537 14c-226 0-379-139-379-422v-710h180v695c0 172 97 275 253 275 160 0 281-109 281-300v-670h181V0H879v-209C806-46 684 14 537 14" id="ag"/><g id="i"><use transform="matrix(0.01193576388888889,0,0,0.01193576388888889,0,0)" xlink:href="#ac"/><use transform="matrix(0.01193576388888889,0,0,0.01193576388888889,18.237847222222225,0)" xlink:href="#E"/><use transform="matrix(0.01193576388888889,0,0,0.01193576388888889,31.963975694444454,0)" xlink:href="#ad"/><use transform="matrix(0.01193576388888889,0,0,0.01193576388888889,53.376736111111114,0)" xlink:href="#I"/><use transform="matrix(0.01193576388888889,0,0,0.01193576388888889,67.62803819444444,0)" xlink:href="#D"/><use transform="matrix(0.01193576388888889,0,0,0.01193576388888889,89.70920138888889,0)" xlink:href="#I"/><use transform="matrix(0.01193576388888889,0,0,0.01193576388888889,103.96050347222221,0)" xlink:href="#J"/><use transform="matrix(0.01193576388888889,0,0,0.01193576388888889,118.40277777777777,0)" xlink:href="#ag"/></g><path fill="#333" d="M657 26c-323 0-524-166-541-416h195c15 169 171 246 346 246 202 0 356-106 356-265 5-203-294-238-475-293-239-73-380-191-380-389 0-252 224-419 512-419 294 0 499 171 508 396H992c-17-145-151-228-328-228-193 0-321 102-321 242 0 156 175 211 284 241l149 41c160 44 422 134 422 412 0 244-197 432-541 432" id="ah"/><path fill="#333" d="M613 24c-304 0-509-231-509-576 0-350 205-580 509-580 216 0 392 114 453 309l-173 49c-33-115-133-197-280-197-223 0-326 196-326 419 0 220 103 415 326 415 150 0 252-85 285-206l172 49C1010-95 832 24 613 24" id="ai"/><path fill="#333" d="M613 24c-304 0-509-231-509-576 0-350 205-580 509-580 305 0 511 230 511 580 0 345-206 576-511 576zm0-161c226 0 329-195 329-415 0-222-103-419-329-419-223 0-326 196-326 419 0 220 103 415 326 415" id="aj"/><path fill="#333" d="M98-1322v-168h1126v168H757V0H567v-1322H98" id="ak"/><path fill="#333" d="M158 0v-1490h180v865h22l478-493h223L593-638 1096 0H865L456-523 338-412V0H158" id="al"/><g id="j"><use transform="matrix(0.01193576388888889,0,0,0.01193576388888889,0,0)" xlink:href="#ah"/><use transform="matrix(0.01193576388888889,0,0,0.01193576388888889,15.683593750000002,0)" xlink:href="#ai"/><use transform="matrix(0.01193576388888889,0,0,0.01193576388888889,29.648437500000004,0)" xlink:href="#aj"/><use transform="matrix(0.01193576388888889,0,0,0.01193576388888889,44.30555555555556,0)" xlink:href="#af"/><use transform="matrix(0.01193576388888889,0,0,0.01193576388888889,53.10221354166667,0)" xlink:href="#I"/><use transform="matrix(0.01193576388888889,0,0,0.01193576388888889,65.44379340277779,0)" xlink:href="#ak"/><use transform="matrix(0.01193576388888889,0,0,0.01193576388888889,79.83832465277779,0)" xlink:href="#af"/><use transform="matrix(0.01193576388888889,0,0,0.01193576388888889,89.04079861111111,0)" xlink:href="#E"/><use transform="matrix(0.01193576388888889,0,0,0.01193576388888889,102.76692708333334,0)" xlink:href="#ai"/><use transform="matrix(0.01193576388888889,0,0,0.01193576388888889,116.73177083333334,0)" xlink:href="#al"/><use transform="matrix(0.01193576388888889,0,0,0.01193576388888889,129.59852430555557,0)" xlink:href="#I"/><use transform="matrix(0.01193576388888889,0,0,0.01193576388888889,143.8498263888889,0)" xlink:href="#af"/></g><path fill="#3a414a" d="M783 20c-382 0-661-292-661-764 0-473 279-766 661-766 302 0 548 182 601 489h-190c-42-204-217-313-411-313-268 0-476 208-476 590 0 381 209 588 476 588 195 0 369-110 411-313h190c-52 303-296 489-601 489" id="am"/><path fill="#3a414a" d="M338-670V0H158v-1490h180v566c73-149 190-208 336-208 226 0 379 139 379 422V0H872v-695c0-172-96-275-252-275-161 0-282 109-282 300" id="an"/><path fill="#3a414a" d="M158 0v-1490h180v865h22l478-493h223L593-638 1096 0H865L456-523 338-412V0H158" id="ao"/><g id="k"><use transform="matrix(0.01193576388888889,0,0,0.01193576388888889,0,0)" xlink:href="#am"/><use transform="matrix(0.01193576388888889,0,0,0.01193576388888889,17.85590277777778,0)" xlink:href="#an"/><use transform="matrix(0.01193576388888889,0,0,0.01193576388888889,32.31011284722223,0)" xlink:href="#U"/><use transform="matrix(0.01193576388888889,0,0,0.01193576388888889,46.561414930555564,0)" xlink:href="#ab"/><use transform="matrix(0.01193576388888889,0,0,0.01193576388888889,60.52625868055556,0)" xlink:href="#ao"/></g><path fill="#3a414a" d="M370-1490V0H180v-1490h190" id="ap"/><path fill="#3a414a" d="M678-1118v154H420V0H240v-964H20v-154h220v-149c0-194 155-293 318-293 85 0 141 18 168 30l-50 154c-19-6-47-17-97-17-111 0-159 58-159 166v109h258" id="aq"/><g id="l"><use transform="matrix(0.01193576388888889,0,0,0.01193576388888889,0,0)" xlink:href="#ap"/><use transform="matrix(0.01193576388888889,0,0,0.01193576388888889,6.564670138888889,0)" xlink:href="#aq"/></g><g id="m"><use transform="matrix(0.01193576388888889,0,0,0.01193576388888889,0,0)" xlink:href="#W"/><use transform="matrix(0.01193576388888889,0,0,0.01193576388888889,14.442274305555557,0)" xlink:href="#S"/></g><path fill="#3a414a" d="M140 405l46-156c120 36 205 19 263-150l32-93L54-1118h197c107 313 237 620 324 950 87-331 219-637 326-950h196L606 167c-68 178-176 259-334 259-64 0-113-12-132-21" id="ar"/><g id="n"><use transform="matrix(0.01193576388888889,0,0,0.01193576388888889,0,0)" xlink:href="#ar"/><use transform="matrix(0.01193576388888889,0,0,0.01193576388888889,13.260633680555557,0)" xlink:href="#U"/><use transform="matrix(0.01193576388888889,0,0,0.01193576388888889,27.511935763888893,0)" xlink:href="#Y"/></g><path fill="#3a414a" d="M158 0v-1118h174v172h12c41-113 157-188 290-188 26 0 70 2 91 3v181c-11-2-60-10-108-10-161 0-279 109-279 260V0H158" id="as"/><path fill="#3a414a" d="M158 0v-1118h180V0H158zm91-1301c-68 0-125-53-125-119s57-119 125-119c69 0 126 53 126 119s-57 119-126 119" id="at"/><path fill="#3a414a" d="M611 442c-248 0-391-105-460-228l146-94c47 65 117 165 314 165 178 0 307-82 307-266v-224h-17C863-141 792-18 576-18c-268 0-472-195-472-546 0-346 197-568 476-568 216 0 288 133 326 193h17v-179h175V29c0 289-215 413-487 413zm-5-620c203 0 314-146 314-390 0-237-108-403-314-403-213 0-319 180-319 403 0 230 109 390 319 390" id="au"/><g id="o"><use transform="matrix(0.01193576388888889,0,0,0.01193576388888889,0,0)" xlink:href="#V"/><use transform="matrix(0.01193576388888889,0,0,0.01193576388888889,7.996961805555556,0)" xlink:href="#as"/><use transform="matrix(0.01193576388888889,0,0,0.01193576388888889,17.581380208333336,0)" xlink:href="#at"/><use transform="matrix(0.01193576388888889,0,0,0.01193576388888889,23.501519097222225,0)" xlink:href="#au"/><use transform="matrix(0.01193576388888889,0,0,0.01193576388888889,38.49283854166667,0)" xlink:href="#au"/><use transform="matrix(0.01193576388888889,0,0,0.01193576388888889,53.484157986111114,0)" xlink:href="#U"/><use transform="matrix(0.01193576388888889,0,0,0.01193576388888889,67.73546006944444,0)" xlink:href="#as"/></g><g id="p"><use transform="matrix(0.01193576388888889,0,0,0.01193576388888889,0,0)" xlink:href="#U"/><use transform="matrix(0.01193576388888889,0,0,0.01193576388888889,13.773871527777779,0)" xlink:href="#T"/><use transform="matrix(0.01193576388888889,0,0,0.01193576388888889,27.034505208333336,0)" xlink:href="#U"/><use transform="matrix(0.01193576388888889,0,0,0.01193576388888889,41.28580729166667,0)" xlink:href="#W"/><use transform="matrix(0.01193576388888889,0,0,0.01193576388888889,55.72808159722223,0)" xlink:href="#V"/></g><path fill="#3a414a" d="M763 24c-353 0-583-224-583-531v-983h190v968c0 214 149 370 393 370 243 0 391-156 391-370v-968h190v983c0 307-230 531-581 531" id="av"/><path fill="#3a414a" d="M577 24c-279 0-473-224-473-580 0-354 195-576 474-576 218 0 287 134 324 193h14v-551h180V0H922v-173h-20C865-111 790 24 577 24zm27-161c203 0 314-172 314-421 0-247-108-413-314-413-212 0-317 181-317 413 0 235 108 421 317 421" id="aw"/><g id="q"><use transform="matrix(0.01193576388888889,0,0,0.01193576388888889,0,0)" xlink:href="#av"/><use transform="matrix(0.01193576388888889,0,0,0.01193576388888889,18.190104166666668,0)" xlink:href="#Z"/><use transform="matrix(0.01193576388888889,0,0,0.01193576388888889,33.157552083333336,0)" xlink:href="#aw"/><use transform="matrix(0.01193576388888889,0,0,0.01193576388888889,48.125,0)" xlink:href="#aa"/><use transform="matrix(0.01193576388888889,0,0,0.01193576388888889,61.851128472222214,0)" xlink:href="#V"/><use transform="matrix(0.01193576388888889,0,0,0.01193576388888889,69.609375,0)" xlink:href="#U"/></g><g id="r"><use transform="matrix(0.01193576388888889,0,0,0.01193576388888889,0,0)" xlink:href="#Y"/><use transform="matrix(0.01193576388888889,0,0,0.01193576388888889,12.90256076388889,0)" xlink:href="#ab"/><use transform="matrix(0.01193576388888889,0,0,0.01193576388888889,26.86740451388889,0)" xlink:href="#S"/><use transform="matrix(0.01193576388888889,0,0,0.01193576388888889,41.52452256944445,0)" xlink:href="#as"/><use transform="matrix(0.01193576388888889,0,0,0.01193576388888889,50.32118055555556,0)" xlink:href="#U"/></g><path fill="#3a414a" d="M645 0H180v-1490h484c435 0 692 280 692 742 0 466-257 748-711 748zM370-168h263c363 0 539-218 539-580 0-358-176-574-521-574H370v1154" id="ax"/><path fill="#3a414a" d="M338-1490V0H158v-1490h180" id="ay"/><g id="s"><use transform="matrix(0.01193576388888889,0,0,0.01193576388888889,0,0)" xlink:href="#ax"/><use transform="matrix(0.01193576388888889,0,0,0.01193576388888889,17.64105902777778,0)" xlink:href="#at"/><use transform="matrix(0.01193576388888889,0,0,0.01193576388888889,23.561197916666668,0)" xlink:href="#Y"/><use transform="matrix(0.01193576388888889,0,0,0.01193576388888889,36.46375868055556,0)" xlink:href="#Z"/><use transform="matrix(0.01193576388888889,0,0,0.01193576388888889,51.43120659722223,0)" xlink:href="#ay"/><use transform="matrix(0.01193576388888889,0,0,0.01193576388888889,57.351345486111114,0)" xlink:href="#aa"/><use transform="matrix(0.01193576388888889,0,0,0.01193576388888889,70.71940104166667,0)" xlink:href="#ar"/></g><path fill="#3a414a" d="M180 0v-1490h908v168H370v486h669v168H370v500h727V0H180" id="az"/><g id="t"><use transform="matrix(0.01193576388888889,0,0,0.01193576388888889,0,0)" xlink:href="#az"/><use transform="matrix(0.01193576388888889,0,0,0.01193576388888889,14.692925347222223,0)" xlink:href="#T"/><use transform="matrix(0.01193576388888889,0,0,0.01193576388888889,27.95355902777778,0)" xlink:href="#U"/><use transform="matrix(0.01193576388888889,0,0,0.01193576388888889,42.204861111111114,0)" xlink:href="#W"/><use transform="matrix(0.01193576388888889,0,0,0.01193576388888889,56.64713541666667,0)" xlink:href="#V"/></g><g id="u"><use transform="matrix(0.01193576388888889,0,0,0.01193576388888889,0,0)" xlink:href="#V"/><use transform="matrix(0.01193576388888889,0,0,0.01193576388888889,7.996961805555556,0)" xlink:href="#as"/><use transform="matrix(0.01193576388888889,0,0,0.01193576388888889,17.581380208333336,0)" xlink:href="#at"/><use transform="matrix(0.01193576388888889,0,0,0.01193576388888889,23.501519097222225,0)" xlink:href="#au"/><use transform="matrix(0.01193576388888889,0,0,0.01193576388888889,38.49283854166667,0)" xlink:href="#au"/><use transform="matrix(0.01193576388888889,0,0,0.01193576388888889,53.484157986111114,0)" xlink:href="#U"/><use transform="matrix(0.01193576388888889,0,0,0.01193576388888889,67.73546006944444,0)" xlink:href="#as"/><use transform="matrix(0.01193576388888889,0,0,0.01193576388888889,76.53211805555554,0)" xlink:href="#U"/><use transform="matrix(0.01193576388888889,0,0,0.01193576388888889,90.78342013888887,0)" xlink:href="#aw"/></g><g id="v"><use transform="matrix(0.01193576388888889,0,0,0.01193576388888889,0,0)" xlink:href="#ap"/><use transform="matrix(0.01193576388888889,0,0,0.01193576388888889,6.564670138888889,0)" xlink:href="#Y"/></g><g id="w"><use transform="matrix(0.01193576388888889,0,0,0.01193576388888889,0,0)" xlink:href="#U"/><use transform="matrix(0.01193576388888889,0,0,0.01193576388888889,13.773871527777779,0)" xlink:href="#T"/><use transform="matrix(0.01193576388888889,0,0,0.01193576388888889,27.034505208333336,0)" xlink:href="#U"/><use transform="matrix(0.01193576388888889,0,0,0.01193576388888889,41.28580729166667,0)" xlink:href="#W"/><use transform="matrix(0.01193576388888889,0,0,0.01193576388888889,55.72808159722223,0)" xlink:href="#V"/></g><path fill="#3a414a" d="M383-449c-3-277 82-343 222-425 88-53 156-134 156-250 0-139-108-227-243-227-118 0-235 70-246 236H82c10-251 200-395 436-395 259 0 427 165 427 393 0 161-74 273-203 352-132 80-180 132-178 316H383zm93 462c-75 0-135-60-135-134 0-75 60-135 135-135 74 0 134 60 134 135 0 74-60 134-134 134" id="aA"/><g id="x"><use transform="matrix(0.01193576388888889,0,0,0.01193576388888889,0,0)" xlink:href="#Y"/><use transform="matrix(0.01193576388888889,0,0,0.01193576388888889,12.90256076388889,0)" xlink:href="#Z"/><use transform="matrix(0.01193576388888889,0,0,0.01193576388888889,28.108723958333336,0)" xlink:href="#aa"/><use transform="matrix(0.01193576388888889,0,0,0.01193576388888889,41.83485243055556,0)" xlink:href="#ab"/><use transform="matrix(0.01193576388888889,0,0,0.01193576388888889,55.79969618055556,0)" xlink:href="#U"/><use transform="matrix(0.01193576388888889,0,0,0.01193576388888889,70.05099826388889,0)" xlink:href="#aA"/></g><path fill="#3a414a" d="M52 0l541-1490h220L1361 0h-200l-149-416H398L254 0H52zm404-582h497c-103-290-145-390-251-756-108 377-145 460-246 756" id="aB"/><g id="y"><use transform="matrix(0.01193576388888889,0,0,0.01193576388888889,0,0)" xlink:href="#aB"/><use transform="matrix(0.01193576388888889,0,0,0.01193576388888889,16.865234375,0)" xlink:href="#Z"/><use transform="matrix(0.01193576388888889,0,0,0.01193576388888889,31.832682291666668,0)" xlink:href="#Z"/><use transform="matrix(0.01193576388888889,0,0,0.01193576388888889,46.800130208333336,0)" xlink:href="#ay"/><use transform="matrix(0.01193576388888889,0,0,0.01193576388888889,52.839626736111114,0)" xlink:href="#ar"/></g><g id="z"><use transform="matrix(0.01193576388888889,0,0,0.01193576388888889,0,0)" xlink:href="#U"/><use transform="matrix(0.01193576388888889,0,0,0.01193576388888889,14.251302083333334,0)" xlink:href="#aq"/><use transform="matrix(0.01193576388888889,0,0,0.01193576388888889,22.34375,0)" xlink:href="#aq"/><use transform="matrix(0.01193576388888889,0,0,0.01193576388888889,30.674913194444446,0)" xlink:href="#U"/><use transform="matrix(0.01193576388888889,0,0,0.01193576388888889,44.92621527777778,0)" xlink:href="#ab"/><use transform="matrix(0.01193576388888889,0,0,0.01193576388888889,58.891059027777786,0)" xlink:href="#V"/></g><g id="A"><use transform="matrix(0.01193576388888889,0,0,0.01193576388888889,0,0)" xlink:href="#Z"/><use transform="matrix(0.01193576388888889,0,0,0.01193576388888889,14.967447916666668,0)" xlink:href="#ay"/><use transform="matrix(0.01193576388888889,0,0,0.01193576388888889,20.887586805555557,0)" xlink:href="#aa"/><use transform="matrix(0.01193576388888889,0,0,0.01193576388888889,34.255642361111114,0)" xlink:href="#ar"/><use transform="matrix(0.01193576388888889,0,0,0.01193576388888889,47.51627604166667,0)" xlink:href="#U"/><use transform="matrix(0.01193576388888889,0,0,0.01193576388888889,61.76757812500001,0)" xlink:href="#as"/></g><path fill="#3a414a" d="M158 0v-1118h175l1 205c55-151 181-225 313-225 147 0 245 90 285 228 53-141 190-228 352-228 194 0 352 125 352 384V0h-181v-749c0-161-105-225-225-225-151 0-243 103-243 244V0H807v-767c0-124-93-207-219-207-131 0-250 92-250 270V0H158" id="aC"/><g id="B"><use transform="matrix(0.01193576388888889,0,0,0.01193576388888889,0,0)" xlink:href="#ap"/><use transform="matrix(0.01193576388888889,0,0,0.01193576388888889,6.564670138888889,0)" xlink:href="#W"/><use transform="matrix(0.01193576388888889,0,0,0.01193576388888889,21.006944444444446,0)" xlink:href="#ab"/><use transform="matrix(0.01193576388888889,0,0,0.01193576388888889,34.97178819444445,0)" xlink:href="#as"/><use transform="matrix(0.01193576388888889,0,0,0.01193576388888889,43.768446180555564,0)" xlink:href="#U"/><use transform="matrix(0.01193576388888889,0,0,0.01193576388888889,58.01974826388891,0)" xlink:href="#aC"/><use transform="matrix(0.01193576388888889,0,0,0.01193576388888889,79.43250868055557,0)" xlink:href="#U"/><use transform="matrix(0.01193576388888889,0,0,0.01193576388888889,93.6838107638889,0)" xlink:href="#W"/><use transform="matrix(0.01193576388888889,0,0,0.01193576388888889,108.12608506944446,0)" xlink:href="#V"/></g><path fill="#3a414a" d="M537 14c-226 0-379-139-379-422v-710h180v695c0 172 97 275 253 275 160 0 281-109 281-300v-670h181V0H879v-209C806-46 684 14 537 14" id="aD"/><g id="C"><use transform="matrix(0.01193576388888889,0,0,0.01193576388888889,0,0)" xlink:href="#ab"/><use transform="matrix(0.01193576388888889,0,0,0.01193576388888889,13.964843750000002,0)" xlink:href="#S"/><use transform="matrix(0.01193576388888889,0,0,0.01193576388888889,28.621961805555557,0)" xlink:href="#aD"/><use transform="matrix(0.01193576388888889,0,0,0.01193576388888889,43.076171875,0)" xlink:href="#W"/><use transform="matrix(0.01193576388888889,0,0,0.01193576388888889,57.51844618055556,0)" xlink:href="#V"/><use transform="matrix(0.01193576388888889,0,0,0.01193576388888889,65.27669270833333,0)" xlink:href="#U"/><use transform="matrix(0.01193576388888889,0,0,0.01193576388888889,79.52799479166666,0)" xlink:href="#as"/></g></defs></g></svg>