<svg xmlns="http://www.w3.org/2000/svg" xmlns:xlink="http://www.w3.org/1999/xlink" contentStyleType="text/css" data-diagram-type="SEQUENCE" height="366px" preserveAspectRatio="none" style="width:411px;height:366px;background:#FFFFFF;" version="1.1" viewBox="0 0 411 366" width="411px" zoomAndPan="magnify"><defs/><g><g><title>GameManager</title><rect fill="#FFFFFF" height="151.7578" style="stroke:#181818;stroke-width:1;" width="10" x="142.1494" y="114.9609"/></g><g><title>TimeTracker</title><rect fill="#FFFFFF" height="91.0547" style="stroke:#181818;stroke-width:1;" width="10" x="257.0566" y="145.3125"/></g><g><title>GameMenu</title><rect fill="#FFFFFF" height="91.0547" style="stroke:#181818;stroke-width:1;" width="10" x="356.9082" y="175.6641"/></g><g><title>Player</title><rect fill="#000000" fill-opacity="0.00000" height="202.1094" width="8" x="23.8413" y="82.6094"/><line style="stroke:#181818;stroke-width:0.5;stroke-dasharray:5,5;" x1="27" x2="27" y1="82.6094" y2="284.7188"/></g><g><title>GameManager</title><rect fill="#000000" fill-opacity="0.00000" height="202.1094" width="8" x="143.1494" y="82.6094"/><line style="stroke:#181818;stroke-width:0.5;stroke-dasharray:5,5;" x1="146.46" x2="146.46" y1="82.6094" y2="284.7188"/></g><g><title>TimeTracker</title><rect fill="#000000" fill-opacity="0.00000" height="202.1094" width="8" x="258.0566" y="82.6094"/><line style="stroke:#181818;stroke-width:0.5;stroke-dasharray:5,5;" x1="261.7773" x2="261.7773" y1="82.6094" y2="284.7188"/></g><g><title>GameMenu</title><rect fill="#000000" fill-opacity="0.00000" height="202.1094" width="8" x="357.9082" y="82.6094"/><line style="stroke:#181818;stroke-width:0.5;stroke-dasharray:5,5;" x1="361.3359" x2="361.3359" y1="82.6094" y2="284.7188"/></g><g class="participant participant-head" data-participant="Player"><text fill="#000000" font-family="sans-serif" font-size="14" lengthAdjust="spacing" textLength="39.6826" x="5" y="79.5332">Player</text><ellipse cx="27.8413" cy="13.5" fill="#E2E2F0" rx="8" ry="8" style="stroke:#181818;stroke-width:0.5;"/><path d="M27.8413,21.5 L27.8413,48.5 M14.8413,29.5 L40.8413,29.5 M27.8413,48.5 L14.8413,63.5 M27.8413,48.5 L40.8413,63.5" fill="none" style="stroke:#181818;stroke-width:0.5;"/></g><g class="participant participant-tail" data-participant="Player"><text fill="#000000" font-family="sans-serif" font-size="14" lengthAdjust="spacing" textLength="39.6826" x="5" y="298.252">Player</text><ellipse cx="27.8413" cy="309.8281" fill="#E2E2F0" rx="8" ry="8" style="stroke:#181818;stroke-width:0.5;"/><path d="M27.8413,317.8281 L27.8413,344.8281 M14.8413,325.8281 L40.8413,325.8281 M27.8413,344.8281 L14.8413,359.8281 M27.8413,344.8281 L40.8413,359.8281" fill="none" style="stroke:#181818;stroke-width:0.5;"/></g><g class="participant participant-head" data-participant="GameManager"><rect fill="#E2E2F0" height="31.6094" rx="2.5" ry="2.5" style="stroke:#181818;stroke-width:0.5;" width="107.3789" x="93.46" y="50"/><text fill="#000000" font-family="sans-serif" font-size="14" lengthAdjust="spacing" textLength="93.3789" x="100.46" y="71.5332">GameManager</text></g><g class="participant participant-tail" data-participant="GameManager"><rect fill="#E2E2F0" height="31.6094" rx="2.5" ry="2.5" style="stroke:#181818;stroke-width:0.5;" width="107.3789" x="93.46" y="283.7188"/><text fill="#000000" font-family="sans-serif" font-size="14" lengthAdjust="spacing" textLength="93.3789" x="100.46" y="305.252">GameManager</text></g><g class="participant participant-head" data-participant="TimeTracker"><rect fill="#E2E2F0" height="31.6094" rx="2.5" ry="2.5" style="stroke:#181818;stroke-width:0.5;" width="92.5586" x="215.7773" y="50"/><text fill="#000000" font-family="sans-serif" font-size="14" lengthAdjust="spacing" textLength="78.5586" x="222.7773" y="71.5332">TimeTracker</text></g><g class="participant participant-tail" data-participant="TimeTracker"><rect fill="#E2E2F0" height="31.6094" rx="2.5" ry="2.5" style="stroke:#181818;stroke-width:0.5;" width="92.5586" x="215.7773" y="283.7188"/><text fill="#000000" font-family="sans-serif" font-size="14" lengthAdjust="spacing" textLength="78.5586" x="222.7773" y="305.252">TimeTracker</text></g><g class="participant participant-head" data-participant="GameMenu"><rect fill="#E2E2F0" height="31.6094" rx="2.5" ry="2.5" style="stroke:#181818;stroke-width:0.5;" width="87.1445" x="318.3359" y="50"/><text fill="#000000" font-family="sans-serif" font-size="14" lengthAdjust="spacing" textLength="73.1445" x="325.3359" y="71.5332">GameMenu</text></g><g class="participant participant-tail" data-participant="GameMenu"><rect fill="#E2E2F0" height="31.6094" rx="2.5" ry="2.5" style="stroke:#181818;stroke-width:0.5;" width="87.1445" x="318.3359" y="283.7188"/><text fill="#000000" font-family="sans-serif" font-size="14" lengthAdjust="spacing" textLength="73.1445" x="325.3359" y="305.252">GameMenu</text></g><g><title>GameManager</title><rect fill="#FFFFFF" height="151.7578" style="stroke:#181818;stroke-width:1;" width="10" x="142.1494" y="114.9609"/></g><g><title>TimeTracker</title><rect fill="#FFFFFF" height="91.0547" style="stroke:#181818;stroke-width:1;" width="10" x="257.0566" y="145.3125"/></g><g><title>GameMenu</title><rect fill="#FFFFFF" height="91.0547" style="stroke:#181818;stroke-width:1;" width="10" x="356.9082" y="175.6641"/></g><g class="message" data-participant-1="Player" data-participant-2="GameManager"><polygon fill="#181818" points="130.1494,110.9609,140.1494,114.9609,130.1494,118.9609,134.1494,114.9609" style="stroke:#181818;stroke-width:1;"/><line style="stroke:#181818;stroke-width:1;" x1="27.8413" x2="136.1494" y1="114.9609" y2="114.9609"/><text fill="#000000" font-family="sans-serif" font-size="13" lengthAdjust="spacing" textLength="82.3799" x="34.8413" y="110.1045">Player pauses</text></g><g class="message" data-participant-1="GameManager" data-participant-2="TimeTracker"><polygon fill="#181818" points="245.0566,141.3125,255.0566,145.3125,245.0566,149.3125,249.0566,145.3125" style="stroke:#181818;stroke-width:1;"/><line style="stroke:#181818;stroke-width:1;" x1="152.1494" x2="251.0566" y1="145.3125" y2="145.3125"/><text fill="#000000" font-family="sans-serif" font-size="13" lengthAdjust="spacing" textLength="75.8608" x="159.1494" y="140.4561">Pauses timer</text></g><g class="message" data-participant-1="GameManager" data-participant-2="GameMenu"><polygon fill="#181818" points="344.9082,171.6641,354.9082,175.6641,344.9082,179.6641,348.9082,175.6641" style="stroke:#181818;stroke-width:1;"/><line style="stroke:#181818;stroke-width:1;" x1="152.1494" x2="350.9082" y1="175.6641" y2="175.6641"/><text fill="#000000" font-family="sans-serif" font-size="13" lengthAdjust="spacing" textLength="107.6816" x="159.1494" y="170.8076">Show pause menu</text></g><g class="message" data-participant-1="Player" data-participant-2="GameManager"><polygon fill="#181818" points="130.1494,202.0156,140.1494,206.0156,130.1494,210.0156,134.1494,206.0156" style="stroke:#181818;stroke-width:1;"/><line style="stroke:#181818;stroke-width:1;" x1="27.8413" x2="136.1494" y1="206.0156" y2="206.0156"/><text fill="#000000" font-family="sans-serif" font-size="13" lengthAdjust="spacing" textLength="90.3081" x="34.8413" y="201.1592">Player resumes</text></g><g class="message" data-participant-1="GameManager" data-participant-2="TimeTracker"><polygon fill="#181818" points="250.0566,232.3672,260.0566,236.3672,250.0566,240.3672,254.0566,236.3672" style="stroke:#181818;stroke-width:1;"/><line style="stroke:#181818;stroke-width:1;" x1="152.1494" x2="256.0566" y1="236.3672" y2="236.3672"/><text fill="#000000" font-family="sans-serif" font-size="13" lengthAdjust="spacing" textLength="80.9072" x="159.1494" y="231.5107">Resume timer</text></g><g class="message" data-participant-1="GameManager" data-participant-2="GameMenu"><polygon fill="#181818" points="349.9082,262.7188,359.9082,266.7188,349.9082,270.7188,353.9082,266.7188" style="stroke:#181818;stroke-width:1;"/><line style="stroke:#181818;stroke-width:1;" x1="147.1494" x2="355.9082" y1="266.7188" y2="266.7188"/><text fill="#000000" font-family="sans-serif" font-size="13" lengthAdjust="spacing" textLength="101.8989" x="154.1494" y="261.8623">Hide pause menu</text></g><!--SRC=[bP112W8n34NtEKKku0LSkDMD83eN29sWHJjJqbJnzhPsP6eHqUqd__r7oEWekBlGdGKyYLfZFGsAQtAyfO6EJTvPnvsGEN-wvo4251WkLZK3bzC8Ueg10m8PjLTIVbk2kf88rLecbAgcKEP-RTJsNrQfV3YDjpAEBYUDm2_gmY6wxFvTS_yyAve8FVzhkh4zLwOrOLPjm-c13m00]--></g></svg>