<svg xmlns="http://www.w3.org/2000/svg" xmlns:xlink="http://www.w3.org/1999/xlink" xmlns:lucid="lucid" width="1198.29" height="1023.24"><g transform="translate(995.997223310671 899.2099835789593)" lucid:page-tab-id="0_0"><path d="M-2000-1000H500V500h-2500z" fill="#fff"/><path d="M-955.18-767.5h-11.5m-11.5 0h-11.5a5 5 0 0 0-5 5v10.12m0 10.12v20.24m0 10.12v20.25m0 10.12v20.24m0 10.14v20.24m0 10.12v20.25m0 10.12v20.24m0 10.13v20.25m0 10.12v20.24m0 10.13v20.24m0 10.13v20.25m0 10.12v20.24m0 10.13V-388m0 10.13v20.25m0 10.12v20.24m0 10.12v20.25m0 10.13v20.24m0 10.13v20.24m0 10.12v20.25m0 10.13v20.24m0 10.13v20.24m0 10.12v20.25m0 10.13v20.24m0 10.12v20.24m0 10.12v20.24m0 10.13V6.77m0 10.12V27a5 5 0 0 0 5 5h8.26m8.26 0h16.53m8.26 0h8.26M-955.2-767.5h3.52M-940.12 32h3.5M-633.7-735.7v9.93m0 9.94v19.87m0 9.94v19.88m0 9.93v19.87m0 9.94v19.88m0 9.94v19.88m0 9.94v19.87m0 9.95v19.88m0 9.94v19.87m0 9.94v19.88m0 9.93v19.87m0 9.94v19.88m0 9.94V-368m0 9.94v19.87m0 9.95v19.88m0 9.93v19.88m0 9.94v19.87m0 9.94v19.87m0 9.94v19.88m0 9.94v19.88m0 9.93v19.88m0 9.95v19.87m0 9.94v19.88m0 9.94V-50" stroke="#333" fill="none"/><path d="M-633.22-735.7h-.95v-.5h.95zM-633.22-49.5h-.95v-.5h.95z" stroke="#333" stroke-width=".05" fill="#333"/><path d="M-264.78-735.7v10.37m0 10.4v20.75m0 10.38v20.77m0 10.38v20.77m0 10.38v20.77m0 10.38v20.77m0 10.38v20.77m0 10.38v20.76m0 10.4v20.76m0 10.4V-445m0 10.4v20.76m0 10.38v10.4a.22.22 0 0 1-.23.2.22.22 0 0 0-.23.24v10.38m0 10.38v20.77m0 10.4v20.76m0 10.38v20.76m0 10.4v20.75m0 10.4v20.75m0 10.4v20.75m0 10.38v20.77m0 10.38v20.77m0 10.38v20.77m0 10.38v20.77m0 10.38V-50" stroke="#333" fill="none"/><path d="M-264.3-735.7h-.96v-.5h.95zM-264.76-49.5h-.95v-.5h.94z" stroke="#333" stroke-width=".05" fill="#333"/><path d="M-285.23-592a8 8 0 0 1 8-8h24a8 8 0 0 1 8 8v264a8 8 0 0 1-8 8h-24a8 8 0 0 1-8-8z" stroke="#6db1ff" stroke-width="2" fill="#ced4db"/><path d="M104.12-735.7v10.36m0 10.36v20.74m0 10.36v20.73m0 10.37v20.73m0 10.37v20.73m0 10.37v20.73m0 10.37v20.73m0 10.37v20.73m0 10.37v20.73m0 10.37v20.73m0 10.36v20.75m0 10.36v10.38a.77.77 0 0 1-.77.77.77.77 0 0 0-.77.77v10.37m0 10.36v20.73m0 10.36v20.73m0 10.36v20.73m0 10.35v20.74m0 10.35v20.74m0 10.35v20.73m0 10.37v20.73m0 10.37v20.73m0 10.37v20.73m0 10.37v20.73m0 10.37V-50" stroke="#333" fill="none"/><path d="M104.6-735.7h-.95v-.5h.95zM103.05-49.5h-.95v-.5h.95z" stroke="#333" stroke-width=".05" fill="#333"/><path d="M82.58-512a8 8 0 0 1 8-8h24a8 8 0 0 1 8 8v304a8 8 0 0 1-8 8h-24a8 8 0 0 1-8-8zM-653.04-652a8 8 0 0 1 8-8h24a8 8 0 0 1 8 8v484a8 8 0 0 1-8 8h-24a8 8 0 0 1-8-8z" stroke="#6db1ff" stroke-width="2" fill="#ced4db"/><path d="M-361.95-890.2a8 8 0 0 1 8-8h178.33a8 8 0 0 1 8 8v145a8 8 0 0 1-8 8h-178.33a8 8 0 0 1-8-8z" stroke="#ff80df" stroke-width="2" fill="#6db1ff"/><use xlink:href="#a" transform="matrix(1,0,0,1,-353.9477419302475,-890.2099835569265) translate(17.96896701388887 81.39214409722223)"/><path d="M6.96-890.2a8 8 0 0 1 8-8H193.3a8 8 0 0 1 8 8v145a8 8 0 0 1-8 8H14.95a8 8 0 0 1-8-8z" stroke="#ff80df" stroke-width="2" fill="#6db1ff"/><use xlink:href="#b" transform="matrix(1,0,0,1,14.9599912758151,-890.2099835569265) translate(23.071506076388886 81.39214409722223)"/><path d="M-974.93-845.2v-.2a20.25 20.25 0 0 1 20.25-20.26 20.25 20.25 0 0 1 20.25 20.25 20.25 20.25 0 0 1-20.25 20.25 20.25 20.25 0 0 1-20.25-20.26v-.2" stroke="#333" fill="#fff"/><path d="M-995.57-857.66a8 8 0 0 1 8-8h65.8a8 8 0 0 1 8 8v146.03a8 8 0 0 1-8 8h-65.8a8 8 0 0 1-8-8z" fill="none"/><path d="M-954.68-825.15v56.7l40.9 64.82m-40.9-64.8l-40.9 64.8m0-101.27h81.8" stroke="#333" fill="none"/><use xlink:href="#c" transform="matrix(1,0,0,1,-1075.574366180756,-703.6330600398983) translate(85.19270833333333 23.680555555555557)"/><path d="M-730.86-890.2a8 8 0 0 1 8-8h178.33a8 8 0 0 1 8 8v145a8 8 0 0 1-8 8h-178.33a8 8 0 0 1-8-8z" stroke="#ff80df" stroke-width="2" fill="#6db1ff"/><use xlink:href="#d" transform="matrix(1,0,0,1,-722.8554751363109,-890.2099835569265) translate(4.475585937499986 81.39214409722223)"/><path d="M-959.36-39.54v-.2A20.25 20.25 0 0 1-939.1-60a20.25 20.25 0 0 1 20.25 20.25A20.25 20.25 0 0 1-939.1-19.5a20.25 20.25 0 0 1-20.26-20.25v-.2" stroke="#333" fill="#fff"/><path d="M-980-52a8 8 0 0 1 8-8h65.8a8 8 0 0 1 8 8V94.03a8 8 0 0 1-8 8H-972a8 8 0 0 1-8-8z" fill="none"/><path d="M-939.1-19.5v56.72l40.9 64.8m-40.9-64.8l-40.9 64.8m0-101.26h81.8" stroke="#333" fill="none"/><use xlink:href="#c" transform="matrix(1,0,0,1,-1060,102.0275369969153) translate(85.19270833333333 23.680555555555557)"/><path d="M-730.86-40.5a8 8 0 0 1 8-8h178.33a8 8 0 0 1 8 8v145a8 8 0 0 1-8 8h-178.33a8 8 0 0 1-8-8z" stroke="#ff80df" stroke-width="2" fill="#6db1ff"/><use xlink:href="#d" transform="matrix(1,0,0,1,-722.8554751363109,-40.48623150154235) translate(4.475585937499986 81.39214409722223)"/><path d="M-362.4-40.5a8 8 0 0 1 8-8h178.33a8 8 0 0 1 8 8v145a8 8 0 0 1-8 8H-354.4a8 8 0 0 1-8-8z" stroke="#ff80df" stroke-width="2" fill="#6db1ff"/><use xlink:href="#a" transform="matrix(1,0,0,1,-354.395246041016,-40.486231501542306) translate(17.96896701388887 81.39214409722223)"/><path d="M5.4-40.5a8 8 0 0 1 8-8h178.34a8 8 0 0 1 8 8v145a8 8 0 0 1-8 8H13.4a8 8 0 0 1-8-8z" stroke="#ff80df" stroke-width="2" fill="#6db1ff"/><use xlink:href="#b" transform="matrix(1,0,0,1,13.414930026023256,-40.486231501542306) translate(23.071506076388886 81.39214409722223)"/><path d="M-994.18-620h323.75M-994.17-620h-.5" stroke="#3a414a" fill="none"/><path d="M-655.66-620l-14.27 4.63v-9.26z" stroke="#3a414a" fill="#3a414a"/><use xlink:href="#e" transform="matrix(1,0,0,1,-905.3265859159562,-616.000000217771) translate(0 23.680555555555557)"/><use xlink:href="#f" transform="matrix(1,0,0,1,-905.3265859159562,-616.000000217771) translate(78.48958333333334 23.680555555555557)"/><path d="M-611.54-580h308.92" stroke="#3a414a" fill="none"/><path d="M-611.53-579.52h-.5v-.96h.5z" stroke="#3a414a" stroke-width=".05" fill="#3a414a"/><path d="M-287.85-580l-14.27 4.63v-9.26z" stroke="#3a414a" fill="#3a414a"/><use xlink:href="#g" transform="matrix(1,0,0,1,-523.8899539824453,-575.9998779079507) translate(0 23.680555555555557)"/><use xlink:href="#h" transform="matrix(1,0,0,1,-523.8899539824453,-575.9998779079507) translate(90.72374131944444 23.680555555555557)"/><path d="M-611.54-500H63.6" stroke="#3a414a" fill="none"/><path d="M-611.53-499.52h-.5v-.96h.5z" stroke="#3a414a" stroke-width=".05" fill="#3a414a"/><path d="M78.38-500l-14.27 4.63.02-9.26z" stroke="#3a414a" fill="#3a414a"/><use xlink:href="#i" transform="matrix(1,0,0,1,-544.6043069295337,-495.99994038252964) translate(0 23.680555555555557)"/><use xlink:href="#j" transform="matrix(1,0,0,1,-544.6043069295337,-495.99994038252964) translate(71.23263888888889 23.680555555555557)"/><use xlink:href="#k" transform="matrix(1,0,0,1,-544.6043069295337,-495.99994038252964) translate(148.64800347222223 23.680555555555557)"/><path d="M-994.18-380h323.75M-994.17-380h-.5" stroke="#3a414a" fill="none"/><path d="M-655.66-380l-14.27 4.63v-9.26z" stroke="#3a414a" fill="#3a414a"/><use xlink:href="#e" transform="matrix(1,0,0,1,-913.09078005508,-375.999898581671) translate(0 23.680555555555557)"/><use xlink:href="#l" transform="matrix(1,0,0,1,-913.09078005508,-375.999898581671) translate(78.48958333333334 23.680555555555557)"/><path d="M-611.54-340h308.92" stroke="#3a414a" fill="none"/><path d="M-611.53-339.52h-.5v-.96h.5z" stroke="#3a414a" stroke-width=".05" fill="#3a414a"/><path d="M-287.85-340l-14.27 4.63v-9.26z" stroke="#3a414a" fill="#3a414a"/><use xlink:href="#m" transform="matrix(1,0,0,1,-528.2882193744437,-335.99999896295486) translate(0 23.680555555555557)"/><use xlink:href="#h" transform="matrix(1,0,0,1,-528.2882193744437,-335.99999896295486) translate(99.52039930555556 23.680555555555557)"/><path d="M-611.54-240H65.2" stroke="#3a414a" fill="none"/><path d="M-611.53-239.53h-.5v-.94h.5z" stroke="#3a414a" stroke-width=".05" fill="#3a414a"/><path d="M79.96-240l-14.27 4.63v-9.26z" stroke="#3a414a" fill="#3a414a"/><g><use xlink:href="#n" transform="matrix(1,0,0,1,-553.0780164930555,-236.00000000000006) translate(0 23.680555555555557)"/><use xlink:href="#j" transform="matrix(1,0,0,1,-553.0780164930555,-236.00000000000006) translate(60.18012152777778 23.680555555555557)"/><use xlink:href="#k" transform="matrix(1,0,0,1,-553.0780164930555,-236.00000000000006) translate(137.59548611111111 23.680555555555557)"/></g><defs><path d="M98-1322v-168h1126v168H757V0H567v-1322H98" id="o"/><path d="M158 0v-1118h180V0H158zm91-1301c-68 0-125-53-125-119s57-119 125-119c69 0 126 53 126 119s-57 119-126 119" id="p"/><path d="M158 0v-1118h175l1 205c55-151 181-225 313-225 147 0 245 90 285 228 53-141 190-228 352-228 194 0 352 125 352 384V0h-181v-749c0-161-105-225-225-225-151 0-243 103-243 244V0H807v-767c0-124-93-207-219-207-131 0-250 92-250 270V0H158" id="q"/><path d="M628 24c-324 0-524-230-524-574 0-343 198-582 503-582 237 0 487 146 487 559v75H286c9 234 145 362 343 362 132 0 231-58 273-172l174 48C1024-91 857 24 628 24zM287-650h624c-17-190-120-322-304-322-192 0-309 151-320 322" id="r"/><path d="M158 0v-1118h174v172h12c41-113 157-188 290-188 26 0 70 2 91 3v181c-11-2-60-10-108-10-161 0-279 109-279 260V0H158" id="s"/><path d="M471 26C259 26 90-98 90-318c0-256 228-303 435-329 202-27 287-16 287-108 0-139-79-219-234-219-161 0-248 86-283 164l-173-57c86-203 278-265 451-265 150 0 419 46 419 395V0H815v-152h-12C765-73 660 26 471 26zm31-159c199 0 310-134 310-271v-155c-30 35-226 55-295 64-131 17-246 59-246 186 0 116 97 176 231 176" id="t"/><path d="M613 24c-304 0-509-231-509-576 0-350 205-580 509-580 216 0 392 114 453 309l-173 49c-33-115-133-197-280-197-223 0-326 196-326 419 0 220 103 415 326 415 150 0 252-85 285-206l172 49C1010-95 832 24 613 24" id="u"/><path d="M158 0v-1490h180v865h22l478-493h223L593-638 1096 0H865L456-523 338-412V0H158" id="v"/><g id="a"><use transform="matrix(0.01193576388888889,0,0,0.01193576388888889,0,0)" xlink:href="#o"/><use transform="matrix(0.01193576388888889,0,0,0.01193576388888889,15.779079861111112,0)" xlink:href="#p"/><use transform="matrix(0.01193576388888889,0,0,0.01193576388888889,21.69921875,0)" xlink:href="#q"/><use transform="matrix(0.01193576388888889,0,0,0.01193576388888889,43.11197916666667,0)" xlink:href="#r"/><use transform="matrix(0.01193576388888889,0,0,0.01193576388888889,55.453559027777786,0)" xlink:href="#o"/><use transform="matrix(0.01193576388888889,0,0,0.01193576388888889,69.84809027777779,0)" xlink:href="#s"/><use transform="matrix(0.01193576388888889,0,0,0.01193576388888889,79.05056423611111,0)" xlink:href="#t"/><use transform="matrix(0.01193576388888889,0,0,0.01193576388888889,92.77669270833334,0)" xlink:href="#u"/><use transform="matrix(0.01193576388888889,0,0,0.01193576388888889,106.74153645833334,0)" xlink:href="#v"/><use transform="matrix(0.01193576388888889,0,0,0.01193576388888889,119.60828993055557,0)" xlink:href="#r"/><use transform="matrix(0.01193576388888889,0,0,0.01193576388888889,133.8595920138889,0)" xlink:href="#s"/></g><path d="M789 20c-398 0-667-293-667-764 0-473 273-766 655-766 315 0 558 198 612 487h-196c-61-191-204-311-415-311-262 0-471 207-471 590 0 380 208 588 482 588 249 0 420-165 425-427H828v-166h572v163c0 370-256 606-611 606" id="w"/><path d="M180 0v-1490h270l367 940c28 72 75 218 110 339 35-117 81-264 110-339l362-940h271V0h-187c2-448-5-837 7-1287-157 497-311 829-483 1287H842C666-458 514-784 354-1284c12 438 5 843 7 1284H180" id="x"/><path d="M338-670V0H158v-1118h173l1 207c72-158 192-221 342-221 226 0 378 139 378 422V0H872v-695c0-172-96-275-252-275-161 0-282 109-282 300" id="y"/><path d="M537 14c-226 0-379-139-379-422v-710h180v695c0 172 97 275 253 275 160 0 281-109 281-300v-670h181V0H879v-209C806-46 684 14 537 14" id="z"/><g id="b"><use transform="matrix(0.01193576388888889,0,0,0.01193576388888889,0,0)" xlink:href="#w"/><use transform="matrix(0.01193576388888889,0,0,0.01193576388888889,18.237847222222225,0)" xlink:href="#t"/><use transform="matrix(0.01193576388888889,0,0,0.01193576388888889,31.963975694444454,0)" xlink:href="#q"/><use transform="matrix(0.01193576388888889,0,0,0.01193576388888889,53.376736111111114,0)" xlink:href="#r"/><use transform="matrix(0.01193576388888889,0,0,0.01193576388888889,67.62803819444444,0)" xlink:href="#x"/><use transform="matrix(0.01193576388888889,0,0,0.01193576388888889,89.70920138888889,0)" xlink:href="#r"/><use transform="matrix(0.01193576388888889,0,0,0.01193576388888889,103.96050347222221,0)" xlink:href="#y"/><use transform="matrix(0.01193576388888889,0,0,0.01193576388888889,118.40277777777777,0)" xlink:href="#z"/></g><path d="M180 0v-1490h510c348 0 508 209 508 474 0 266-160 477-507 477H370V0H180zm190-706h312c236 0 327-133 327-310 0-176-91-307-329-307H370v617" id="A"/><path d="M338-1490V0H158v-1490h180" id="B"/><path d="M140 405l46-156c120 36 205 19 263-150l32-93L54-1118h197c107 313 237 620 324 950 87-331 219-637 326-950h196L606 167c-68 178-176 259-334 259-64 0-113-12-132-21" id="C"/><g id="c"><use transform="matrix(0.01193576388888889,0,0,0.01193576388888889,0,0)" xlink:href="#A"/><use transform="matrix(0.01193576388888889,0,0,0.01193576388888889,15.611979166666668,0)" xlink:href="#B"/><use transform="matrix(0.01193576388888889,0,0,0.01193576388888889,21.532118055555557,0)" xlink:href="#t"/><use transform="matrix(0.01193576388888889,0,0,0.01193576388888889,34.900173611111114,0)" xlink:href="#C"/><use transform="matrix(0.01193576388888889,0,0,0.01193576388888889,48.16080729166667,0)" xlink:href="#r"/><use transform="matrix(0.01193576388888889,0,0,0.01193576388888889,62.41210937500001,0)" xlink:href="#s"/></g><path d="M611 442c-248 0-391-105-460-228l146-94c47 65 117 165 314 165 178 0 307-82 307-266v-224h-17C863-141 792-18 576-18c-268 0-472-195-472-546 0-346 197-568 476-568 216 0 288 133 326 193h17v-179h175V29c0 289-215 413-487 413zm-5-620c203 0 314-146 314-390 0-237-108-403-314-403-213 0-319 180-319 403 0 230 109 390 319 390" id="D"/><g id="d"><use transform="matrix(0.01193576388888889,0,0,0.01193576388888889,0,0)" xlink:href="#w"/><use transform="matrix(0.01193576388888889,0,0,0.01193576388888889,18.237847222222225,0)" xlink:href="#t"/><use transform="matrix(0.01193576388888889,0,0,0.01193576388888889,31.963975694444454,0)" xlink:href="#q"/><use transform="matrix(0.01193576388888889,0,0,0.01193576388888889,53.376736111111114,0)" xlink:href="#r"/><use transform="matrix(0.01193576388888889,0,0,0.01193576388888889,67.62803819444444,0)" xlink:href="#x"/><use transform="matrix(0.01193576388888889,0,0,0.01193576388888889,89.70920138888889,0)" xlink:href="#t"/><use transform="matrix(0.01193576388888889,0,0,0.01193576388888889,103.43532986111111,0)" xlink:href="#y"/><use transform="matrix(0.01193576388888889,0,0,0.01193576388888889,117.87760416666667,0)" xlink:href="#t"/><use transform="matrix(0.01193576388888889,0,0,0.01193576388888889,131.60373263888889,0)" xlink:href="#D"/><use transform="matrix(0.01193576388888889,0,0,0.01193576388888889,146.59505208333334,0)" xlink:href="#r"/><use transform="matrix(0.01193576388888889,0,0,0.01193576388888889,160.84635416666669,0)" xlink:href="#s"/></g><path fill="#333" d="M180 0v-1490h510c348 0 508 209 508 474 0 266-160 477-507 477H370V0H180zm190-706h312c236 0 327-133 327-310 0-176-91-307-329-307H370v617" id="E"/><path fill="#333" d="M338-1490V0H158v-1490h180" id="F"/><path fill="#333" d="M471 26C259 26 90-98 90-318c0-256 228-303 435-329 202-27 287-16 287-108 0-139-79-219-234-219-161 0-248 86-283 164l-173-57c86-203 278-265 451-265 150 0 419 46 419 395V0H815v-152h-12C765-73 660 26 471 26zm31-159c199 0 310-134 310-271v-155c-30 35-226 55-295 64-131 17-246 59-246 186 0 116 97 176 231 176" id="G"/><path fill="#333" d="M140 405l46-156c120 36 205 19 263-150l32-93L54-1118h197c107 313 237 620 324 950 87-331 219-637 326-950h196L606 167c-68 178-176 259-334 259-64 0-113-12-132-21" id="H"/><path fill="#333" d="M628 24c-324 0-524-230-524-574 0-343 198-582 503-582 237 0 487 146 487 559v75H286c9 234 145 362 343 362 132 0 231-58 273-172l174 48C1024-91 857 24 628 24zM287-650h624c-17-190-120-322-304-322-192 0-309 151-320 322" id="I"/><path fill="#333" d="M158 0v-1118h174v172h12c41-113 157-188 290-188 26 0 70 2 91 3v181c-11-2-60-10-108-10-161 0-279 109-279 260V0H158" id="J"/><g id="e"><use transform="matrix(0.01193576388888889,0,0,0.01193576388888889,0,0)" xlink:href="#E"/><use transform="matrix(0.01193576388888889,0,0,0.01193576388888889,15.611979166666668,0)" xlink:href="#F"/><use transform="matrix(0.01193576388888889,0,0,0.01193576388888889,21.532118055555557,0)" xlink:href="#G"/><use transform="matrix(0.01193576388888889,0,0,0.01193576388888889,34.900173611111114,0)" xlink:href="#H"/><use transform="matrix(0.01193576388888889,0,0,0.01193576388888889,48.16080729166667,0)" xlink:href="#I"/><use transform="matrix(0.01193576388888889,0,0,0.01193576388888889,62.41210937500001,0)" xlink:href="#J"/></g><path fill="#333" d="M158 418v-1536h174v179h20c37-59 106-193 324-193 279 0 474 222 474 576 0 356-194 580-473 580-213 0-288-135-325-197h-14v591H158zm492-555c209 0 317-186 317-421 0-232-105-413-317-413-206 0-314 166-314 413 0 249 111 421 314 421" id="K"/><path fill="#333" d="M537 14c-226 0-379-139-379-422v-710h180v695c0 172 97 275 253 275 160 0 281-109 281-300v-670h181V0H879v-209C806-46 684 14 537 14" id="L"/><path fill="#333" d="M538 24C308 24 148-78 108-271l171-41c32 123 123 178 257 178 156 0 256-77 256-169 0-77-54-128-164-154l-186-44c-203-48-300-148-300-305 0-192 176-326 414-326 230 0 351 112 402 269l-163 42c-31-80-94-158-238-158-133 0-233 69-233 162 0 83 57 129 188 160l169 40c203 48 298 149 298 302 0 196-179 339-441 339" id="M"/><g id="f"><use transform="matrix(0.01193576388888889,0,0,0.01193576388888889,0,0)" xlink:href="#K"/><use transform="matrix(0.01193576388888889,0,0,0.01193576388888889,15.206163194444446,0)" xlink:href="#G"/><use transform="matrix(0.01193576388888889,0,0,0.01193576388888889,28.932291666666668,0)" xlink:href="#L"/><use transform="matrix(0.01193576388888889,0,0,0.01193576388888889,43.386501736111114,0)" xlink:href="#M"/><use transform="matrix(0.01193576388888889,0,0,0.01193576388888889,56.28906250000001,0)" xlink:href="#I"/><use transform="matrix(0.01193576388888889,0,0,0.01193576388888889,70.54036458333333,0)" xlink:href="#M"/></g><g id="g"><use transform="matrix(0.01193576388888889,0,0,0.01193576388888889,0,0)" xlink:href="#E"/><use transform="matrix(0.01193576388888889,0,0,0.01193576388888889,15.611979166666668,0)" xlink:href="#G"/><use transform="matrix(0.01193576388888889,0,0,0.01193576388888889,29.338107638888893,0)" xlink:href="#L"/><use transform="matrix(0.01193576388888889,0,0,0.01193576388888889,43.79231770833334,0)" xlink:href="#M"/><use transform="matrix(0.01193576388888889,0,0,0.01193576388888889,56.69487847222223,0)" xlink:href="#I"/><use transform="matrix(0.01193576388888889,0,0,0.01193576388888889,70.94618055555556,0)" xlink:href="#M"/></g><path fill="#333" d="M598-1118v154H368v674c0 100 37 144 132 144 23 0 62-6 92-12L629-6c-37 13-88 20-134 20-193 0-307-107-307-290v-688H20v-154h168v-266h180v266h230" id="N"/><path fill="#333" d="M158 0v-1118h180V0H158zm91-1301c-68 0-125-53-125-119s57-119 125-119c69 0 126 53 126 119s-57 119-126 119" id="O"/><path fill="#333" d="M158 0v-1118h175l1 205c55-151 181-225 313-225 147 0 245 90 285 228 53-141 190-228 352-228 194 0 352 125 352 384V0h-181v-749c0-161-105-225-225-225-151 0-243 103-243 244V0H807v-767c0-124-93-207-219-207-131 0-250 92-250 270V0H158" id="P"/><g id="h"><use transform="matrix(0.01193576388888889,0,0,0.01193576388888889,0,0)" xlink:href="#N"/><use transform="matrix(0.01193576388888889,0,0,0.01193576388888889,7.996961805555556,0)" xlink:href="#O"/><use transform="matrix(0.01193576388888889,0,0,0.01193576388888889,13.917100694444446,0)" xlink:href="#P"/><use transform="matrix(0.01193576388888889,0,0,0.01193576388888889,35.329861111111114,0)" xlink:href="#I"/><use transform="matrix(0.01193576388888889,0,0,0.01193576388888889,49.58116319444445,0)" xlink:href="#J"/></g><path fill="#333" d="M657 26c-323 0-524-166-541-416h195c15 169 171 246 346 246 202 0 356-106 356-265 5-203-294-238-475-293-239-73-380-191-380-389 0-252 224-419 512-419 294 0 499 171 508 396H992c-17-145-151-228-328-228-193 0-321 102-321 242 0 156 175 211 284 241l149 41c160 44 422 134 422 412 0 244-197 432-541 432" id="Q"/><path fill="#333" d="M338-670V0H158v-1490h180v566c73-149 190-208 336-208 226 0 379 139 379 422V0H872v-695c0-172-96-275-252-275-161 0-282 109-282 300" id="R"/><path fill="#333" d="M613 24c-304 0-509-231-509-576 0-350 205-580 509-580 305 0 511 230 511 580 0 345-206 576-511 576zm0-161c226 0 329-195 329-415 0-222-103-419-329-419-223 0-326 196-326 419 0 220 103 415 326 415" id="S"/><path fill="#333" d="M409 0L70-1118h191c89 329 165 560 243 925 75-353 154-601 240-925h192c85 325 161 564 235 922 77-354 157-598 244-922h191L1267 0h-179c-86-307-176-590-250-913C763-588 675-308 588 0H409" id="T"/><g id="i"><use transform="matrix(0.01193576388888889,0,0,0.01193576388888889,0,0)" xlink:href="#Q"/><use transform="matrix(0.01193576388888889,0,0,0.01193576388888889,15.683593750000002,0)" xlink:href="#R"/><use transform="matrix(0.01193576388888889,0,0,0.01193576388888889,30.137803819444454,0)" xlink:href="#S"/><use transform="matrix(0.01193576388888889,0,0,0.01193576388888889,44.353298611111114,0)" xlink:href="#T"/></g><g id="j"><use transform="matrix(0.01193576388888889,0,0,0.01193576388888889,0,0)" xlink:href="#K"/><use transform="matrix(0.01193576388888889,0,0,0.01193576388888889,15.206163194444446,0)" xlink:href="#G"/><use transform="matrix(0.01193576388888889,0,0,0.01193576388888889,28.932291666666668,0)" xlink:href="#L"/><use transform="matrix(0.01193576388888889,0,0,0.01193576388888889,43.386501736111114,0)" xlink:href="#M"/><use transform="matrix(0.01193576388888889,0,0,0.01193576388888889,56.28906250000001,0)" xlink:href="#I"/></g><path fill="#333" d="M338-670V0H158v-1118h173l1 207c72-158 192-221 342-221 226 0 378 139 378 422V0H872v-695c0-172-96-275-252-275-161 0-282 109-282 300" id="U"/><g id="k"><use transform="matrix(0.01193576388888889,0,0,0.01193576388888889,0,0)" xlink:href="#P"/><use transform="matrix(0.01193576388888889,0,0,0.01193576388888889,21.412760416666668,0)" xlink:href="#I"/><use transform="matrix(0.01193576388888889,0,0,0.01193576388888889,35.6640625,0)" xlink:href="#U"/><use transform="matrix(0.01193576388888889,0,0,0.01193576388888889,50.10633680555556,0)" xlink:href="#L"/></g><g id="l"><use transform="matrix(0.01193576388888889,0,0,0.01193576388888889,0,0)" xlink:href="#J"/><use transform="matrix(0.01193576388888889,0,0,0.01193576388888889,8.796657986111112,0)" xlink:href="#I"/><use transform="matrix(0.01193576388888889,0,0,0.01193576388888889,23.047960069444446,0)" xlink:href="#M"/><use transform="matrix(0.01193576388888889,0,0,0.01193576388888889,35.950520833333336,0)" xlink:href="#L"/><use transform="matrix(0.01193576388888889,0,0,0.01193576388888889,50.40473090277778,0)" xlink:href="#P"/><use transform="matrix(0.01193576388888889,0,0,0.01193576388888889,71.81749131944446,0)" xlink:href="#I"/><use transform="matrix(0.01193576388888889,0,0,0.01193576388888889,86.06879340277779,0)" xlink:href="#M"/></g><path fill="#333" d="M180 0v-1490h510c348 0 508 194 508 460 0 198-88 351-276 417L1256 0h-220L726-579c-117 2-238 0-356 1V0H180zm190-747h312c235 0 327-108 327-283 0-177-92-293-329-293H370v576" id="V"/><g id="m"><use transform="matrix(0.01193576388888889,0,0,0.01193576388888889,0,0)" xlink:href="#V"/><use transform="matrix(0.01193576388888889,0,0,0.01193576388888889,15.37326388888889,0)" xlink:href="#I"/><use transform="matrix(0.01193576388888889,0,0,0.01193576388888889,29.624565972222225,0)" xlink:href="#M"/><use transform="matrix(0.01193576388888889,0,0,0.01193576388888889,42.527126736111114,0)" xlink:href="#L"/><use transform="matrix(0.01193576388888889,0,0,0.01193576388888889,56.98133680555556,0)" xlink:href="#P"/><use transform="matrix(0.01193576388888889,0,0,0.01193576388888889,78.39409722222223,0)" xlink:href="#I"/></g><path fill="#333" d="M180 0v-1490h190v644h782v-644h190V0h-190v-678H370V0H180" id="W"/><path fill="#333" d="M577 24c-279 0-473-224-473-580 0-354 195-576 474-576 218 0 287 134 324 193h14v-551h180V0H922v-173h-20C865-111 790 24 577 24zm27-161c203 0 314-172 314-421 0-247-108-413-314-413-212 0-317 181-317 413 0 235 108 421 317 421" id="X"/><g id="n"><use transform="matrix(0.01193576388888889,0,0,0.01193576388888889,0,0)" xlink:href="#W"/><use transform="matrix(0.01193576388888889,0,0,0.01193576388888889,18.16623263888889,0)" xlink:href="#O"/><use transform="matrix(0.01193576388888889,0,0,0.01193576388888889,24.08637152777778,0)" xlink:href="#X"/><use transform="matrix(0.01193576388888889,0,0,0.01193576388888889,39.05381944444444,0)" xlink:href="#I"/></g></defs></g></svg>